<?xml version="1.0" encoding="UTF-8"?>
<svg id="Layer_6" data-name="Layer 6" xmlns="http://www.w3.org/2000/svg" viewBox="0 0 180 103.88">
  <defs>
    <style>
      .cls-1 {
        fill: #480c3f;
      }
    </style>
  </defs>
  <path class="cls-1" d="M30.19,43.33c-3.11,3.11.11,5.02.11,9.41s-2.68,5.77.42,8.88c2.89,2.88,4.2.11,8.27-.22s3.95-1.76,8.02-2.09,4.17.92,8.24.59,4.05-.62,8.11-.95,4.1.12,8.17-.21,4.09-.04,8.16-.37,4.03-.86,8.09-1.19,4.07-.37,8.14-.7,4.1.04,8.17-.29,4.08-.23,8.15-.56,3.94-1.91,8.02-2.24,4.39,1.68,8.29.45c.91-.28.92-2.1,0-2.39-3.9-1.22-4.16.1-8.23-.22s-4.03-.82-8.1-1.14-4.06-.44-8.13-.76-4.08-.13-8.15-.45-4.06-.37-8.13-.7-4.16.78-8.22.46-4.08-.2-8.15-.52-4.06-.45-8.13-.77-4.01-1.03-8.09-1.35-4.11.21-8.18-.11-3.94-.79-7.81-2.11c-4.52-1.55-6.17-3.32-9.06-.43Z"/>
  <path class="cls-1" d="M111.3,19.98c-3.66,1.24,2,4.03,4.15,7.25s2.64,2.88,4.78,6.1,1.81,3.44,3.96,6.65,2.71,2.84,4.86,6.06,4.26,2.84,4.13,6.71-2.57,3.07-4.94,6.14-2.14,3.24-4.5,6.3-2.47,2.99-4.83,6.06-2.82,2.72-5.18,5.8-5.99,2.86-4.43,6.41c1.38,3.14,3.17-1.53,6.48-2.44s3.9.68,6.97-.85c3.38-1.69,2.87-2.6,5.9-4.85s2.88-2.46,5.92-4.71,3.26-1.94,6.3-4.19,3.18-2.05,6.22-4.31,2.94-2.38,5.98-4.64,5.66-.93,5.64-4.72-2.71-2.41-5.76-4.74-2.77-2.7-5.83-5.03-3.2-2.14-6.25-4.47-3.21-2.13-6.26-4.46-2.9-2.54-5.96-4.87-3.97-1.29-6.73-3.97c-4.56-4.44-5.12-7.09-10.63-5.22Z"/>
  <path class="cls-1" d="M168.47,71.48c.39,1.96,5.15,1.78,5.51-.19,1.97-10.65,1.11-10.89,1.11-21.72s-1.91-10.83-1.91-21.67,9.57-15.61,1.29-22.59c-9.81-8.28-13.62.94-26.46.94s-12.84-1.06-25.68-1.06c-12.84,0-12.84.7-25.68.7-12.84,0-12.84-1.07-25.68-1.07s-12.84-.07-25.68-.07c-12.84,0-12.82.6-25.51,2.58-1.98.31-1.97,1.49,0,1.8,12.35,1.97,12.33-.14,24.84-.14s12.51.48,25.01.48,12.51-.06,25.01-.06,12.51.74,25.01.74,12.51-1.02,25.02-1.02,15.65-7.2,25.36.69c7.89,6.41-.93,10.58-.93,20.75,0,10.17.51,10.1-.53,20.22s-2.06,10.72-.09,20.69Z"/>
  <path class="cls-1" d="M148.1,100.19c-12.63,1.98-12.66,1.78-25.45,1.78s-12.79-.49-25.57-.49-12.79-.55-25.57-.55c-12.79,0-12.79-1.22-25.58-1.22-12.79,0-13.33,4.97-25.52,1.11-7.11-2.25-9.24-3.5-11.17-10.71-3.29-12.33.21-13.1.21-25.86s.16-12.75,2.14-25.35c.31-1.98,1.4-1.94,1.71.03,1.97,12.22.25,12.18.25,24.57,0,12.38-.76,12.46,1.99,24.53,1.29,5.65,1.17,6.87,6.77,8.35,12.18,3.24,12.44.89,25.05.89s12.6-.97,25.21-.97,12.61,1.88,25.21,1.88,12.61-.09,25.21-.09,12.61-1.85,25.15-.51c1.92.2,1.91,2.29-.06,2.6Z"/>
</svg>