<?xml version="1.0" encoding="UTF-8"?>
<svg id="Layer_6" data-name="Layer 6" xmlns="http://www.w3.org/2000/svg" viewBox="0 0 180 180">
  <defs>
    <style>
      .cls-1 {
        fill: #480c3f;
      }
    </style>
  </defs>
  <path class="cls-1" d="M106.84,12.86c-1.96-.39-2.15-2.12-.19-2.49,10.65-1.97,10.78,1.11,21.61,1.11s10.83-1.91,21.67-1.91,13.76-6.99,20.74,1.29c8.28,9.81.94,12.06.94,24.9s-1.06,12.84-1.06,25.68c0,12.84.7,12.84.7,25.68,0,12.84-1.07,12.84-1.07,25.68,0,12.84-.07,12.84-.07,25.68,0,12.84,4.56,13.17,2.58,25.86-.31,1.98-5.88,1.98-6.2,0-1.97-12.35-.14-12.68-.14-25.19s.48-12.51.48-25.01c0-12.51-.06-12.51-.06-25.01,0-12.51.74-12.51.74-25.01,0-12.51-1.02-12.51-1.02-25.02,0-12.51,8.58-14.97.69-24.68-6.41-7.89-9.75-.93-19.91-.93s-10.2-.79-20.36-.54-10.09,1.87-20.07-.09Z"/>
  <path class="cls-1" d="M12.12,147.72c-1.98-12.63-.97-12.73-.97-25.52,0-12.79.91-12.79.91-25.57,0-12.79-.99-12.79-.99-25.57,0-12.79.61-12.79.61-25.58s-3.61-13.33.26-25.52c2.25-7.11,4.18-6.71,11.38-8.64,12.33-3.29,12.43.04,25.19.04s13.1-4.44,25.7-2.46c1.98.31,1.65,4.01-.32,4.33-12.22,1.97-12.24,1.19-24.63,1.19-12.38,0-12.97-4.31-25.04-1.56-5.65,1.29-7.67,3.07-9.16,8.67-3.24,12.18-.51,12.79-.51,25.4,0,12.6,2.22,12.6,2.22,25.21,0,12.61.33,12.61.33,25.21,0,12.61-1.99,12.61-1.99,25.21s2.73,12.77,1.19,25.28c-.26,2.13-3.87,1.86-4.18-.12Z"/>
  <path class="cls-1" d="M20.46,169.67c-1.97-.34-1.91-2.83.06-3.18,11.27-1.97,11.34-.23,22.77-.23s11.44-1.35,22.88-1.35,11.44,1.5,22.88,1.5,11.44.49,22.88.49,11.44-1.64,22.88-1.64,11.77-2.21,23.04-.24c1.97.34,1.97,5.44,0,5.79-11.27,1.97-11.59.16-23.03.16s-11.44-1.22-22.88-1.22-11.44-.72-22.88-.72c-11.44,0-11.44.55-22.88.55-11.44,0-11.51-1.44-22.94-.86s-11.51,2.93-22.78.96Z"/>
  <path class="cls-1" d="M75.63,53.53c3.65-1.09,7.3-2.46,11.22-3.23s7.62-1.74,11.53-2.03,7.81.17,11.67.53,8.2-.49,11.88.73,6.68,4.26,9.93,6.53,6.1,4.56,8.61,7.83c2.66,3.53,4.42,7.65,6.2,11.82s2.7,8.39,3.53,12.78,1.77,8.79,1.56,13.19c-.3,4.37-1,8.44-2.16,12.33-1.24,4.14-3.27,7.72-5.35,11.26s-4.71,6.79-7.62,9.77-5.11,7.08-8.67,9.32-7.97,2.94-11.96,4.36-7.96,2.34-12.18,2.91-8.29,1.21-12.55.94-8.17-1.48-12.32-2.56c-4.21-1.04-8.11-2.68-11.94-4.65s-7.5-4.14-10.84-6.88-6.33-5.8-9.09-9.11-6.31-6.25-8.39-9.99c0,0,4.79-3.78,9.27-6.15s4.72-5.82,9.66-4.7c1.81,3.8,3.84,8.18,6.35,11.36s5.88,5.64,9.24,8.03c3.05,2.22,5.72,5.55,9.39,6.87s7.74.92,11.57,1.34,7.81,1.67,11.57,1.21c4.63-.52,9.37-2.01,13.49-4.01s7.56-5.52,10.82-8.79,6.23-6.88,8.23-11.12c1.89-3.96,3.13-8.33,3.69-12.72s-.94-8.58-1.76-12.98c-.8-4.43-1.02-8.99-2.86-13.05s-3.83-8.35-7.12-11.52c-2.79-2.66-6.42-4.11-9.78-5.63s-7.09-1.72-10.83-2.32-7.25-2.08-11.03-2-7.44,1.05-11.13,1.56-7.77-.11-11.31.67c0,0-.21-3.05-.21-3.05.15.49-.29,1.15-.29,1.15Z"/>
  <path class="cls-1" d="M87.88,28.65c3.31,2.31-2.23,2.74-4.47,6.1s-1.83,3.64-4.07,7-2.52,3.18-4.76,6.55-4.09,2.77-3.95,6.82,2.22,3.11,4.69,6.31,2.33,3.32,4.8,6.53,2.66,3.07,5.13,6.28,8.36,4.74,4.81,6.69c-5.03,2.77-5.75-1.17-11-3.49-3.47-1.53-3.17-1.97-6.21-4.23s-3.37-1.82-6.42-4.08-2.53-2.96-5.58-5.22-3.24-2.01-6.29-4.27-6.31-.71-6.3-4.51,3.34-2.23,6.4-4.57,3.19-2.17,6.25-4.51,2.99-2.45,6.05-4.78,2.8-2.7,5.87-5.04,3.57-1.75,6.34-4.43c3.67-3.55,4.72-5.94,8.7-3.16Z"/>
</svg>