<?xml version="1.0" encoding="UTF-8"?>
<svg id="Layer_1" data-name="Layer 1" xmlns="http://www.w3.org/2000/svg" viewBox="0 0 180 180">
  <defs>
    <style>
      .cls-1 {
        fill: #480c3f;
      }
    </style>
  </defs>
  <path class="cls-1" d="M111.99,58.67c3.15-1.22,6.45-3.23,9.58-3.5,3.29-.29,6.43,1.41,9.54,2.37s6.49,1.3,9.15,3.54c2.83,2.39,2.98,4.95,3.4,7.03s.02,3.81-1.62,7.16c-1.49,3.05-3,5.69-5.54,7.48s-5.45,3.42-8.62,4.17-6.37-.23-9.57-.29-6.41-.18-9.37-.85c-1.53-.35-6.36-2.27-7.12-2.2-.93.09-1.84,3.67-2.55,4.59-1.81,2.33-4.75,3.84-6,6.36s-1.78,5.57-2.58,8.32-.18,5.76-.6,8.61-.64,5.58-.79,8.47-1.37,5.67-1.36,8.55.12,5.75.18,8.61.11,5.76.13,8.6.7,6.32.57,9.14c-2.13-.19-4.35.36-4.67-2.23-.34-2.78-.33-5.74-.33-8.84,0-2.89.56-5.85.68-8.85s.29-5.98.37-8.9c.08-3.07.08-6.14-.09-8.96s-.47-5.64-.96-8.5-1.97-5.38-2.81-8.08-2.05-5.29-3.33-7.75-3.02-4.75-4.88-6.81c-2.71-3-4.97,0-8.61.91-3.24.82-6.41.53-9.49.33-3.3-.21-6-1.35-8.83-2.72s-6.24-2.09-8.32-4.65c-1.91-2.34-2.58-5.6-3.57-8.91-1.12-3.72-1.67-3.85,1.18-6.84,2.09-2.19,4.14-4.45,6.9-5.8s5.57-3.51,8.6-3.85,5.89.95,8.83,1.8c-1.88-3.1-3.09-6.06-3.77-9.29-.72-3.42.53-6.71,1.28-10.1.71-3.2.26-7.16,2.4-10.18,3.3-4.66,6.36-5.48,12.24-4.87,3.02.31,5.34,2.28,7.74,3.65s4.82,1.91,7.09,3.74c3.63-2.09,7.25-3.17,11.28-4.35,2.86-.84,8.74-.99,11.54-1.07,1.72-.05,3.23.14,3.67,1.54.63,2,1.07,5.78,1.77,9.39s1.89,7.34,1.98,9.41c.12,2.65-.83,5.2-1.48,7.47s-2.34,4.73-3.24,7.14ZM71.68,34.62c1.79-1.63,4.69,3.58,5.3,4.7,1.51-2.31,4.64-2.42,5.82-3.66,1.3-1.36.41-2.49-3.34-5.17-2.89-2.06-5.43-5.24-8.35-5.53s-6.59,1.39-8.87,4.98c-1.54,2.42-2.01,5.25-2.54,7.74-.57,2.64-.19,5.25.3,7.92.46,2.51.27,5.58,1.6,8.08,2.75,4.23,3.1,4.02,5.96,8.18s2.36,4.67,5.78,8.38c-1.29-3.51-2.58-7.08-2.81-10.33s1.79-6.38,2.83-10.02c.55-1.9,1.67-5.02,1.62-6.69-.06-2.04-3.65-8.25-3.3-8.57ZM98.85,69.07c1.91-1.91,3.54-4.8,5.3-7.17s4.45-4,5.63-6.57.77-5.74,1.03-8.52,1.24-5.61.71-8.46c-.44-2.41-1.71-8.39-2.52-10.34-.2-.49-.76-.68-1.43-.91-1.3-.45-5.77.96-10.14,2.45s-9.73,2.98-10.08,4.37c-.17.67.43,1.45.76,1.94.48.71,6.59,6.48,7.03,6.47,2.27-3.5,3.93-9.25,8.05-10.87-.28,2.21-2.51,5.02-3.86,7.33s-2.2,5.08-2.22,7.32c-.01,1.37,3.8,6.7,4.07,9.44.43,4.43-1.79,9.15-2.34,13.5ZM87.81,81.75c2.26-1.96,3.21-5.26,4.57-8.1s3.52-5.25,3.98-8.31-.87-6.16-1.28-9.13c-.43-3.15.23-6.69-1.19-9.26-1.13-2.05-4.77-6.87-6.4-8.4-2.57-2.42-5.72,2.2-7.25,4.38-1.79,2.55-2.69,5.23-3.52,7.77-.92,2.83-2.52,5.58-2.4,8.4s1.03,5.76,2.01,8.57c.91,2.58,2.22,5.29,3.74,7.9,1.56,2.37,2.57,1.58,4.46,3.7-.35-1.37-.35-4.43-.23-8.69.08-3.03-.32-6.36-.02-9.33.46-4.57.42-9.19,1.38-9.83.61-.41,3.65-.17,4.11.48.33.47-.97,5.18-1.4,10.19-.27,3.08-.52,6.51-.73,9.63-.31,4.48-.27,8.75.17,10.03ZM44.95,70.47c-.39-.64-.46-3.99.85-3.8,2.91.83,5.39,3.12,8.22,4.15s6.16.94,8.88,2.26,4.55,4.3,7.08,5.97c1.55.56,2.04-5.09,1.77-5.99-.39-1.35-2.79-3.75-4.74-6.18s-4.28-4.34-5.46-5.15c-2.09-1.42-4.37-3.28-7-3.37s-5.32.65-7.75,1.43-5.09,2.14-6.96,3.57c-3.49,2.67-2.83,4.15-1.14,8.19,1.17,2.81,1.47,6.09,3.5,7.93,2.15,1.95,5.17,2.96,7.9,3.79s5.55-.12,8.45-.43,4.64.02,7.25-1.35c-.28-2.03-.52-1.47-2.05-2.84-.96-1.09-5.24-2.73-9.47-4.27-4.69-1.71-9.04-3.43-9.33-3.89ZM104.85,82.22c2.71.5,5.93-.21,9.02.13s5.92,1.9,8.84,1.69,5.63-2.12,8.25-3.34,6.03-1.81,7.84-4.43c1.61-2.34,2.46-4.9,2.37-6.75s-1.88-3.62-4.32-5.43-5.28-2.63-8.13-3.29-5.97-2-8.88-1.58-6.01,1.78-8.52,3.27-4.96,3.77-6.56,6.3c-1.5,2.38-1.6,4.66-1.82,7.85,3.76-1.72,6.89-3.04,10.56-4.93,1.87-.96,4.13-2.55,6.75-3.34s5.4-2.52,7.51-2.35c1.09.09,3.81,2.64,3.04,3.84-.33.52-8.39,1.26-9.79,1.73-2.05.68-4.38,1.82-6.64,3.05s-4.46,2.58-6.22,3.83c-.45.32-4.02,3.11-3.29,3.74ZM88.77,96.92c.79-3.07,2.07-6.64,3.79-9.28,1.03-1.58,6.29-5.3,6.54-6.1.63-2.01-.83-5.61-.47-7.88-1.45.94-1.91,1.9-2.86,3.27-1.46,2.1-3.35,4.03-5.11,6.08s-2.67,4.79-2.57,7.69c-.42,3.17-.9,3.62.67,6.22ZM84.14,96.54c3.39-2.87-1.12-4.77-1.12-9.21,0-.27,2.12-.86,1.65-1.9-.54-1.19-4.31-1.89-5.21-2.87-1.5-1.64-1.54-5.19-2.84-6.95-.21,1.43-3.1,4.26-3.07,5.52.02.95,6.59,7.11,7.1,8.89.53,4.3.84,8.77,3.49,6.52Z"/>
  <path class="cls-1" d="M104.7,13.63c-1.96-.39-2.17-3.92-.2-4.29,10.65-1.97,10.96-.02,21.79-.02s10.83-.28,21.67-.28,15.51-8.02,22.5.26c8.28,9.81-.1,13.54-.1,26.38,0,12.84-2.01,12.84-2.01,25.68,0,12.84,2.14,12.84,2.14,25.68,0,12.84-1.83,12.84-1.83,25.68,0,12.84-.18,12.84-.18,25.68,0,12.84,4.17,13.16,2.19,25.85-.31,1.98-5.69,1.96-6-.01-1.97-12.35.1-12.66.1-25.16s-.37-12.51-.37-25.01c0-12.51-.04-12.51-.04-25.01,0-12.51.74-12.51.74-25.01,0-12.51,1.71-12.51,1.71-25.02s5.57-14.39-2.32-24.1c-6.41-7.89-9.04-.25-19.21-.25s-10.25-2.58-20.41-2.05-10.21,2.97-20.19,1.01Z"/>
  <path class="cls-1" d="M9.66,147.73c-1.98-12.63.24-12.81.24-25.6,0-12.79-.58-12.79-.58-25.57s.91-12.79.91-25.57c0-12.79-.51-12.79-.51-25.58,0-12.79-3.41-13.27.46-25.46,2.25-7.11,3.95-6.89,11.15-8.82,12.33-3.29,12.46-1.29,25.22-1.29s13.04-2.62,25.64-.64c1.98.31,1.72,3.72-.25,4.04-12.22,1.97-12.26-.47-24.64-.47-12.38,0-12.73-1.69-24.81,1.06-5.65,1.29-6.4,2.43-7.89,8.03-3.24,12.18-1.87,12.39-1.87,25,0,12.6.66,12.6.66,25.21s.53,12.61.53,25.21c0,12.61.69,12.61.69,25.21,0,12.61,1.32,12.78-.43,25.27-.33,2.35-4.2,1.95-4.51-.03Z"/>
  <path class="cls-1" d="M18.65,168.63c-1.97-.34-2.35-3.4-.38-3.74,11.27-1.97,11.6,2.14,23.04,2.14s11.44-1.1,22.88-1.1,11.44-.73,22.88-.73,11.44.74,22.88.74,11.44.08,22.88.08,11.76-3,23.03-1.03c1.97.34,1.85,4.68-.12,5.02-11.27,1.97-11.47-1.09-22.9-1.09-11.44,0-11.44,1.24-22.88,1.24s-11.44-1.55-22.88-1.55-11.44,1.58-22.88,1.58-11.43.13-22.86.39c-11.37.25-11.42.04-22.69-1.93Z"/>
</svg>