<?xml version="1.0" encoding="UTF-8"?>
<svg id="Layer_1" data-name="Layer 1" xmlns="http://www.w3.org/2000/svg" viewBox="0 0 180 180">
  <defs>
    <style>
      .cls-1 {
        fill: #480c3f;
      }
    </style>
  </defs>
  <path class="cls-1" d="M92.35,26.87c3.82-3.46,6.66-3.85,8.95-2.62s4.04,4.37,4.98,8.72c4.44-.18,4.19-1.94,8.02-4.19,3.11-1.57,3.81-.88,5.3,1.07,1.32,1.73,3.98,3.47,4.49,6.13.53,2.8-.22,5.31-.09,7.18,5.71-2.22,8.78.68,9.83,5.9.62,3.08-.96,6.3-1.51,9.19s-.97,6.08-2.51,8.71-4,4.5-6.2,6.64-3.84,4.98-6.43,6.57-5.82,2.11-8.64,3.12-5.78,2.48-8.71,2.81-6.28-1.13-9.17-1.67c-.68.09.58,1.45.32,2.09-.71,2.94-2.14,5.5-2.78,8.45-.64,2.96-1.91,5.79-2.36,8.78s-1.06,6.5-1.23,9.53c1.68-1.33,2.55-4.01,4.03-5.84,2.32-2.85,4.8-5.83,7.85-7.01s7.04-.35,10.49.06,6.86.95,9.91,2.7c4.56,2.62,5.79,4.02,3.76,9.55-1.15,3.12-1.89,6.27-4.26,8.37s-5.31,3.76-8.41,4.73-6.42,1.61-9.63,1.31c-2.22-.21-9.89-4.07-11.3-3.27-.85.48-.84,5.31-.93,6.43-.25,3.01.03,6.03.18,9.09s1.12,6.02,1.27,9.05-1.94,6.01-2.14,9.02c-.27,1.13-2.5.82-2.69.12-.06-2.87.38-5.69.43-8.57s-1.04-5.76-1.14-8.63c-.04-1.13,1-2.26.94-3.39-.09-1.64-.2-4.51-.39-7.29s-1.58-5.68-2.84-6.96c-.71-.72-2.02.97-2.93,1.03-3.47.21-6.55.35-9.73.77s-6.54.91-10.12.32c-3.37-.56-6.15-2.94-8.82-4.49-2.86-1.66-6.23-3.06-8.13-5.62s-2.87-6.04-3.67-9.25c-.75-3.01-1.08-6.42-.74-9.79.25-2.5,1.03-2.54,3.62-2.4s6.07-.59,9.6.06c3.01.55,6.08,1.84,9.19,2.75s6.3,1.79,9.06,3.05c3.25,1.48,5.4,3.77,7.36,5.7,3.5,4.57,2.88,5.2,6.98,9.24-.45-3.22-.69-6.84-.27-10.03s1.62-6.26,2.33-9.4,1.59-6.26,2.05-9.4c-.17-.49-7.4-1.41-8.8-2.03-2.5-1.11-4.55-3.68-7.08-5.31-2.37-1.52-4.81-3.16-7.04-5.06s-4.14-4.05-6.04-6.22-4.17-4.22-5.63-6.67-3.48-5.07-4.32-7.78.51-6.02.54-8.92-.98-5.99.06-8.83c1.25-3.4,4.14-4.38,5.84-5.41,2.32-1.41,4.01-.68,6.66.73,2.15,1.15,4.44,2.38,6.47,4.29s4.63,4.63,6.24,6.34c-.04-2.1-.69-6.54.67-9.34,1.17-2.39,4.54-3.64,6.29-5.55,2.1-2.3,3.93-3.56,6.21-3.71,3.14-.2,6.04,2.18,6.74,5.07ZM86.58,75.83c-1.21-2.99-1.75-6.09-2.38-9.13s-1.05-6.19-1.13-9.32.75-6.16,1.22-9.29,1.35-5.96,2.31-9,.1-6.59,1.49-9.46c.07-1.2-1.04-4.51-2-4.58-2.71,1.79-3.94,4.17-5.53,6.51-1.72,2.51-4.18,4.5-4.8,7.44s.02,5.9.24,8.96.03,6,.82,8.93,2.97,5.28,4.15,8,1.77,5.9,3.24,8.35c.26.43,1.71,3.34,2.39,2.61ZM88.99,74.39c2.24-2.43,4.66-4.52,6.58-6.88,2.07-2.54,3.9-5.18,5.37-7.9s3.27-5.64,3.89-8.87c.56-2.88.94-6.29.62-9.76-.09-1.02-2.86-3.75-3.73-6.74-.94-3.22-1.34-6.09-2.18-6.36-2.81-.88-4.2,2.78-6.31,6.96-1.99,3.95-4.87,7.79-5.33,9.63-.87,3.5-.51,6.84-.61,10.01-.11,3.38-.61,6.66-.17,10.03.42,3.18,1.22,6.4,1.86,9.88ZM83.22,80.15c-1.29-3-2.5-6.05-4.02-8.95s-3.02-5.74-4.18-8.81c-1.04-2.76-1.08-5.42-1.65-7.81-.66-2.78-.99-5.47-1.76-7.93s-3.69-3.95-5.38-6.3c-1.37-1.9-2.72-3.94-5.17-5.87-4.86-3.83-5.83-3.87-8.03,2.44-.83,2.38-2.6,4.51-2.46,7.08s1.42,4.85,2.2,7.28,1.17,5.11,2.35,7.23c1.47,2.64,4.22,4.23,6.28,6.43s3.62,4.79,6.06,6.57,5.34,2.7,7.98,4.11,5.04,3.44,7.77,4.54ZM117.73,31.25c-1.61-1.12-8.98,3.5-9.65,5.08-.74,1.75.5,8.95.24,11.86-.31,3.48-1.89,6.39-3.37,9.51s-3.44,5.71-5.52,8.48-2.6,5.78-4.8,8.29c2.91-.99,4.65-2.3,7.33-3.82s4.61-3.87,6.88-5.91,5.46-3.3,7.11-5.88,2.19-5.67,2.95-8.71c.72-2.87,1.71-5.83,1.43-9.07-.11-1.25-2.09-9.47-2.61-9.83ZM90.91,81.11c5.51,1.21,5.64.39,11.28.39,2.53,0,5.79-1.15,8.96-2.88,2.57-1.41,5.67-2.81,8.09-4.9s4.95-4.44,6.7-6.8c2.13-2.87,1.69-6.6,1.97-9.18.16-1.44.87-4.24.52-6.67-.38-2.67-.1-3.81-3.01-2.37-1.9,3.25-3.36,6.2-5.2,9.76-1.54,2.97-3.13,6.32-5.66,8.84s-5.87,4.18-8.73,5.86c-2.45,1.44-4.68,3.52-7.29,4.57s-5.65,1.33-7.63,3.38ZM77.94,116.15c-1.2-2.95-2.56-5.68-4.53-7.77s-4.61-3.96-7.27-5.38-5.29-3.09-8.21-3.93-5.89-1.67-8.83-2.15-5.6,1.04-8.47.73c-.21,2.93-.01,4.88.77,7.45.83,2.74,2.7,4.53,4.48,6.64s2.87,4.96,5.43,6.23c2.4,1.2,5.27,1.21,8.21,1.48,2.35.21,4.69.83,7.05.63s3.78-.23,6.11-.35c-3.19-1.58-5.81-2.72-9.4-3.42s-7.39-.63-10.73-1.89c-.7-.26-9.3-4.53-7.85-5.86,5.21,1.08,5.34.42,10.45,1.93,4.38,1.29,4.2,1.7,8.67,2.64s4.33,3.05,8.87,2.57c-3.35-2.47-7.41-5.14-11.3-6.68-1.47-.58-5.6-.99-9.34-2.24-4.1-1.38-8.99-2.25-9.63-3.1-.44-.58.37-1.53.47-2.26,3.03.97,6.25,1.26,9.31,2.2s5.59,3.39,8.58,4.49,6.41,1.17,9.23,2.66,5.42,3.32,7.93,5.37ZM91.87,121.43c3.51.77,6.68,1.88,9.77,1.9s6.34-.77,9.56-2.85c2.33-1.5,8.73-8.24,7.93-10.97-.47-1.61-8.86-6.11-10.63-6.41-2.95-.5-5.87,1.8-8.64,2.68s-5.34,1.91-7.38,4.01-3.84,3-4.48,6.02c2.47-3.04,5.62-3.71,9.01-5.08s7.05-2.64,10.96-2.28c1.48.14,3.81.67,4.44,2.23-3.45-.36-6.8.84-10.22,1.57s-6.77,1.23-9.28,3.92c2.06-.25,3.79-1.99,5.86-2.23s4.69.98,7.29.87,5.29-1.97,7.25-1.82c.69.05,1.75.98,1.53,2.05-.4,1.89-6.9,2.09-8.86,2.29-2.37.24-5.15-.41-7.69-.1s-4.81,1.86-6.43,4.2Z"/>
  <path class="cls-1" d="M13.42,74.94c-.39,1.96-3.92,2.17-4.29.2-1.97-10.65-.02-10.96-.02-21.79s-.28-10.83-.28-21.67-8.02-15.51.26-22.5c9.81-8.28,13.54.1,26.38.1s12.84,2.01,25.68,2.01,12.84-2.14,25.68-2.14,12.84,1.83,25.68,1.83,12.84.18,25.68.18,13.16-4.17,25.85-2.19c1.98.31,1.96,5.69-.01,6-12.35,1.97-12.66-.1-25.16-.1-12.51,0-12.51.37-25.01.37s-12.51.04-25.01.04-12.51-.74-25.01-.74-12.51-1.71-25.02-1.71c-12.51,0-14.39-5.57-24.1,2.32-7.89,6.41-.25,9.04-.25,19.21s-2.58,10.25-2.05,20.41,2.97,10.21,1.01,20.19Z"/>
  <path class="cls-1" d="M147.52,169.98c-12.63,1.98-12.81-.24-25.6-.24s-12.79.58-25.57.58-12.79-.91-25.57-.91-12.79.51-25.58.51c-12.79,0-13.27,3.41-25.46-.46-7.11-2.25-6.89-3.95-8.82-11.15-3.29-12.33-1.29-12.46-1.29-25.22,0-12.76-2.62-13.04-.64-25.64.31-1.98,3.72-1.72,4.04.25,1.97,12.22-.47,12.26-.47,24.64,0,12.38-1.69,12.73,1.06,24.81,1.29,5.65,2.43,6.4,8.03,7.89,12.18,3.24,12.39,1.87,25,1.87s12.6-.66,25.21-.66,12.61-.53,25.21-.53,12.61-.69,25.21-.69,12.78-1.32,25.27.43c2.35.33,1.95,4.2-.03,4.51Z"/>
  <path class="cls-1" d="M168.42,160.99c-.34,1.97-3.4,2.35-3.74.38-1.97-11.27,2.14-11.6,2.14-23.04,0-11.44-1.1-11.44-1.1-22.88s-.73-11.44-.73-22.88.74-11.44.74-22.88c0-11.44.08-11.44.08-22.88,0-11.44-3-11.76-1.03-23.03.34-1.97,4.68-1.85,5.02.12,1.97,11.27-1.09,11.47-1.09,22.9s1.24,11.44,1.24,22.88c0,11.44-1.55,11.44-1.55,22.88s1.58,11.44,1.58,22.88.13,11.43.39,22.86c.25,11.37.04,11.42-1.93,22.69Z"/>
</svg>