<?xml version="1.0" encoding="UTF-8"?>
<svg id="Layer_1" data-name="Layer 1" xmlns="http://www.w3.org/2000/svg" viewBox="0 0 180 180">
  <defs>
    <style>
      .cls-1 {
        fill: #480c3f;
      }
    </style>
  </defs>
  <path class="cls-1" d="M132.07,100.01c1.35,2.78,2.15,5.39,1.84,7.94-.32,2.68-2.87,4.71-4.31,7.14s-1.98,5.3-3.73,7.4c-1.63,1.96-3.58,4.06-5.64,6.06s-4.27,3.61-6.51,5.14c-2.36,1.61-4.97,2.73-7.49,3.47-2.68.78-5.39.74-8.09-.03-2.35-.67-4.53-1.07-6.78-3.33-2.29,3.32-6.72,6.44-11.11,5.82-1.33-.19-2.61-1.09-3.97-1.08-1.16,0-2.16-.34-3.44-.22-2.9.27-5.72-.37-8.86-2.08-2.75-1.49-5.35-3.42-7.8-5.52-2.74-2.35-4.85-4.96-6.58-6.97s-4.16-3.74-5.43-6.14-2.03-5.16-2.07-7.86.24-5.12,2-7.69c-2.47-1.02-4.63-1.36-6.28-2.59s-2.84-3.28-3.91-5.89-.5-5.72-.62-8.59c-.11-2.88.28-5.49,1.02-8.3s.54-5.94,1.95-8.46,3.58-4.64,5.53-6.71,4.04-4.75,6.65-6.04,5.65-1.41,8.77-.37c.24-4.54,2.64-7.88,6.62-10.23,2.26-1.33,5.54-3.68,9.35-4.2,3.71-.51,7.67.51,10.31.34,2.5-.16,5.44.3,8.5.24,2.8-.05,5.76-1.3,8.54-.91,2.94.41,5.36,2.16,7.73,3.46s4.81,2.74,6.04,5.52c.5,1.12,1.67,4.3,2.02,4.58.14.11,2.15.7,3.1.79,2.7.24,5.9.44,8.45,2.38,2.19,1.66,4.6,3.81,6.46,6.25,1.74,2.3,1.75,5.81,3.03,8.44s4.02,4.96,4.65,7.66c.74,3.15.52,6.47.05,9.01-.37,2.01-2.8,4.34-4.52,6.75s-3.01,5.06-5.51,4.81ZM87.94,74.36c.15.86.18-.21.72-.9,1.21-3.23,3.33-6.27,3.96-9.92s-.09-7.67.96-10.89c.36-1.11,2.57-3.8,3.76-2.02.56.83-.04,4.33-.83,8.12-.52,2.49-1.39,5.19-2,7.7-.83,3.45-1.75,6.44-1.85,7.72-.19,1.81,1.51.78,2.51,1.85,1.28-2.09,3.16-3.24,4.74-5.11s2.98-3.89,4.42-5.84c1.23-1.65,7.51-8.23,7.93-9.56.88-2.81-1.09-6.01-3.34-7.86s-5.37-3.14-7.61-3.54c-2.44-.44-6.34-.86-10.49-.75-3.37.08-6.97,1.22-10.35,1.52-4.08.37-7.84.68-10.32,1.17-3.1.62-5.55,2.31-7.19,4.37s-1.79,4.44-.77,7.83c.44,1.47,2.31,5.24,4.72,8.91s3.98,7.88,5.11,9.09c1.3,1.38,4.15,2.51,5.39.05-.95-5-3.1-4.46-4.86-9.24s-1.66-4.83-3.04-9.73c.54-.99,2.17-1.2,2.93-.41,2.01,4.29,1.51,4.53,3.36,8.89s.72,4.95,3.08,9.07c.37.65.8-.54,1.45-.91-.1-1.07.19-3.38-.29-7.12-.33-2.6,0-5.52-.26-8.09-.43-4.22-1.77-7.94-1.31-8.28.42-.3,1.62.52,2.19.56.27.18,1.04,4.89,1.14,5.85.26,2.48,1.14,5.04,1.25,7.63s-.99,5.28-.7,7.74c.16,1.39.07,1.84,1.59,1.54.72-4.2-.26-4.13-.26-8.39s1.82-4.26,1.82-8.52c0-.63.09-5.03.86-5.02.08,0,1.69,2.06,1.69,2.14,0,5.1-1.23,5.07-1.4,10.17s.39,5.14,1.26,10.17ZM105.44,93.76c2.08-.16,5.43-.05,9.08.6,2.95.52,5.86,2.72,8.75,3.12,3.87.54,7.15-.59,8.9-1.49,2.23-1.14,5.08-6.9,5.36-9.38.42-3.78-.08-7.29-1.5-10.7s-3.34-6.64-5.74-9.4c-1.77-2.03-4.22-4.99-7.07-6.8s-5.79-1.89-8.76.25c-1.21.87-3.6,2.87-5.49,5.64-1.75,2.57-3.24,5.42-4.35,6.84-.97,1.23-6.66,5.6-6.42,6.73.27,1.28,3.57.17,4.11-.19,2.13-1.45,4.28-3.55,6.31-5.61s4.16-3.85,6.18-5.42c1.9-1.47,3.74-3.36,2.19.1-.85,1.89-3.99,4.48-7.16,7.15s-5.85,5.35-7.32,7.04c-.37.42-.23.62-.03.83.55.58,3.32-.49,7.37-2.21,2.5-1.06,5.73-1.19,8.24-2.28,3.85-1.68,6.51-2.89,7.33-2.68,2.1.54,1.45,1.97-.05,2.66-5,2.08-5.2,1.58-10.21,3.62s-4.97,2.08-9.73,4.66c-.66.36-1.28.8-.54.87,5.38.51,5.41.47,10.81.23s5.64-3.04,10.96-2.09c1.18.21.21,2.29-.37,3.34-1.35.06-5.88-.51-10.44-.14-4.97.4-9.42,2.11-9.9,2.86-.42.65-.46,1.08-.5,1.84ZM72.4,81.82c-3.57-5.53-4.31-4.95-8.36-10.14-1.68-2.08-1.63-5.57-2.94-7.89-1.58-2.79-4.05-4.25-6.44-4.81-1.89-.44-3.86.13-7.07,2.65-2.08,1.63-4.02,3.53-5.6,5.94-1.49,2.28-2.9,4.69-3.8,7.33s-1.67,5.4-1.84,8.11c-.18,2.86,1.05,5.42,1.86,7.98,1.2,3.78,2.97,5.6,6.02,6.16s6.4-.17,9.49-.47c2.61-.25,5.4.54,8.01.08s5.32-1.32,7.91-1.64c.14-1.15-.28-2.85-1.46-3.06-5.46-.2-5.46-.42-10.92-.54s-5.53,1.4-10.94.66c-.17-1.27.48-1.97,1.72-2.21,3.28-.61,9.22-.31,12.93-.42,2.68-.08,4.01-.61,6.81-.46,1.49.08,2.23-.21.8-1.09-1.97-1.21-4.03-3.52-6.67-4.63s-5.28-2.2-7.46-3.02c-.66-.25-11.6-2.37-6.99-3.84,1.23-.39,4.42.87,7.51,1.87,2.91.94,6.04,1.5,7.37,2.04,2.43,1,4.83,3.19,7.22,4.03.71.25.96.36,1.67-.55-2.39-3.01-3.97-1.51-6.77-4.15s-1.94-3.56-4.74-6.19-2.65-2.68-5.06-5.68c-1.5-3.58.27-1.75,2.14-.47,2.92,2,4.9,5.19,7.52,7.61s5.33,4.59,8.09,6.79ZM85.12,78.26c-3.22.25-5.28,1.6-7.18,3.3-2.09,1.88-4.75,3.7-5.35,6.49s.81,5.67,1.49,8.4c.69,2.79,1.86,5.19,3.75,7.14s4.1,3.37,7.11,3.57c2.39.16,5.07-.17,8.06-1.65,2.74-1.36,4.91-3.08,6.28-5.18,1.55-2.38,1.29-5.16,1.27-7.85s0-5.45-1.45-7.78-3.58-3.91-6.15-5.13c-2.27-1.08-4.8-1.53-7.84-1.3ZM89.8,110.62c.35,2.44,1.01,4.97,1.34,7.8s-.78,5.9.05,8.32c.94,2.76,3.44,4.36,5.76,5.71,1.94,1.13,4.18,1.56,7.58,1.02,2.01-.32,4.64-1.7,7.55-4.02,2.14-1.71,4.51-3.61,6.63-5.81s4.27-4.37,5.95-6.55c2.26-2.93,3.03-5.99,3.64-7.88,1.19-3.67,1.2-6.25-2.33-8.13-3.51-.54-7.07-.87-10.58-1.44s-7.08-2.32-10.61-2.63c.1.6-.6,3.37-.34,3.68.29.35,4.66,1.43,8.74,2.29,3.67.78,7.2,1.81,8.28,2.19,1.26.44,3.85.33,2.83,1.89-3.39-.02-6.61-.92-9.82-1.88s-6.22-1.83-9.41-2.77c1.87,2.75,8.78,5.08,10.45,7.34.49.66.46,3.08-.85,2.9-1.57-.22-3.5-3.03-6.01-4.9-2.36-1.76-4.87-3.77-6.49-4.5-1.24-.56-1.74.61-2.09,2,.71,2.13,1.88,4.6,3.51,6.96s3.93,4.64,4.46,6.73c.51,1.97-1.55,2.92-2.74,1.36-1.35-1.76-2.03-4.42-3.26-6.78s-3.75-3.91-4.8-5.88c-.37-.28-5.85,3.5-7.44,2.99ZM69.69,98.75c-3.49.64-6.74,1.68-10.25,2.34s-7.59-.09-11.03.75c-2.79,2.74-2.49,6.5-1.84,9.65.62,2.98,2.24,5.81,4.35,8.53s4.51,5.38,6.59,7.25c1.63,1.46,4.31,3.9,7.31,5.63s6.48,3.2,8.79,2.25c1.99-.81,2.72-4.01,3.92-7.44.91-2.62,2.39-5.35,2.88-8.17.62-3.54.64-6.69.64-8.55-.69-.11-1.25.44-1.41.95-.56,1.73-1.28,8.53-2.44,9.25-.48.3-.03.94-.55.91,1.78-4.18,2.69-8.92,3.16-13.41-2.08-.45-4.18,2.14-5.38,3.68-2.31,2.99-4.18,7.56-6.66,10.15-1.51,1.57-3.42,1.87-2.77-.66.51-1.98,1.84-5.03,3.68-7.65s4.1-4.79,5.45-6.37c.73-1.85-.19-3.56-2.13-2.7-1.33.59-4.06,2.79-6.6,4.75-2.71,2.09-4.98,5.13-6.42,4.7-.41-.12-.66-1.04-.56-1.52.16-.73,2.98-3.52,6.23-5.83s6.93-4.32,6.95-4.77c.08-1.66-3.99.73-4.41.92-1.31.58-3.72,3.42-6.74,4.57-3.24,1.23-6.8,1.06-7.97.71-1.51-.46-1.47-.54.19-1.34,2.5-1.21,5.06-3.32,8.15-4.24s6.57-.89,9.11-2.2c.79-.56.69-1.78-.22-2.16ZM85.34,111.05c-.29-.66-.09-.37-.46.24-.25,2.82-1.86,5.43-2.12,8.48s.65,6.33-.24,9.03c-.53,1.6-2.99,5.29-3.05,5.99-.37,3.94,7.09-1.81,8.39-3.64,1.58-2.23-.15-4.94-.64-7.66-.76-4.17-1.43-8.23-1.87-12.44Z"/>
  <path class="cls-1" d="M85.09,83.82c3.28-.69,6.05-.02,7.94,1.74,2.06,1.92,2.96,4.9,2.73,7.74-.21,2.64-1.49,5.19-4.2,6.92-3.01,1.91-6.01,1.86-8.38.52-2.52-1.42-4.13-4.25-4.6-7.16-.44-2.76.17-5.69,2.79-7.86.79-.65,2.76-1.71,3.72-1.91ZM83.3,96.48c1.94,1.77,4.85,1.32,6.78-.12,1.79-1.34,2.91-3.66,1.52-6.47-1.72-3.48-5.08-3.01-7.29-1.1s-3.48,5.44-1.01,7.7Z"/>
  <path class="cls-1" d="M75.16,162.17c1.96.39,2.17,3.92.2,4.29-10.65,1.97-10.96.02-21.79.02s-10.83.28-21.67.28-15.51,8.02-22.5-.26c-8.28-9.81.1-13.54.1-26.38s2.01-12.84,2.01-25.68c0-12.84-2.14-12.84-2.14-25.68,0-12.84,1.83-12.84,1.83-25.68,0-12.84.18-12.84.18-25.68,0-12.84-4.17-13.16-2.19-25.85.31-1.98,5.69-1.96,6,.01,1.97,12.35-.1,12.66-.1,25.16s.37,12.51.37,25.01c0,12.51.04,12.51.04,25.01,0,12.51-.74,12.51-.74,25.01,0,12.51-1.71,12.51-1.71,25.02s-5.57,14.39,2.32,24.1c6.41,7.89,9.04.25,19.21.25s10.25,2.58,20.41,2.05,10.21-2.97,20.19-1.01Z"/>
  <path class="cls-1" d="M170.2,28.07c1.98,12.63-.24,12.81-.24,25.6,0,12.79.58,12.79.58,25.57s-.91,12.79-.91,25.57c0,12.79.51,12.79.51,25.58,0,12.79,3.41,13.27-.46,25.46-2.25,7.11-3.95,6.89-11.15,8.82-12.33,3.29-12.46,1.29-25.22,1.29-12.76,0-13.04,2.62-25.64.64-1.98-.31-1.72-3.72.25-4.04,12.22-1.97,12.26.47,24.64.47s12.73,1.69,24.81-1.06c5.65-1.29,6.4-2.43,7.89-8.03,3.24-12.18,1.87-12.39,1.87-25s-.66-12.6-.66-25.21c0-12.61-.53-12.61-.53-25.21,0-12.61-.69-12.61-.69-25.21,0-12.61-1.32-12.78.43-25.27.33-2.35,4.2-1.95,4.51.03Z"/>
  <path class="cls-1" d="M161.21,7.17c1.97.34,2.35,3.4.38,3.74-11.27,1.97-11.6-2.14-23.04-2.14s-11.44,1.1-22.88,1.1-11.44.73-22.88.73-11.44-.74-22.88-.74-11.44-.08-22.88-.08c-11.44,0-11.76,3-23.03,1.03-1.97-.34-1.85-4.68.12-5.02,11.27-1.97,11.47,1.09,22.9,1.09s11.44-1.24,22.88-1.24,11.44,1.55,22.88,1.55,11.44-1.58,22.88-1.58,11.43-.13,22.86-.39,11.42-.04,22.69,1.93Z"/>
</svg>