<?xml version="1.0" encoding="UTF-8"?>
<svg id="Layer_1" data-name="Layer 1" xmlns="http://www.w3.org/2000/svg" viewBox="0 0 180 180">
  <defs>
    <style>
      .cls-1 {
        fill: #480c3f;
      }
    </style>
  </defs>
  <path class="cls-1" d="M85.59,124.69c-.42-3.35-2.35-6.63-5.27-8.9-2.57-1.99-5.65-4.22-8.78-5.66-3.43-1.58-7.15-2.16-9.67-3.43s-5.23-2.49-7.78-3.92-5.71-1.89-8.12-3.51-4.55-3.78-6.75-5.67-3.48-4.73-5.37-6.94-4.16-4.07-5.63-6.63c-1.71-2.96-3.36-6.27-2.9-9.82,1.11-.15,2.37-.64,3.42-.33,2.21.65,4.3,3.47,7.18,4.65,2.52,1.03,5.94.31,8.46,1.42,2.8,1.24,4.57,4.41,6.74,5.36,2.92,1.29,6.67.84,9.52,2.31s5.9,2.76,8.6,4.47,4.78,4.44,7.27,6.45,4.37,4.59,6.56,6.94c2.5,3.16,1.86,3.79,4.72,6.63.29-1.4.5-2.98.28-4.23-.43-2.41-.5-4.98-.76-7.57s-1.6-5.1-2.22-7.44-2.53-3.74-4.48-5.32-3.07-3.9-4.72-5.54c-2.36-2.34-5.93-3.88-7.68-6.79s-1.05-6.89-2.15-10.09-3.53-6.02-3.97-9.33.06-6.82.33-10.12c.13-1.57.99-8.82,2.71-9.15,2.84.71,4.18,5.56,5.74,7.92,1.81,2.74,3.42,5.63,5.29,8.35s2.73,6.08,4.41,8.88,3.18,5.62,4.39,8.66,4.25,5.67,4.67,9c.39,3.12-1.41,6.61-1.95,10.07.71,5.72.43,5.91,1.84,11.5.09-1.5,1.27-3.31,1.4-4.82.19-2.26.69-6.42.67-8.19-.02-1.41.11-3.32-.22-4.76-.71-3.06-.98-6-1-9.17s.32-6.08,1.01-9.16,1.45-5.94,2.86-8.76c1.52-3.04,1.9-6.69,4.02-9.06s5.55-3.66,8.1-5.71,4.98-4.16,7.62-6.1,5.12-4.06,7.59-6.2c2.21.62,3.05,3.18,3.22,5.11.24,2.83-1.26,5.66-1.45,8.51s-.07,5.63-.68,8.42-1.28,5.5-2.27,8.17-1.39,5.64-2.75,8.14-2.89,5.02-4.6,7.29-3.67,4.49-5.73,6.45c-1.85,1.77-5.42,2.52-7.78,4.51s-4.06,4.9-4.58,7.64c-.61,3.25-.15,8.28-.55,11.63,2.73-1.24,1.16-3.46,3-5.82,1.87-2.18,5.16-3.46,7.76-5.82,2.26-2.06,3.84-5.17,6.48-7.21s5.29-3.62,7.99-5.41,5.87-2.75,8.64-4.27c2.93-1.61,5.47-3.7,8.3-4.85,3.23-1.31,6.27-2.57,9.13-3.07,3.32-.58,12.13-1.95,7.99,3.79-1.61,2.23-4.33,4.02-6.44,6.36s-3.41,5.23-5.17,7.45-3.13,4.7-4.71,6.74c-1.76,2.27-4.95,3.15-6.65,5.18s-1.93,5.65-3.92,7.56c-1.89,1.82-4.91,2.49-7.25,4.2-2.05,1.51-3.8,3.82-6.37,5.29-1.84,1.05-5.34.61-8.12,1.93-2.47,1.17-5.01,2.88-7.02,4.45-2.38,1.85-2.7,4.68-2.7,7.34,0,5.16-.58,5.16-.58,10.32s-1.25,5.16-1.25,10.32,2.73,5.47.93,10.31c-.67,1.8-3.16,1.83-3.86.04-1.79-4.58-.3-4.94-.3-9.86s1.27-4.92,1.27-9.84-.72-4.92-.72-9.84-.95-4.81-1.46-9.71c-.06-.59-.1-.17-.27.41-.2,3.22-.91,6.58-.99,9.8s1.44,6.47,1.44,9.69.09,6.44.11,9.66.08,7.06.06,10.28c-1.48,1.23-3.1.97-3.77-.83-1.8-4.83-.11-4.94-.11-10.1s-1.31-5.18-1.18-10.34,1.11-5.15.95-10.31ZM120.63,31.79c-.3-.34-5.01,1.99-5.6,2.4-2.27,1.58-4.87,2.81-6.98,4.51s-3.74,4.26-5.59,6.22-3.51,4.33-4.93,6.66-1.36,5.21-2.14,7.91c-.72,2.5-2.1,4.41-2.16,7.33,1.34-2.99,3.19-5.31,4.54-8.34s2.13-6.34,3.89-9.11,3.9-5.29,6.47-7.5c.37-.07,1.13.58,1.09.87-.19,1.34-3.36,3.6-5.1,6.91-1.23,2.34-.84,5.84-2.13,8.23-1.6,2.96-4.97,4.78-5.64,6.49-1.34,3.43-1.42,9.26-1.5,12.87-.03,1.19-1.21,3.72-.55,1.52.78-2.6,2.68-4.89,3.69-7.46s2.65-4.79,3.8-7.28,2.49-4.86,3.72-7.29,2.6-4.83,3.84-7.24c.34-.66,3.81-10.51,4.43-9.67.13,1.08.72,1.74.38,2.73-.95,2.8-1.84,6.11-3.19,9.23s-3.97,5.62-5.17,8.36c-1.37,3.13-1.16,7.02-2.67,10.11s-5.18,5.48-6.51,8.63c.75.04,2.7-1.12,3.26-1.61,2.21-1.92,4.67-3.49,6.55-5.63s2.52-5.25,4.08-7.65,3.6-4.46,4.78-7.08,2.47-5.18,3.22-7.98,2.42-5.46,2.71-8.36-.45-5.84-.61-8.78ZM84.2,77.08c-.11-3.69-.24-7.68-1.66-11.1s-2.86-7.05-4.72-10.12c-1.46-2.4-3.8-4.47-5.51-6.86s-4.02-4.73-5.79-6.89c-.49,3.26.74,7.04,1.31,10.66s1.08,7.12,2.29,10.17c1.06,2.67,1.91,6.34,4.05,9.22s5.18,5.08,7.44,6.82c.38.29.81,1.4,1.32.59-1.1-2.65-3.17-4.83-4.64-7.4s-1.34-5.99-2.79-8.5-4.7-4.23-5.83-6.84c-.54-1.25-1.38-2.55-.99-3.84,2.09,2.75,5.4,4.05,7.36,6.89s4.32,5.86,6.08,8.82c1.28,4.17-.57,5,2.09,8.36ZM147.49,68.87c-2.59,0-5.47-.29-7.81.48s-4.97,1.38-7.23,2.52-4.49,3.33-7.02,4.87c-2.32,1.42-4.62,3.14-6.96,4.81s-3.74,4.31-5.93,6.1-4.56,3.3-6.56,5.23-4.85,3.31-6.58,5.41c-1.87,2.27-2.92,5.04-4.25,7.36-1.67,2.9-2.95,5.71-2.57,9.18,1.66-.83.78-3.26,1.73-4.88,1.26-2.14,4.57-3.46,6.68-6,1.76-2.13,2.25-5.69,4.38-7.86s5.66-2.56,7.83-4.48,3.31-5.45,5.54-7.08c2.66-1.95,5.17-3.98,7.41-5.04.34-.16,2.44.47,1.8,1.41-2.08,1.63-4.56,2.81-6.62,4.49s-4.21,3.28-6.18,5.05-4.02,3.55-5.86,5.45-2.68,5.22-4.34,7.29c2.7-1.3,2.01-2.6,4.33-4.5,2.07-2.06,3.92-4.39,6.12-6.32s5.31-2.73,7.64-4.5,3.78-5.07,6.26-6.64c.54.15-.32.97-.54,1.3-1.46,2.23-4.46,6.01-6.57,7.99-2.63,2.46-5.4,4.84-8.09,7.24-1.18,1.06-2.68,3.99-5.3,6.09-2.03,1.63-4.71,2.76-6.64,4.43-2.75,2.38-5.16,4.22-5.64,5.44-.24.61.27,1.84.89,1.66,2.57-.78,7.35-3.44,9.88-4.81,3.07-1.66,4.86-5.37,7.69-7.35s6.66-2.73,9.22-5.08,5.46-4.57,7.67-7.29c2.75-3.53,2.01-4.11,4.73-7.67s1.85-4.31,4.93-7.57,4.31-2.57,5.98-6.73ZM85.41,112.69c-.54-2.6-1.25-5.68-2.9-7.91s-3.25-4.61-5.3-6.38-4.93-2.87-7-4.29c-2.37-1.63-4.95-2.98-7.47-4.37s-5.63-1.54-8.24-2.75-5.03-2.76-7.68-3.88-4.87-3.26-7.52-4.36-5.46-1.56-8.07-2.71c1.33,3.01,2.91,5.6,4.81,8.03s4.72,4.12,7.16,6.14,3.95,5.36,6.67,7.02,6.47,1.37,9.31,2.81,4.74,4.74,7.58,6.11,6.64,1,9.39,2.47c1.63.87,3.25,1.8,4.85,2.71.42.24.49,2.18.86,1.47-2.24-2.08-4.26-4.47-6.77-6.29s-5-3.66-7.62-5.31-5.19-3.36-7.8-4.98-5.14-3.39-7.66-5.12-5.65-2.76-7.97-4.73c-.39-.34-4.3-4.9-1.88-4.15,2.43,1.62,4.28,4.35,6.82,5.86s6.03,1.3,8.59,2.76,3.93,4.92,6.44,6.43,5.93,1.63,8.34,3.29,4.42,3.94,6.65,5.84,4.47,4.09,6.43,6.31Z"/>
  <path class="cls-1" d="M13.42,74.94c-.39,1.96-3.92,2.17-4.29.2-1.97-10.65-.02-10.96-.02-21.79s-.28-10.83-.28-21.67-8.02-15.51.26-22.5c9.81-8.28,13.54.1,26.38.1s12.84,2.01,25.68,2.01,12.84-2.14,25.68-2.14,12.84,1.83,25.68,1.83,12.84.18,25.68.18,13.16-4.17,25.85-2.19c1.98.31,1.96,5.69-.01,6-12.35,1.97-12.66-.1-25.16-.1-12.51,0-12.51.37-25.01.37s-12.51.04-25.01.04-12.51-.74-25.01-.74-12.51-1.71-25.02-1.71c-12.51,0-14.39-5.57-24.1,2.32-7.89,6.41-.25,9.04-.25,19.21,0,10.17-2.58,10.25-2.05,20.41s2.97,10.21,1.01,20.19Z"/>
  <path class="cls-1" d="M147.52,169.98c-12.63,1.98-12.81-.24-25.6-.24s-12.79.58-25.57.58-12.79-.91-25.57-.91-12.79.51-25.58.51c-12.79,0-13.27,3.41-25.46-.46-7.11-2.25-6.89-3.95-8.82-11.15-3.29-12.33-1.29-12.46-1.29-25.22,0-12.76-2.62-13.04-.64-25.64.31-1.98,3.72-1.72,4.04.25,1.97,12.22-.47,12.26-.47,24.64,0,12.38-1.69,12.73,1.06,24.81,1.29,5.65,2.43,6.4,8.03,7.89,12.18,3.24,12.39,1.87,25,1.87s12.6-.66,25.21-.66,12.61-.53,25.21-.53,12.61-.69,25.21-.69,12.78-1.32,25.27.43c2.35.33,1.95,4.2-.03,4.51Z"/>
  <path class="cls-1" d="M168.42,160.99c-.34,1.97-3.4,2.35-3.74.38-1.97-11.27,2.14-11.6,2.14-23.04s-1.1-11.44-1.1-22.88-.73-11.44-.73-22.88.74-11.44.74-22.88c0-11.44.08-11.44.08-22.88,0-11.44-3-11.76-1.03-23.03.34-1.97,4.68-1.85,5.02.12,1.97,11.27-1.09,11.47-1.09,22.9s1.24,11.44,1.24,22.88c0,11.44-1.55,11.44-1.55,22.88s1.58,11.44,1.58,22.88.13,11.43.39,22.86c.25,11.37.04,11.42-1.93,22.69Z"/>
</svg>