<?xml version="1.0" encoding="UTF-8"?>
<svg id="Layer_1" data-name="Layer 1" xmlns="http://www.w3.org/2000/svg" viewBox="0 0 180 180">
  <defs>
    <style>
      .cls-1 {
        fill: #480c3f;
      }
    </style>
  </defs>
  <path class="cls-1" d="M115.06,37.54c2.98-.29,5.92-.99,8.95-1.03s5.96,1.64,8.89,2.17,5.57,1.44,8.22,2.93,4.38,3.2,6.38,5.77c2.55,3.27,5.31,5.74,5.23,8.81s-1.48,6.75-4.8,9.57c-.71.6-2.46.44-2.66,1.19-.18.66,1.21,1.76,1.14,2.73-.24,3.2-1.18,6.42-2.51,8.41-1.55,2.32-4.89,3.12-7.63,3.97-2.36.73-5.03,0-8.06-.23-2.07-.15-4.25-1.3-6.29-.54-2.49.93-5.25,3.72-8.19,5.85s-5.2,4.91-6.95,6.91c-1.97,2.26-3.55,4.53-4.98,6.95-1.5,2.54-4.6,4.33-5.6,7s-1.74,5.72-2.35,8.55,1.58,6.08,1.3,8.98-1.55,5.62-1.64,8.53.93,5.76.96,8.66-.47,5.79-.43,8.68-.09,6.59-.13,9.47c-1.55,1.14-2.35-.37-3.9-1.49-.1-2.86-.93-5.09-.9-8.07s.52-5.82.57-8.78.27-5.86.25-8.79.42-5.93.23-8.83-1.02-5.87-1.47-8.73-1.83-5.61-2.67-8.38-1.34-5.75-2.69-8.35-3.57-4.52-5.5-6.82c-1.81-2.16-2.97-5.2-5.39-7.07-1.79-1.39-5.96-4.38-8.11-4.43-1.65-.03-3.6,1.68-5.3,1.8-3.95.26-8.15-.56-11.8-2.15-3.09-1.34-6.34-2.72-7.17-5.45s-.09-6.4,1.44-9.31c1.16-2.2,3.58-2.73,4.97-4.56-1.58-1.88-3.66-3.81-5.6-5.68s-3.75-3.8-4.86-6.04c-1.61-3.26-2.8-6.27-2.3-8.93.56-2.99,2.57-5.8,5-7.93,2.17-1.9,4.92-3.84,7.94-4.97,2.82-1.06,6.12-1.39,9.17-1.71s6.12,1.27,9,1.79c3.27.59,6.45,1.18,8.64,2.96,1.46-2.03,3.17-4.5,5.08-6.2s4.29-2.55,6.57-3.63,4.49-1.62,7.07-1.84c3.04-.27,5.82-1.03,8.38-.4,2.88.7,5.46,2,7.58,3.75s3.33,4.29,4.51,7c1.04,2.39,2.21,4.84,2.41,7.91ZM93.53,62.52c1.75.06,4.42,1.35,6.02.93,1.08-.29,7.7-6.94,8.44-8.38,1.29-2.5,2.38-5.36,2.97-8.04s1.07-5.89.92-8.57c-.16-2.92-2.37-5.44-3.44-7.84-1.18-2.65-3.02-4.26-5.31-5.78-2.15-1.42-4.27-2.44-7.41-2.41-2.42.02-4.71,1.14-7.71,2.26-1.66.62-3.89,2.21-6.24,4.23s-5.36,3.45-5.65,5.27c-.2,1.23,1.24,7.12,1.72,8.93.3,1.1,1.06,4.77,1.87,8.42.9,4.06,2.81,7.83,3.15,8.13.25.22,5.68,1.14,5.95.9.31-2.96.7-6.17,1.41-9.32s3.54-5.34,4.94-8.09,2.87-4.95,5.4-6.87c.5-.38,3.46-3.33,3.71-1.96.1.54-6.1,7.69-6.8,9.08-1.48,2.91-1.38,6.24-1.96,9.53s-1.92,6.36-1.99,9.58ZM77.8,54c-1.22-2.89-2.36-5.81-3.16-8.87s-.25-6.65-1.67-9.48c-1.27-2.53-3.98-4.65-6.63-5.53-2.4-.8-5.59-1.25-8.43-1.05-2.69.19-5.21,2.38-7.72,3.19-2.87.93-5.02,2.5-6.86,3.85-3.81,2.8-5.1,4.9-4.86,7.75.27,3.07,2.65,5.3,5.25,8.07,2.41,2.57,4.78,4.48,7.15,6.46,2.94-.36,5.49.68,8.44.54s5.88.79,8.84.85,6.87-.48,9.81-.23c-2.18-2.86-5.41-6.17-7.83-9.07s-5.39-5.19-8.18-7.5c-1.64-1.36-6.19-3.66-7.03-4.64-2.59-3,3.06,0,4.42.64,2.37,1.1,4.24,2.25,6.17,3.87s5.56,1.61,7.26,3.52,2.5,4.64,4.15,6.56c.41.47-.36,1.38.89,1.06ZM110.26,57.74c2.9-.26,5.99-.93,9.3-.94,3.13,0,6.22,1.66,9.3,2.09,3.27.45,6.12,1.2,8.85,2.38,3.98,1.72,6.81,4.94,10.31-.71,1.73-2.79.07-5.97-1.15-8.45s-3.52-4.08-5.64-5.78c-2.38-1.9-4.89-3.41-8.08-4.22-3.03-.77-6.1-.4-9.25-.31-3.32.09-5.52.2-8.33,1.1-.05,2.79-1.67,4.65-2.49,7.27s-1.75,5.07-2.82,7.58ZM111.96,61.52c-1.23.11-3.37.65-4.37,1.07-1.63.68-5.11,3.8-7.02,4.75,2.26,1.49,5.32,3.88,8.16,5.49,2.57,1.45,5.35,3.08,8.16,4.26s6.32.62,9.19,1.15c3.12.58,5.88.18,8.7-.5,3.11-.75,4.95-2.69,5.57-5.67s-.35-5-3.43-6.69c-1.89-1.04-4.52-1.53-7.91-2.04-2.77-.41-5.59-1.99-8.42-2.1-3.38-.14-6.49.09-8.63.28ZM91.77,66.14c-.23-.22-5.4-1.05-6.25-1.24-2.24-.51-4.68-2.42-7.56-2.72-2.52-.27-5.25-.52-7.93-.62s-5.43-.3-7.96-.22c-2.89.09-5.48,1.94-7.75,2.29-3.32.51-5.21,2.1-6.86,3.87-2.19,2.36-3.02,4.53-1.99,6.97.91,2.18,2.78,2.9,6.46,3.29,2.85.31,5.35-.02,8.23-.61s5.82-.14,8.57-1.18,5.78-1.32,8.39-2.49,5.36-2.4,7.93-3.41c2.13-.84,4.03-2.29,6.16-3.05.49-.18,1.32-.14.56-.87ZM118.12,79.91c-2.6-.73-5.16-1.21-7.56-2.38s-4.01-3.84-6.35-5.16-5.54-2.74-7.94-3.9c-.79,2.62-2.27,5.95-2.92,8.7s.39,5.79-.08,8.54-.35,5.54-.6,8.3-.76,5.52-.74,8.26c.02,3.23-.64,6.29-1.12,9.7,3.07-5.48,2.23-5.79,4.88-11.49,1.65-2.84,4.59-4.94,6.54-7.43s4.74-4.03,7.31-6.1c2.94-2.37,5.49-4.88,8.57-7.04ZM92.84,70.5c-4.32-.05-3.77,2.01-7.77,3.65s-4.58.23-8.57,1.87-5.22.43-8.34,3.42c2.89,1.64,5.49,5.16,7.94,7.34s5.84,3.52,7.72,6.23,2.14,5.66,3.31,8.79c1.14-5.28.42-5.25.84-10.64.63-3.5.42-7.21,1.03-10.71s2.58-6.61,3.84-9.96Z"/>
  <path class="cls-1" d="M166.01,104.91c.39-1.96,3.92-2.17,4.29-.2,1.97,10.65.02,10.96.02,21.79s.28,10.83.28,21.67,8.02,15.51-.26,22.5c-9.81,8.28-13.54-.1-26.38-.1-12.84,0-12.84-2.01-25.68-2.01-12.84,0-12.84,2.14-25.68,2.14-12.84,0-12.84-1.83-25.68-1.83s-12.84-.18-25.68-.18-13.16,4.17-25.85,2.19c-1.98-.31-1.96-5.69.01-6,12.35-1.97,12.66.1,25.16.1s12.51-.37,25.01-.37,12.51-.04,25.01-.04,12.51.74,25.01.74,12.51,1.71,25.02,1.71,14.39,5.57,24.1-2.32c7.89-6.41.25-9.04.25-19.21s2.58-10.25,2.05-20.41-2.97-10.21-1.01-20.19Z"/>
  <path class="cls-1" d="M31.91,9.87c12.63-1.98,12.81.24,25.6.24s12.79-.58,25.57-.58,12.79.91,25.57.91,12.79-.51,25.58-.51,13.27-3.41,25.46.46c7.11,2.25,6.89,3.95,8.82,11.15,3.29,12.33,1.29,12.46,1.29,25.22,0,12.76,2.62,13.04.64,25.64-.31,1.98-3.72,1.72-4.04-.25-1.97-12.22.47-12.26.47-24.64,0-12.38,1.69-12.73-1.06-24.81-1.29-5.65-2.43-6.4-8.03-7.89-12.18-3.24-12.39-1.87-25-1.87s-12.6.66-25.21.66-12.61.53-25.21.53-12.61.69-25.21.69-12.78,1.32-25.27-.43c-2.35-.33-1.95-4.2.03-4.51Z"/>
  <path class="cls-1" d="M11.01,18.86c.34-1.97,3.4-2.35,3.74-.38,1.97,11.27-2.14,11.6-2.14,23.04,0,11.44,1.1,11.44,1.1,22.88s.73,11.44.73,22.88-.74,11.44-.74,22.88c0,11.44-.08,11.44-.08,22.88,0,11.44,3,11.76,1.03,23.03-.34,1.97-4.68,1.85-5.02-.12-1.97-11.27,1.09-11.47,1.09-22.9,0-11.44-1.24-11.44-1.24-22.88,0-11.44,1.55-11.44,1.55-22.88s-1.58-11.44-1.58-22.88-.13-11.43-.39-22.86c-.25-11.37-.04-11.42,1.93-22.69Z"/>
</svg>