<?xml version="1.0" encoding="UTF-8"?>
<svg id="Layer_1" data-name="Layer 1" xmlns="http://www.w3.org/2000/svg" viewBox="0 0 180 180">
  <defs>
    <style>
      .cls-1 {
        fill: #480c3f;
      }
    </style>
  </defs>
  <path class="cls-1" d="M112.98,43.54c2.01-1.75,4.85-1.59,8.08-2.45,2.98-.79,5.85-1.68,8.76-1.27,3.24.46,5.76,1.6,7.52,4.08.73,1.03,1.48,3.07,2.15,3.73.87.84,3.38,2,4.89,3.34,2.52,2.24,5.38,3.87,5.82,6.44.47,2.75-.5,5.98-1.63,8.77-1.04,2.57-3.96,4.24-5.7,6.55s-2.92,5.23-4.78,7.06c3.59,1.74,6.05,4.22,8.57,5.76,3.35,2.05,5.51,3.41,6.14,6.97.46,2.59.53,5.65-.87,10-1.05,3.27-2.96,5.39-4.55,7.56-1.85,2.53-3.51,4.29-6.45,5.4-2.48.93-4.21,2.79-7.72,2.75,1.34,2.82.35,4.88.46,7.61s.23,5.3-1.63,8.04c-2.29,3.38-4.45,6.05-7.06,6.52-2.94.54-5.94-1.92-9.03-3.32-2.81-1.27-6.08-2.73-8.82-4.12-.67,3.07-1.43,6.17-2.82,8.37-1.64,2.62-3.29,5.45-5.56,6.85-2.54,1.56-5.9,2.45-8.67,2.46s-5.4-2.13-7.88-3.74c-2.22-1.44-5.22-2.75-6.71-5.5-1.22-2.26-1.53-4.93-2-8.08-3.25,1.45-6.03,3.56-9.28,4.97s-6.25.58-10.05-1.49c-2.82-1.53-4.39-2.94-5.5-5.29-1.19-2.5-3.21-5-2.93-7.9.26-2.72,1.41-5.21,2.56-7.82-2.28.16-4.28-1.18-6.84-1.87s-4.31-1.82-5.97-3.53c-1.57-1.62-5.23-3.89-6.56-7.57s-1.98-7.87-2-10.09c-.03-3.51,3-5.42,5.43-7.53,2.26-1.96,4.91-3.38,7.91-4.64,3.16-1.33,5.55-3.92,8.02-5.03.19-.72-.02.1-.3-.31-1.39-2-4.25-3.76-5.65-6.07-1.57-2.58-1.94-5.77-2.3-8.45-.4-2.97.88-5.43,2.29-7.9,1.29-2.25,3.06-3.56,6.13-4.86.77-.33,2.38-.51,2.72-.76.28-.2.87-4.22,2.52-5.57,1.8-1.48,4.25-3.79,7.35-3.94,2.65-.13,5.32,2.38,7.94,3.02,3,.73,5.27.14,6.96,1.63.15-3.04.84-5.32,1.81-7.88,1.09-2.85,3.1-5.22,5-7.19,2.08-2.15,4.4-4.67,7.15-5.37s5.89.24,8.88,1.25c2.42.82,4.6,2.76,7.09,4.9,2.71,2.32,4.44,4.43,5.35,7.09s1.6,5.01,1.78,8.43ZM88.44,51.33c.44-1.72,1.74-7.18,1.74-9.44,0-.56-.01-1.35.33.52.34,4.51.21,4.51.45,9.02.24,4.52.43,4.51.67,9.03s-.73,4.67-.09,9.15c.79-.09.93-2.17,1.08-2.82.71-3.04,1.54-6,1.81-9.17s2.01-6.22,2.1-9.37-.96-6.41-.79-9.51c.33-.64.19-.54.27.17.6,5.01.39,4.88.27,9.92s-.04,5.08.22,10.11c.75-.38,2.63-1.69,2.95-2.48.9-2.21,1.45-4.84,2.06-7.27s-.42-6.12-.6-8.54c4.06-.07,1.93,7.2,1.27,9.77s-1.06,5.4-2.31,8.01-1.44,5.5-2.49,8.1-3.44,5.03-3.67,7.85c.59-.06,2.05.45,2.43-.19.75-1.26.75-4.77,1.39-6.44.81-2.12.88-4.64,1.83-6.75s2.06-4.23,3.13-6.22c1.32-2.45,5.13-4.69,6.1-7.01s-.28-5.44-.93-8.48-1.42-5.73-3.18-7.53c-2.35-2.41-4.56-3.97-7.01-4.73-3-.93-6.35-2.13-8.94-.97s-5.06,3.79-6.6,6.53c-1.31,2.32-.51,5.67-.72,8.88-.32,4.85.01,4.04,1.83,7.65,1.32,2.62,1.13,5.77,2.11,8.41s1.47,5.37,2.14,8.17,3.3,4.61,3.66,7.53c1.29-.44-.67-1.33-.77-2.38-.24-2.55.86-5.68.12-8.53-.7-2.7-1.61-5.43-2.29-8.06-.76-2.96-3.06-5.52-3.17-7.97-.02-.51,1.24-5.1,2.54-3.91.77.71.94,7.8,1.5,9.47.3.02-.49-.32-.45-.48ZM86.05,74.36c.67-1.06,1.27-5.69-.06-10.34-1.24-4.35-3.41-8.58-4.09-9.95-1.41-2.82-3.7-5.72-6.34-7.89s-5.94-3.69-9.11-4.34-7.06-.78-10.17,1.02c-4.69,2.71.12,3.65,2.22,5.5,2.26,1.99,4.11,4.54,6.06,6.83s2.49,5.66,4.27,8.09c1.78,2.42,4.43,4.21,6.2,6.64s2.97,5.96,4.88,8.26c3.05.33,2.91-3.43,3-5.39,1.73-.52.56,2.47.78,2.7.59.06,2.12-.77,2.35-1.13ZM124.07,43.39c-2.98.35-6.23-.19-8.49,1.31s-4.05,4.17-5.79,6.42-3.26,4.67-4.62,7.08c-.86,1.52-2.21,4.5-3.59,7.39s-3.33,5.98-3.62,7.57c-.38,2.04,3.66,3.82,5.27,3.38.41-.11,5.06-3.44,5.88-4.12,2.65-2.17,6.2-3.36,8.55-5.79s3.83-5.76,6.14-8.23,5.54-3.97,8.07-6.24c1.42-1.27,4-3.03,4.02-4.96.05-4.45-8.69-4.17-11.82-3.81ZM58.03,72.69c2.77-.33,6.74,1.75,9.68,1.75.08,0,1.28-.25,1.65-1.04-.92-.72-1.47-1.96-2.22-2.82-1.79-2.05-7.98-6.51-8.74-7.97-.26-.49-.22.07-.15-.46,2.08-.42,3.84-.42,5.3.83,2.58,2.2,4.8,5.16,7.24,7.78s4.06,6.59,6.62,8.85c.66-.99-1.05-3.17-1.8-4.1-1.68-2.1-2.28-5.12-3.92-7.44s-3.64-4.29-5.29-6.5-3.84-4.23-5.69-6.18c-2.24-2.37-4.72-5.57-7.39-6.42s-6.47.43-8.93,4.11c-2.52,3.77-.16,8.14,1.85,11.99.63,1.21,4.23,9.49,5.07,10.06,1.66,1.12,4.87-2.21,6.73-2.44ZM115.08,75.92c2.87-.49,5.7,1.12,8.67,1.41,2.07.2,10.72,1.38,11.69.94,1.69-1.9,3.63-3.86,5.34-5.89s3.17-4.42,4.18-6.78,2.05-5.15,1.61-7.96c-.55-3.52-5.55-6.68-9.27-5.71-1.54.4-4.18,2.24-7.25,5.23-2.16,2.11-5.63,3.38-7.77,5.61-2.73,2.86-4.36,6.22-5.81,7.5-2.12,1.87-4.38,4.27-6.32,6.38,4.98-1.91,4.68-2.89,9.34-5.49,1.4-1.08,11.03-4.83,11.08-1.88.01.7-7.92.46-8.98,1.48-2.6,1.39-4.69,2.6-6.5,5.18ZM70.08,90.06c-3.04-3.72-4.3-1.52-9.1-1.52-.24,0-4.42-.58-3.62-1.29,3.15.86,7.29,1.55,11.15,1.27s7.92-2.05,10.12-5.08c-2.12-3.07-4.93-5.79-8.01-6.77s-6.72.71-10.16,1.12-6.68.87-9.74,1.93c-1.89.65-6.67.75-10.59,2.6-4.14,1.95-7.53,5.21-8.25,6.99-1,2.47-1.64,7.21-.27,11.36s4.22,8.12,6.4,9.71c2.3,1.68,10.18,3.36,12.37,1.32.8-.75,3.55-4.84,4.55-6.32,1.51-2.24,2.73-4.09,4.56-5.59,1.94-1.59,3.07-4.49,5.35-5.61,2.15-1.06,5.76-.36,8.2-1.32-1.78.03-4.98.06-6.71.61-2.93.93-5.42,3.11-8.31,4.18s-5.94.58-8.89,1.44c-.94-.28-1.27-.39-.46-.93,3.26-2.19,3.39-1.87,7.08-3.23s3.41-3.16,7.31-3.62c4.41-.52,9.49,1.8,7-1.24ZM91.8,78c-2.46.07-5.79-.44-7.83,1.19s-3.32,4.76-3.5,7.38c-.25,3.57,1.58,6.82,4.06,8.61s6.21,2.47,9.35,1.94,6.53-2.07,8.2-5.15c1.93-3.56-.12-7.05-2.03-9.74s-4.43-4.35-8.24-4.24ZM117.7,89.01c2.63.3,4.92,1.27,7.61,1.49.08,2.15-2.99-.12-4.37.19-1.83.44-1.98.2-3.73.89.91.19,1.93,1.2,2.76,1.63,1.91.99,3.84,2.63,6.02,3.78s5.3.74,7.1,1.85c1.09.67,2.11,2.24,1.71,3.82-2.6-.82-4.74-3.39-7.18-4.58s-5.32-1.47-7.73-2.72-4.34-3.64-6.86-4.66c-1.52-.61-4.44-1.31-5.91-1.63-.72-.16-1.68.38-1.49,1.4.51,1.02,9.44,5.81,11.32,6.96,2.42,1.49,4.31,2.65,5.93,4.49s4.56,2.82,6,5.23c.73,1.22.49,6.59.86,7.02,1.01,1.17,4.79.5,7.75-.28,2.76-.72,4.74-2.81,5.79-3.86,1.92-1.91,5.24-4.8,6.41-8.72s1.23-8.57-.35-11.07c-1.28-2.03-4.47-3.54-7.95-5.18-2.66-1.25-5.95-1.47-9.11-2.37s-6.16-1.62-9.1-2.07c-3.81-.58-7.1-2.15-9.34-1.8-1.25.19-7.24,3.36-7.52,4.24-.62,1.96,1.26,2.9,4.25,4.12,2.8,1.14,5.84,1.7,7.12,1.84ZM77.46,90.46c-1.21.25-4.02.52-4.72,1.66,1.21-.25,4.02-.52,4.72-1.66ZM67.99,113.64c-1.05-.99,6.91-7.84,7.76-8.97.76-1.01,2.45-4.03,3.79-6.37,1.55-2.71,1.5-5.83-2.58-5.09-2.78.51-5.47,1.64-7.94,2.91s-5.23,2.48-7.31,4.35-2.53,5.18-4.14,7.47-3.26,4.39-4.34,6.95-3.47,4.88-3.96,7.59c-.66,3.66,1.21,7.53,3.16,10.09s5.44,5.21,9.61,4.13c2.81-.73,5.83-2.93,8.6-5.06,2.44-1.88,4.55-4.6,6.62-7.13s4.68-4.94,6.07-7.7c1.57-3.12,2.35-6.69,2.63-9.56.18-1.85-.01-7.79-2.4-7.77-.7,0-3.68.73-5.88,3.37-1.98,2.38-3.32,5.35-4.08,6.14s-4.71,5.49-5.6,4.66ZM100.17,99.87c-.72-.45-3.56-1.05-4.09-.26-1.06,1.58-.58,5.56-.11,8.88s1.31,6.51,1.99,8.22c.79,1.98,2.56,4.35,4.56,6.75,1.63,1.96,3.21,4.41,5.28,6.21s5.39,1.96,7.57,3.22c2.69,1.56,4.83,2.82,7.06,2.83,3.95,0,9.45-3.98,9.91-7.82.29-2.43-1.79-6.09-3.37-9.85-1.26-3-1.84-6.81-3.6-9.61-2.14-3.41-4.98-6.22-6.82-7.79-.73-.62-3.92-2.14-6.82-3.85-3.12-1.85-6.61-4.42-7.2-4.32-1.05.19-3.16,4.58-3.63,5.65,1.24,2.39,4.68,3.74,6.5,5.96s1.98,5.72,3.3,7.98c.25.42,2.91,3.05,1.23,2.38-.62-.25-8.63-8.19-9.48-9.39-.76-1.08-2.04-5.03-2.29-5.18ZM88.42,109.97c.4-3.18,1.46-7.04,1.75-10.3-.01-.24-1.91-.36-2.01-.14.18.6-.56,1.6-.56,1.89,0,4.08.19,4.08.19,8.16,0,.87-1.55,3.34-2.71,6.14s-.64,6.13-1.17,7.06c-1.57,2.76-3.87,4.13-5.1,5.9s-3.22,3.76-2.04,7.38c1.08,3.31,3.96,5.64,6.19,7.5,2.57,2.15,5.85,4.41,9,3.89,2.71-.45,5.78-2.78,8.21-5.74,1.68-2.06,4.4-8.01,4.51-10.56.08-1.85-.93-2.68-1.77-3.63-2.61-2.91-4.67-4.97-6.05-7.72s-4.06-5.26-4.6-9.19c-.47-4.88,2.22-5.24,1.35-10.06-1.06-.45-1.81,1.27-1.84,1.83-.15,3.79,1.5,6.96,2.09,10.19.62,3.41-.28,6.92-.14,10.51s-.5,4.44-1.25.71c-.83-4.11-.96-8.73-1.82-12.9-2.65,3.98-.21,4.89-1.64,9.46-.97,3.12-1.18,3.13-2.37,6.17-.15.12-1.21-.82-1.31-1.02-.55-1.08-.75-4.57.42-7.98,1.07-3.12,2.49-6.06,2.67-7.53Z"/>
  <path class="cls-1" d="M104.7,13.63c-1.96-.39-2.17-3.92-.2-4.29,10.65-1.97,10.96-.02,21.79-.02s10.83-.28,21.67-.28,15.51-8.02,22.5.26c8.28,9.81-.1,13.54-.1,26.38,0,12.84-2.01,12.84-2.01,25.68,0,12.84,2.14,12.84,2.14,25.68,0,12.84-1.83,12.84-1.83,25.68,0,12.84-.18,12.84-.18,25.68,0,12.84,4.17,13.16,2.19,25.85-.31,1.98-5.69,1.96-6-.01-1.97-12.35.1-12.66.1-25.16s-.37-12.51-.37-25.01c0-12.51-.04-12.51-.04-25.01s.74-12.51.74-25.01c0-12.51,1.71-12.51,1.71-25.02,0-12.51,5.57-14.39-2.32-24.1-6.41-7.89-9.04-.25-19.21-.25s-10.25-2.58-20.41-2.05-10.21,2.97-20.19,1.01Z"/>
  <path class="cls-1" d="M9.66,147.73c-1.98-12.63.24-12.81.24-25.6,0-12.79-.58-12.79-.58-25.57s.91-12.79.91-25.57c0-12.79-.51-12.79-.51-25.58,0-12.79-3.41-13.27.46-25.46,2.25-7.11,3.95-6.89,11.15-8.82,12.33-3.29,12.46-1.29,25.22-1.29s13.04-2.62,25.64-.64c1.98.31,1.72,3.72-.25,4.04-12.22,1.97-12.26-.47-24.64-.47-12.38,0-12.73-1.69-24.81,1.06-5.65,1.29-6.4,2.43-7.89,8.03-3.24,12.18-1.87,12.39-1.87,25,0,12.6.66,12.6.66,25.21s.53,12.61.53,25.21c0,12.61.69,12.61.69,25.21,0,12.61,1.32,12.78-.43,25.27-.33,2.35-4.2,1.95-4.51-.03Z"/>
  <path class="cls-1" d="M18.65,168.63c-1.97-.34-2.35-3.4-.38-3.74,11.27-1.97,11.6,2.14,23.04,2.14s11.44-1.1,22.88-1.1,11.44-.73,22.88-.73,11.44.74,22.88.74,11.44.08,22.88.08,11.76-3,23.03-1.03c1.97.34,1.85,4.68-.12,5.02-11.27,1.97-11.47-1.09-22.9-1.09-11.44,0-11.44,1.24-22.88,1.24s-11.44-1.55-22.88-1.55-11.44,1.58-22.88,1.58-11.43.13-22.86.39-11.42.04-22.69-1.93Z"/>
</svg>