<?xml version="1.0" encoding="UTF-8"?>
<svg id="Layer_6" data-name="Layer 6" xmlns="http://www.w3.org/2000/svg" viewBox="0 0 346.73 475.73">
  <defs>
    <style>
      .cls-1 {
        stroke: #e4e6b3;
        stroke-miterlimit: 10;
      }

      .cls-1, .cls-2 {
        fill: #e4e6b3;
      }
    </style>
  </defs>
  <path class="cls-1" d="M19,357.33c.25.34.64.59,1.05.78s.83.34,1.14.48c.38.18.78.35,1.17.5.39.16.78.31,1.16.44.57.21,1.14.4,1.71.59.57.19,1.14.37,1.71.55.57.18,1.15.36,1.71.55.55.19,1.11.41,1.67.61s1.11.4,1.67.59c.56.18,1.11.35,1.68.49.59.15,1.19.27,1.78.39.59.12,1.19.25,1.78.4s1.18.35,1.75.6c.58.26,1.16.57,1.72.99.2.15.39.3.58.45.37.3.74.62,1.11.93.37.31.74.63,1.11.95.37.32.74.64,1.11.95.37.32.74.63,1.11.94.49.41.99.82,1.48,1.23.49.41.99.83,1.49,1.24.5.41.99.83,1.49,1.24.5.41.99.82,1.49,1.23s.99.81,1.49,1.21c.5.4,1,.79,1.49,1.17.5.38,1,.77,1.49,1.17.49.4.99.8,1.48,1.21.49.41.98.83,1.46,1.26.48.42.95.84,1.43,1.26.48.42.96.83,1.44,1.24.48.41.97.82,1.46,1.22.49.4.98.8,1.47,1.18.49.39.99.77,1.48,1.14.5.37,1,.73,1.5,1.08.42.29.84.56,1.26.81.43.25.86.49,1.29.71.49.25.99.47,1.48.68.49.21.99.39,1.48.55.49.16.99.31,1.49.43.5.12.99.22,1.5.3s1.01.14,1.51.17c.44.03.88.05,1.32.07.44.01.88.01,1.31,0,.62-.02,1.25-.1,1.87-.22.62-.12,1.24-.28,1.85-.48.61-.19,1.21-.42,1.8-.65s1.17-.49,1.73-.75c.43-.19.86-.4,1.27-.65.43-.26.85-.53,1.26-.82.41-.29.82-.58,1.23-.89.4-.31.8-.62,1.2-.93.4-.31.8-.63,1.19-.94.38-.3.83-.63,1.32-.93.49-.31,1.02-.59,1.57-.81.55-.22,1.11-.38,1.66-.42.55-.05,1.09.02,1.59.23.35.14.7.49,1.02.73.48.35.97.7,1.44,1.06.41.32.83.62,1.25.92.42.29.85.57,1.28.82.43.26.87.49,1.32.7.26.12.51.24.76.36.5.25.99.52,1.48.8.49.28.97.58,1.45.89.48.31.95.63,1.42.95.47.32.94.66,1.4.99.47.33.93.67,1.39,1,.35.25.69.53,1.03.81.34.28.67.58.99.88.33.3.66.6.98.9.27.24.54.49.82.73-.09-.05-.19-.09-.28-.12-.44-.15-.89-.22-1.34-.26-.49-.04-.97.02-1.45.07-.48.06-.97.11-1.46.06-.29-.03-.58-.06-.87-.1-.55-.08-1.07-.12-1.59-.13-.51,0-1.01.01-1.51.07-.5.05-.99.13-1.48.24-.5.11-1,.23-1.51.38-.01,0-.02,0-.03.01-.48.14-.94.39-1.37.69s-.83.66-1.22,1.03c-.39.38-.77.77-1.13,1.14-.37.37-.72.75-1.06,1.15-.34.4-.67.82-.99,1.24-.32.43-.63.87-.93,1.32-.33.49-.64.99-.95,1.5-.31.51-.61,1.03-.91,1.56-.3.53-.59,1.06-.88,1.59-.29.54-.58,1.07-.86,1.61-.29.54-.57,1.08-.86,1.61-.29.54-.58,1.07-.88,1.59-.3.53-.6,1.05-.91,1.56-.31.51-.63,1.01-.96,1.5-.33.49-.67.97-1.02,1.43-.35.46-.72.91-1.1,1.34-.38.43-.78.84-1.2,1.23-.39.36-.79.7-1.2,1.02-.41.32-.83.63-1.26.92-.43.29-.86.58-1.3.85-.44.28-.88.55-1.32.82-.54.34-1.09.67-1.64,1-.55.33-1.1.65-1.66.96-.56.31-1.12.6-1.7.86-.57.27-1.16.51-1.76.72-.55.19-1.11.36-1.67.54-.56.18-1.12.36-1.66.59-.54.23-1.05.49-1.52.83-.47.34-.9.75-1.26,1.27-.32.46-.58.97-.78,1.53-.2.56-.35,1.15-.47,1.78-.11.62-.19,1.28-.24,1.94-.05.67-.09,1.35-.11,2.03-.03.68-.05,1.36-.08,2.03-.03.66-.07,1.32-.12,1.97-.05.65-.11,1.3-.19,1.94-.07.64-.15,1.28-.24,1.91-.09.63-.19,1.26-.29,1.89-.1.63-.21,1.25-.33,1.87s-.24,1.24-.36,1.86c-.13.62-.26,1.23-.39,1.85-.13.62-.27,1.23-.41,1.84-.14.61-.28,1.23-.42,1.84-.14.61-.28,1.23-.42,1.84-.14.61-.28,1.23-.41,1.85-.13.62-.27,1.24-.39,1.86-.13.62-.25,1.24-.37,1.87-.12.63-.23,1.25-.34,1.89-.11.63-.21,1.27-.3,1.91-.09.64-.18,1.28-.25,1.93-.07.65-.14,1.3-.19,1.96-.03.33-.01.77.23,1,.27.25.56.01.75-.22.33-.42.65-.85.97-1.3.31-.44.62-.9.92-1.35.3-.46.6-.92.91-1.37.3-.45.61-.9.93-1.34.32-.44.64-.87.98-1.28.34-.41.69-.8,1.06-1.17.4-.39.81-.75,1.24-1.09.43-.34.87-.65,1.32-.94.45-.3.91-.58,1.38-.85.47-.27.94-.53,1.41-.8.47-.26.94-.52,1.41-.79.47-.27.93-.55,1.39-.84.46-.29.91-.6,1.35-.94s.87-.7,1.27-1.08c.41-.39.79-.8,1.15-1.24.36-.44.69-.91.99-1.41.3-.5.56-1.04.78-1.61.22-.57.4-1.17.53-1.81.11-.55.19-1.13.25-1.71.06-.58.11-1.16.18-1.74.07-.58.15-1.15.27-1.7.13-.6.31-1.17.5-1.73.19-.56.4-1.11.58-1.67.19-.56.35-1.13.47-1.74.1-.54.16-1.1.19-1.66.02-.56.01-1.13-.02-1.71-.04-.58-.1-1.16-.18-1.75-.08-.59-.17-1.18-.27-1.78-.1-.6-.21-1.19-.31-1.79-.1-.6-.21-1.2-.3-1.8-.09-.6-.17-1.19-.22-1.79-.06-.59-.09-1.18-.1-1.76,0-.41.01-.81.06-1.2.05-.39.13-.76.27-1.1.16-.38.38-.7.62-.99.25-.29.52-.55.79-.81.42-.4.83-.81,1.23-1.23.4-.42.8-.85,1.18-1.29.39-.44.76-.9,1.13-1.36.37-.46.73-.94,1.08-1.42.35-.48.7-.98,1.03-1.48.34-.5.66-1.01.98-1.53.32-.52.63-1.05.93-1.59.3-.54.59-1.08.88-1.64.28-.55.56-1.11.82-1.68.26-.57.52-1.14.77-1.73-.18.51-.34,1.03-.48,1.56-.14.53-.26,1.07-.36,1.63-.1.55-.18,1.11-.24,1.68-.06.57-.1,1.14-.11,1.73s-.01,1.17.01,1.76c.02.59.07,1.18.14,1.77.07.59.15,1.19.26,1.78.11.59.24,1.18.39,1.77.12.46.25.93.36,1.39.12.47.21.93.27,1.39.05.46.06.91,0,1.35-.08.49-.25.93-.45,1.35-.2.42-.44.81-.65,1.21-.26.48-.48.98-.68,1.49-.2.52-.37,1.05-.51,1.61-.14.55-.26,1.12-.35,1.7-.09.58-.15,1.18-.19,1.78-.04.6-.05,1.22-.04,1.84.01.62.05,1.25.11,1.88.06.63.15,1.26.25,1.9.11.63.24,1.27.39,1.9.15.63.32,1.26.52,1.88.19.62.41,1.23.64,1.84.23.6.48,1.2.75,1.78.27.59.55,1.16.85,1.73.3.57.61,1.12.93,1.67.33.55.66,1.09,1.01,1.62s.71,1.05,1.09,1.56c.37.51.76,1.01,1.15,1.5.39.49.79.97,1.2,1.44.41.47.83.93,1.25,1.39.42.45.85.89,1.29,1.33.43.43.87.86,1.32,1.27.41.38.82.75,1.23,1.13.41.38.83.76,1.23,1.15.41.39.8.79,1.19,1.2.38.41.75.84,1.1,1.3.35.45.68.93.98,1.43.29.49.55,1,.8,1.53.25.53.48,1.06.71,1.6.23.54.45,1.08.69,1.61.23.53.48,1.05.74,1.55.26.5.55.98.87,1.42.32.45.67.86,1.07,1.23.12.11.25.22.39.25.31.06.4-.22.35-.59-.05-.38-.23-.85-.44-1.17-.33-.49-.63-.99-.91-1.51-.28-.51-.54-1.04-.79-1.58-.24-.54-.46-1.08-.67-1.63-.2-.55-.39-1.11-.56-1.68-.17-.57-.32-1.14-.46-1.71-.14-.57-.26-1.15-.37-1.73-.11-.58-.2-1.15-.29-1.73-.08-.58-.15-1.15-.21-1.72-.06-.57-.11-1.14-.16-1.71-.04-.57-.08-1.14-.11-1.7-.03-.57-.06-1.13-.09-1.7-.03-.57-.05-1.13-.07-1.7-.02-.56-.05-1.13-.07-1.69-.03-.56-.05-1.13-.09-1.69s-.07-1.13-.11-1.7c-.04-.57-.1-1.13-.16-1.7-.06-.55-.13-1.1-.21-1.65-.08-.55-.17-1.1-.28-1.65-.11-.55-.24-1.09-.38-1.64-.15-.54-.31-1.08-.5-1.6-.19-.53-.4-1.05-.65-1.55-.26-.55-.55-1.08-.86-1.59-.31-.51-.64-1-.99-1.47-.35-.47-.72-.93-1.1-1.37-.38-.45-.77-.88-1.18-1.31-.4-.43-.81-.85-1.23-1.26-.41-.42-.83-.83-1.25-1.25-.42-.42-.84-.83-1.25-1.26-.41-.42-.82-.85-1.22-1.29s-.79-.89-1.16-1.35c-.31-.38-.61-.78-.89-1.19-.29-.41-.56-.83-.81-1.27-.25-.44-.48-.89-.69-1.35-.2-.45-.37-.91-.52-1.38-.15-.47-.28-.94-.39-1.42-.11-.48-.2-.96-.27-1.45-.07-.48-.13-.97-.18-1.45-.05-.52-.08-1.04-.1-1.56-.02-.52-.02-1.03,0-1.55.01-.51.04-1.02.08-1.53.04-.5.1-1,.17-1.5.08-.58.19-1.15.31-1.71.12-.56.26-1.11.42-1.65.16-.54.33-1.07.53-1.59.19-.52.4-1.02.63-1.52.23-.49.47-.97.73-1.44.26-.46.53-.91.82-1.35.29-.43.59-.85.91-1.25.32-.4.65-.78,1-1.14.35-.36.71-.71,1.08-1.03.28-.24.57-.47.86-.69.29-.22.6-.43.9-.62.41-.26.89-.44,1.4-.58.51-.14,1.04-.22,1.56-.29.53-.07,1.04-.12,1.52-.19.48-.03.96.01,1.45.07.48.06.97.14,1.45.2.47.06.94.07,1.41.1.47.02.94.06,1.41.16.41.09.8.18,1.2.36.49.28.97.61,1.43.99.46.38.9.79,1.32,1.23.42.44.83.9,1.22,1.36.33.39.66.78.99,1.16s.65.76.97,1.15c.32.39.63.78.93,1.19.3.41.59.84.87,1.29.2.32.4.65.59.97.19.33.38.66.55,1,.24.54.48,1.08.73,1.62.25.54.49,1.07.75,1.59.26.53.52,1.05.8,1.56.27.51.56,1.02.86,1.52.3.5.61.99.95,1.48.3.44.61.88.92,1.32.31.44.61.87.92,1.31.3.44.61.88.9,1.33.3.45.59.9.87,1.36.28.46.55.93.8,1.4.25.48.5.96.75,1.44.25.48.49.96.75,1.44.26.47.53.94.81,1.4.2.32.42.64.61.96.33.53.65,1.07.96,1.61.31.54.61,1.09.9,1.63.29.55.57,1.1.85,1.66.27.56.54,1.11.8,1.68.26.56.51,1.13.75,1.7.24.57.47,1.15.7,1.73.23.58.44,1.16.66,1.75.21.59.42,1.18.61,1.78.18.54.36,1.08.55,1.62.19.54.38,1.08.58,1.61.21.55.42,1.09.64,1.63.22.54.44,1.08.67,1.61.2.45.41.9.62,1.34.22.44.45.88.68,1.32.23.44.46.87.69,1.31.23.44.45.88.67,1.32.22.46.44.92.66,1.38.22.46.44.92.68,1.37.23.45.47.9.72,1.34.25.44.51.88.79,1.3.21.31.46.68.76.99.29.31.62.57.95.65.5.12.78-.12.91-.51.13-.39.09-.91-.04-1.35-.13-.42-.32-.82-.54-1.21-.22-.39-.45-.77-.64-1.16-.27-.55-.55-1.1-.84-1.65-.29-.54-.58-1.08-.88-1.62-.3-.54-.6-1.07-.9-1.6-.3-.53-.6-1.06-.9-1.6-.3-.53-.59-1.06-.88-1.6-.25-.47-.49-.94-.72-1.42-.23-.48-.46-.95-.68-1.43-.23-.49-.45-.99-.65-1.49-.21-.5-.4-1-.6-1.5-.2-.51-.4-1.02-.6-1.53-.2-.51-.4-1.02-.6-1.53-.19-.49-.38-.99-.58-1.48-.19-.49-.39-.98-.6-1.47-.22-.52-.45-1.03-.7-1.53-.24-.51-.5-1.01-.75-1.51-.26-.5-.52-1-.78-1.5-.26-.5-.52-1-.78-1.5-.26-.5-.51-1-.75-1.51-.26-.54-.49-1.09-.71-1.64-.13-.32-.25-.64-.36-.96-.11-.32-.22-.65-.33-.97-.18-.54-.37-1.07-.56-1.59-.19-.52-.4-1.03-.61-1.54-.21-.51-.43-1-.66-1.5-.23-.5-.47-.99-.72-1.48-.25-.49-.51-.98-.78-1.46-.25-.45-.49-.91-.73-1.38-.23-.47-.45-.95-.67-1.43-.21-.48-.41-.97-.61-1.46-.19-.49-.37-.98-.55-1.47-.16-.46-.31-.92-.45-1.38-.14-.46-.28-.93-.41-1.4-.13-.46-.27-.92-.41-1.38-.14-.46-.27-.92-.4-1.39-.13-.45-.26-.91-.39-1.36-.13-.45-.27-.91-.41-1.36-.14-.45-.29-.9-.44-1.36-.15-.45-.3-.9-.44-1.35-.15-.46-.3-.93-.44-1.4s-.29-.93-.44-1.4c-.14-.47-.29-.93-.43-1.4-.14-.47-.29-.94-.43-1.4-.14-.47-.28-.95-.42-1.42-.14-.47-.28-.95-.42-1.42s-.28-.95-.43-1.42c-.14-.47-.29-.95-.44-1.42-.19-.61-.38-1.22-.58-1.83-.19-.61-.39-1.22-.58-1.84-.19-.61-.38-1.23-.56-1.84-.14-.47-.29-.94-.43-1.41-.15-.47-.3-.94-.45-1.4s-.31-.93-.46-1.4c-.16-.47-.31-.93-.47-1.4-.16-.47-.33-.93-.49-1.4-.17-.47-.33-.93-.49-1.4-.18-.55-.36-1.11-.53-1.67s-.33-1.13-.48-1.71c-.15-.57-.29-1.15-.42-1.73s-.24-1.16-.34-1.74c-.1-.58-.19-1.15-.26-1.73-.07-.58-.14-1.17-.2-1.75s-.14-1.17-.23-1.75c-.09-.58-.19-1.17-.31-1.75-.12-.55-.25-1.1-.41-1.64-.16-.54-.33-1.07-.5-1.6-.17-.53-.35-1.06-.51-1.6-.16-.54-.31-1.08-.44-1.63-.13-.42-.26-.84-.4-1.25-.14-.41-.28-.82-.42-1.23-.14-.41-.28-.82-.42-1.24-.18-.57-.36-1.15-.52-1.73-.16-.58-.31-1.17-.44-1.75-.07-.31-.15-.63-.23-.94-.08-.31-.16-.62-.25-.93-.14-.52-.27-1.05-.4-1.58s-.23-1.06-.34-1.59-.21-1.06-.32-1.59c-.1-.53-.21-1.06-.32-1.59-.11-.53-.23-1.06-.36-1.58-.13-.52-.27-1.04-.43-1.56-.12-.41-.25-.83-.36-1.24-.12-.42-.23-.83-.34-1.25-.11-.42-.22-.84-.32-1.26-.12-.49-.22-.98-.32-1.47-.1-.49-.19-.99-.28-1.48-.09-.49-.18-.99-.28-1.48-.09-.49-.19-.99-.3-1.48-.13-.6-.19-1.21-.19-1.81,0-.6.06-1.2.15-1.78.09-.59.23-1.16.37-1.73.14-.53.25-1.06.33-1.6.08-.53.14-1.07.17-1.61.03-.54.03-1.08.01-1.63-.02-.55-.07-1.1-.13-1.65-.05-.37-.09-.74-.14-1.12s-.1-.74-.14-1.11c-.05-.36-.09-.72-.14-1.09-.05-.36-.1-.72-.15-1.09-.07-.56-.12-1.11-.16-1.67-.04-.56-.07-1.11-.09-1.67-.02-.56-.03-1.11-.05-1.67s-.02-1.11-.03-1.67c-.01-.56-.02-1.11-.04-1.67-.02-.6-.05-1.21-.07-1.81-.02-.6-.05-1.21-.08-1.81-.03-.6-.06-1.2-.1-1.8-.04-.6-.08-1.2-.13-1.8-.05-.6-.1-1.2-.16-1.81-.05-.52-.1-1.04-.15-1.56s-.08-1.04-.11-1.56c-.03-.52-.05-1.05-.05-1.56,0-.32.01-.65.01-.97s0-.65,0-.97c-.02-.62-.04-1.24-.05-1.86,0-.35,0-.7-.01-1.05,0-.35,0-.7,0-1.05s0-.69-.02-1.03c0-.34-.02-.69-.03-1.03,0-.35-.01-.7-.01-1.06,0-.35,0-.7-.01-1.06,0-.58-.02-1.18-.04-1.77-.02-.6-.03-1.19-.03-1.79,0-.6.02-1.19.07-1.78.05-.59.13-1.17.25-1.74.07-.33.13-.65.2-.97.06-.29.13-.58.17-.87.08-.53.13-1.07.16-1.61.03-.54.05-1.09.08-1.63.02-.54.05-1.09.11-1.62.04-.44.08-.89.13-1.33.05-.44.11-.89.21-1.31.1-.43.23-.84.42-1.23.27-.55.63-1,1.02-1.41.39-.41.81-.79,1.18-1.2.17-.19.3-.43.43-.66.13-.22.25-.45.37-.68.28-.53.56-1.05.84-1.55.29-.5.58-.99.89-1.47.3-.48.62-.94.94-1.39.32-.45.66-.89,1.01-1.32.35-.43.71-.85,1.09-1.26.38-.41.77-.81,1.18-1.19.37-.35.75-.73,1.14-1.1.39-.37.78-.74,1.19-1.07.41-.33.83-.63,1.28-.86.37-.19.81-.29,1.27-.33.45-.03.91,0,1.31.05.57.09,1.12.23,1.67.41.55.18,1.09.39,1.64.61s1.09.43,1.64.63c.55.19,1.1.36,1.67.46.62.12,1.23.2,1.85.27.62.06,1.24.1,1.85.12.62.02,1.23.01,1.85,0,.62-.02,1.23-.05,1.84-.1.57-.04,1.15-.07,1.72-.1.58-.03,1.15-.05,1.73-.08.58-.03,1.15-.07,1.73-.12.57-.05,1.15-.12,1.71-.21s1.13-.21,1.69-.36c.56-.15,1.11-.33,1.66-.56.56-.23,1.09-.51,1.61-.83.52-.32,1.01-.69,1.49-1.08.48-.4.94-.82,1.38-1.27.44-.45.87-.92,1.28-1.41.41-.49.8-.99,1.18-1.5.38-.51.74-1.02,1.09-1.53.28-.41.55-.82.83-1.23.27-.41.55-.82.82-1.23.33-.48.66-.95,1-1.41.34-.46.68-.92,1.03-1.37.35-.45.7-.89,1.06-1.32.36-.43.73-.86,1.11-1.27.38-.42.76-.82,1.16-1.22.4-.4.8-.79,1.22-1.16.35-.32.69-.64,1.03-.97.46-.43.93-.85,1.41-1.24.48-.39.98-.76,1.48-1.12.51-.35,1.02-.69,1.55-1,.53-.32,1.06-.62,1.61-.9.54-.28,1.1-.55,1.65-.8.56-.25,1.12-.49,1.69-.72.27-.11.54-.22.82-.31.41-.14.82-.29,1.23-.43.41-.14.82-.28,1.23-.42.52-.17,1.05-.31,1.59-.44s1.07-.23,1.62-.32c.54-.1,1.09-.18,1.63-.27.54-.09,1.09-.18,1.63-.28.54-.1,1.08-.22,1.6-.35.53-.13,1.05-.29,1.57-.48.31-.11.63-.3.79-.6.34-.63-.02-.97-.55-1.13-.52-.17-1.21-.16-1.54-.1-.51.09-1,.25-1.48.41-.49.17-.97.34-1.47.45-.54.12-1.08.22-1.63.29-.55.07-1.09.12-1.64.15-.55.03-1.1.04-1.66.04-.55,0-1.11-.02-1.66-.05-.55-.03-1.11-.06-1.66-.1-.55-.04-1.1-.09-1.65-.13-.55-.05-1.09-.09-1.63-.13-.42-.03-.84-.07-1.26-.11-.42-.04-.84-.07-1.26-.09-.52-.03-1.05-.04-1.58-.04-.53,0-1.05.01-1.58.03-.53.02-1.06.03-1.58.05-.53.01-1.05.02-1.58.02-.53,0-1.06-.01-1.59-.02-.53,0-1.06-.02-1.59-.03-.53-.01-1.06-.02-1.59-.03-.53,0-1.05-.02-1.57-.02-.44,0-.89,0-1.33,0-.44,0-.88.02-1.33.03-.52-.01-1.04-.02-1.57-.01-.52,0-1.05.02-1.58.04-.53.02-1.05.04-1.58.07-.53.03-1.05.05-1.58.08-.53.02-1.05.04-1.57.06-.42.01-.84.02-1.26.05-.42.02-.84.05-1.25.1-.5.05-.99.1-1.49.14-.5.04-.99.08-1.49.11-.5.04-.99.07-1.49.11s-.99.08-1.49.12c-.59.06-1.15.17-1.69.34-.54.17-1.06.39-1.57.65-.5.26-.99.56-1.47.9-.48.33-.94.7-1.39,1.09-.45.39-.9.8-1.34,1.22-.33.31-.64.63-.95.97-.31.33-.61.68-.9,1.02-.38.45-.76.91-1.12,1.38-.36.47-.72.96-1.05,1.46-.34.5-.66,1.01-.96,1.54-.3.53-.59,1.07-.85,1.62-.26.56-.5,1.13-.72,1.71-.18.51-.34,1.02-.49,1.55-.15.52-.28,1.05-.41,1.58-.13.53-.27,1.06-.42,1.58-.15.52-.28,1.05-.41,1.59-.13.53-.25,1.07-.38,1.6-.13.53-.27,1.06-.43,1.58-.16.52-.35,1.03-.57,1.52-.21.46-.4.81-.64,1.11-.24.29-.52.52-.91.75-.47.27-.9.65-1.31,1.06-.41.41-.81.85-1.21,1.23-.13.12-.26.25-.38.37-.38.39-.75.82-1.11,1.28-.36.46-.7.95-1.03,1.46-.33.51-.64,1.03-.94,1.55-.3.52-.57,1.04-.83,1.55-.21.4-.41.8-.62,1.2-.28.55-.54,1.11-.83,1.64-.29.54-.6,1.05-.97,1.52-.34.42-.7.82-1.04,1.25-.34.42-.66.87-.9,1.39-.09.19-.18.38-.27.58-.1-.46-.21-.91-.29-1.37-.07-.55-.11-1.11-.11-1.68,0-.57.03-1.14.07-1.71.04-.57.1-1.14.17-1.71.06-.56.13-1.12.18-1.66.02-.24.07-.49.11-.72.05-.27.1-.55.16-.82.12-.5.26-1,.42-1.49.16-.49.33-.97.49-1.45.17-.48.33-.97.48-1.46.15-.49.28-.99.39-1.51.08-.41.16-.83.22-1.25.06-.42.11-.84.14-1.26.04-.51.07-1.04.08-1.57.02-.53.02-1.07,0-1.61-.01-.54-.04-1.07-.09-1.59-.05-.52-.12-1.04-.21-1.53-.08-.41-.16-.83-.23-1.24-.06-.35-.1-.7-.16-1.04-.1-.6-.21-1.21-.3-1.81-.09-.6-.17-1.2-.22-1.81-.05-.61-.08-1.22-.06-1.84,0-.33.02-.66.02-.98,0-.33,0-.65-.02-.98-.03-.54.11-1.09.33-1.6.22-.52.51-1,.79-1.41.33-.48.68-.86,1.05-1.17s.77-.58,1.17-.85c.4-.27.82-.54,1.23-.88.42-.34.84-.67,1.27-.99.43-.33.86-.65,1.28-.99.42-.33.84-.68,1.24-1.04.3-.27.6-.54.87-.86.27-.33.54-.67.79-1.01.34-.47.69-.94,1.04-1.41.35-.47.69-.95,1.02-1.43s.66-.98.96-1.48c.21-.35.42-.7.62-1.05.2-.35.4-.71.6-1.06.21-.38.42-.75.64-1.11.22-.36.45-.72.69-1.07.34-.5.68-.98,1.02-1.47.34-.49.69-.97,1.02-1.46.34-.49.67-.99.98-1.5.3-.49.59-.99.86-1.51.27-.51.53-1.04.76-1.57.23-.54.44-1.09.62-1.65.18-.56.33-1.12.45-1.69s.24-1.14.34-1.72c.1-.58.2-1.16.3-1.73.08-.48.17-.95.26-1.43.09-.48.17-.95.25-1.43.08-.47.15-.94.21-1.41.06-.47.11-.95.14-1.42.03-.43.05-.87.05-1.3,0-.43,0-.87-.03-1.3-.03-.49-.07-.99-.11-1.48-.03-.44-.06-.88-.11-1.31-.07-.61-.16-1.21-.26-1.81-.11-.6-.23-1.19-.37-1.77-.14-.59-.3-1.17-.48-1.74-.11-.38-.23-.75-.36-1.13-.12-.38-.25-.75-.37-1.12-.13-.41-.27-.81-.4-1.22-.13-.41-.27-.81-.42-1.21-.14-.37-.27-.75-.39-1.13-.13-.38-.25-.76-.37-1.15-.14-.46-.28-.92-.4-1.39s-.23-.95-.32-1.43c-.09-.48-.16-.97-.21-1.46-.05-.49-.07-.99-.06-1.48,0,0,0,0,0-.02,0,0,0-.02,0-.02.01-.53.03-1.07.04-1.6.02-.63.04-1.26.09-1.9.05-.55.14-1.11.23-1.66.09-.55.17-1.1.23-1.66.05-.49.07-.99.08-1.49,0-.5,0-1-.03-1.49-.03-.54-.04-1.07-.04-1.6,0-.53.01-1.06.04-1.59.02-.53.05-1.06.09-1.59.03-.53.07-1.07.11-1.6.04-.59.07-1.18.09-1.77.02-.59.04-1.18.07-1.77.02-.32.04-.65.06-.97.02-.32.04-.65.07-.97.03-.48.07-.95.13-1.42s.12-.94.21-1.41c.05-.25.14-.67.17-1.07.03-.4-.02-.78-.27-.93-.04-.02-.07-.04-.11-.04-.15-.03-.3.06-.4.18-.32.37-.61.86-.87,1.36-.26.5-.5,1.02-.75,1.46-.2.35-.41.71-.62,1.07-.21.36-.41.71-.61,1.07-.28.5-.55.99-.83,1.47-.27.49-.54.97-.8,1.46-.26.49-.51.98-.75,1.48-.24.5-.46,1.01-.67,1.54-.21.53-.39,1.07-.56,1.63-.17.6-.35,1.19-.53,1.78-.18.59-.37,1.19-.56,1.78-.19.59-.38,1.18-.58,1.77s-.4,1.17-.61,1.75c-.21.58-.43,1.16-.65,1.74-.16.4-.31.8-.48,1.19-.16.39-.33.79-.51,1.18-.17.38-.34.76-.51,1.14-.17.38-.34.76-.51,1.14-.18.4-.37.8-.56,1.2-.19.4-.38.8-.56,1.2-.17.4-.35.79-.52,1.19-.18.4-.35.79-.54,1.18-.25.54-.52,1.07-.8,1.59-.28.52-.57,1.04-.87,1.55-.3.51-.61,1.02-.92,1.52-.31.5-.63,1-.95,1.5s-.64.99-.96,1.48c-.32.49-.64.98-.95,1.48-.18.29-.37.57-.55.85-.19.28-.38.56-.57.84-.19.27-.37.54-.56.81-.18.27-.36.55-.53.84-.27.47-.54.94-.81,1.41-.27.47-.54.94-.8,1.41-.27.47-.53.94-.79,1.42-.26.47-.52.95-.78,1.43-.26.48-.52.96-.77,1.44-.26.48-.51.96-.76,1.45-.24.46-.48.92-.71,1.38-.23.46-.46.91-.68,1.38-.22.46-.43.93-.62,1.4-.2.48-.38.96-.54,1.46-.17.5-.31,1.01-.44,1.53-.13.53-.23,1.07-.3,1.61-.07.54-.11,1.09-.11,1.63s.02,1.08.08,1.62c.06.54.15,1.07.28,1.59.13.52.29,1.03.49,1.53.16.4.31.8.48,1.2.16.4.33.79.5,1.19.23.52.46,1.05.69,1.59.22.53.44,1.07.66,1.61.21.54.42,1.08.63,1.62.19.51.37,1.02.55,1.53.18.51.35,1.03.53,1.54s.36,1.02.55,1.53c.18.48.38.95.58,1.42.2.47.4.94.6,1.41.2.47.39.95.57,1.43.17.46.37.91.58,1.35.21.44.42.88.63,1.32.2.44.4.89.56,1.36.16.46.25.94.29,1.42.04.48.03.97.01,1.45-.02.48-.05.97-.07,1.44-.02.57-.01,1.15.02,1.73.03.58.07,1.17.14,1.75.07.58.16,1.15.27,1.7.11.57.26,1.13.39,1.7.13.61.23,1.22.29,1.84.06.62.09,1.23.09,1.85,0,.62-.02,1.24-.07,1.86-.04.62-.11,1.24-.19,1.85-.08.62-.16,1.23-.26,1.84-.08.53-.18,1.06-.29,1.58-.11.52-.23,1.05-.36,1.57-.13.52-.26,1.04-.4,1.56-.14.52-.27,1.04-.41,1.56-.13.52-.26,1.04-.39,1.56-.1.42-.18.84-.25,1.27-.06.35-.11.7-.14,1.06-.04.55-.04,1.1-.03,1.65.02.55.05,1.1.1,1.64.04.55.1,1.09.14,1.64.05.54.09,1.09.12,1.63.03.54.04,1.08.01,1.62-.02.54-.07,1.08-.16,1.61-.07.43-.13.86-.18,1.3-.05.43-.1.87-.16,1.3-.06.43-.11.87-.2,1.29-.11.51-.23,1.01-.33,1.51-.11.5-.2,1-.29,1.5-.08.5-.15,1.01-.2,1.52-.05.51-.07,1.04-.06,1.58,0,.44.02.87.03,1.31,0,.44.02.87.01,1.31,0,.54,0,1.09,0,1.63,0,.54,0,1.09.02,1.63,0,.54.02,1.09.04,1.63.01.54.03,1.09.05,1.63.02.54.05,1.09.08,1.63.02.46.06.92.09,1.37.03.46.07.92.09,1.37.03.61.06,1.22.1,1.83s.08,1.22.12,1.83c.04.61.08,1.22.12,1.83.04.61.08,1.22.11,1.83.04.61.07,1.22.09,1.83.03.61.05,1.22.07,1.83.02.63.04,1.27.06,1.9.02.63.04,1.27.07,1.9.02.63.05,1.27.08,1.9.03.63.06,1.27.11,1.9.04.63.09,1.27.14,1.9.06.63.12,1.27.19,1.9.06.55.14,1.11.22,1.66.08.55.15,1.1.22,1.66.07.55.13,1.1.18,1.65.05.55.07,1.1.08,1.64,0,.55-.02,1.09-.08,1.63-.06.54-.15,1.08-.29,1.63-.06.22-.13.45-.2.67,0,.03-.02.06-.02.09-.04-.13-.07-.26-.11-.39-.16-.56-.31-1.13-.46-1.69-.15-.56-.3-1.13-.45-1.7-.15-.57-.3-1.13-.45-1.7-.15-.57-.3-1.13-.44-1.7-.15-.57-.3-1.14-.44-1.7-.02-.1-.05-.19-.07-.29-.12-.48-.22-.96-.33-1.44-.12-.58-.24-1.17-.34-1.77-.11-.59-.21-1.19-.31-1.78-.1-.59-.2-1.19-.3-1.78-.1-.59-.21-1.17-.33-1.75-.09-.46-.19-.91-.29-1.37-.1-.45-.2-.91-.3-1.36-.11-.49-.22-.98-.32-1.47-.11-.49-.21-.98-.32-1.47-.11-.49-.21-.98-.32-1.47-.11-.49-.22-.98-.34-1.46-.13-.54-.26-1.08-.4-1.63-.13-.54-.26-1.08-.39-1.63-.13-.54-.25-1.09-.37-1.63-.12-.54-.24-1.09-.35-1.63-.11-.55-.23-1.09-.33-1.64-.11-.55-.21-1.1-.3-1.65-.06-.36-.12-.71-.18-1.07-.06-.36-.13-.71-.2-1.07-.07-.37-.14-.74-.22-1.11-.07-.37-.15-.74-.22-1.11-.09-.44-.17-.88-.26-1.32-.08-.44-.17-.88-.25-1.32-.08-.44-.17-.88-.25-1.32-.12-.61-.23-1.22-.35-1.83-.12-.61-.23-1.22-.35-1.84-.11-.61-.23-1.22-.34-1.84-.11-.61-.23-1.23-.34-1.84-.09-.48-.19-.96-.29-1.44-.1-.48-.21-.96-.33-1.44-.11-.48-.23-.95-.35-1.43-.12-.47-.25-.95-.38-1.42-.13-.48-.27-.96-.41-1.44-.14-.48-.28-.96-.41-1.44-.13-.47-.25-.93-.38-1.4-.13-.46-.26-.93-.39-1.39-.17-.57-.33-1.14-.49-1.71-.16-.57-.32-1.14-.47-1.71-.15-.57-.31-1.15-.45-1.72-.13-.51-.26-1.02-.38-1.53-.12-.51-.24-1.03-.34-1.54-.09-.47-.18-.94-.26-1.41-.08-.47-.16-.95-.23-1.42-.08-.58-.14-1.18-.2-1.76-.06-.59-.11-1.18-.15-1.77-.04-.59-.07-1.18-.09-1.78-.02-.49-.03-.99-.04-1.48,0-.49,0-.99-.01-1.48,0-.55,0-1.11.02-1.67.02-.56.04-1.12.07-1.67.03-.56.07-1.12.11-1.68.04-.56.09-1.11.14-1.67.05-.56.1-1.11.15-1.66.06-.6.11-1.2.17-1.8.06-.6.12-1.2.19-1.8.07-.6.13-1.2.2-1.8.08-.62.17-1.25.27-1.87.06-.38.11-.75.16-1.13.05-.38.1-.76.14-1.14.06-.51.11-1.02.16-1.53.06-.51.12-1.02.18-1.53.06-.51.12-1.02.18-1.53.06-.51.12-1.02.18-1.53.07-.64.14-1.28.21-1.92.07-.64.14-1.28.21-1.91.07-.64.14-1.28.21-1.91.07-.64.14-1.28.21-1.91.07-.64.14-1.28.22-1.91.07-.64.15-1.28.22-1.92.07-.62.15-1.23.23-1.85s.17-1.23.26-1.84c.09-.61.19-1.23.29-1.83.1-.57.2-1.14.31-1.71.11-.57.22-1.13.33-1.69.12-.56.24-1.12.36-1.68.12-.56.25-1.12.38-1.68.13-.56.26-1.12.39-1.68.12-.49.22-.99.32-1.49.1-.5.19-1,.28-1.49.08-.44.15-.88.21-1.32.06-.44.12-.88.16-1.33.05-.5.07-1,.08-1.5.01-.5.01-1,.02-1.5,0-.5.03-1,.07-1.5.04-.51.09-1.02.14-1.53.05-.51.1-1.02.15-1.53.05-.51.1-1.02.16-1.53.05-.48.11-.94.19-1.38.08-.45.16-.88.26-1.32.09-.44.19-.88.3-1.35.11-.49.22-.99.32-1.48.1-.5.2-.99.29-1.49.1-.5.19-1,.28-1.49.09-.5.19-.99.29-1.49.12-.61.24-1.23.37-1.85.12-.63.25-1.26.39-1.89.14-.63.28-1.27.44-1.89.16-.63.33-1.25.52-1.86.19-.61.4-1.21.63-1.79.23-.58.48-1.15.77-1.69.19-.37.4-.74.62-1.1.22-.36.44-.7.68-1.04.34-.48.7-.93,1.07-1.36.37-.43.76-.85,1.15-1.26.39-.41.79-.8,1.19-1.2.4-.4.8-.79,1.19-1.2.39-.4.78-.81,1.16-1.24.38-.43.74-.87,1.08-1.33.29-.39.59-.79.83-1.22.27-.49.53-.98.77-1.48.24-.5.47-1.01.67-1.54.19-.49.38-.99.56-1.48.19-.49.38-.99.57-1.47.24-.59.47-1.18.7-1.77.23-.59.46-1.18.7-1.77.24-.59.48-1.17.73-1.75.25-.58.51-1.14.79-1.7.26-.53.51-1.06.75-1.59.24-.53.48-1.07.71-1.61.23-.54.46-1.09.69-1.63.23-.54.45-1.09.68-1.63.23-.54.46-1.09.69-1.63.23-.54.47-1.08.72-1.61.21-.45.43-.9.65-1.35.22-.45.44-.9.65-1.36.22-.47.43-.95.64-1.43.21-.48.41-.96.61-1.45.24-.59.47-1.18.67-1.78.21-.6.4-1.2.58-1.8.18-.6.36-1.21.53-1.82s.34-1.22.51-1.83c.17-.61.35-1.22.53-1.83.14-.45.24-.92.34-1.38.09-.47.18-.93.26-1.4.11-.58.19-1.15.27-1.72.08-.57.14-1.13.19-1.7.05-.56.09-1.13.12-1.69.03-.57.05-1.13.07-1.7.01-.57.02-1.15.02-1.73,0-.57.01-1.13.03-1.7.02-.57.04-1.13.06-1.7.02-.57.04-1.13.06-1.7.02-.57.03-1.13.03-1.69,0-.56,0-1.13-.02-1.69-.02-.56-.05-1.13-.09-1.69-.05-.6.07-1.21.05-1.81-.02-.67.05-1.27.18-1.84.14-.57.34-1.09.6-1.6.25-.51.56-.99.89-1.47s.69-.96,1.06-1.46c.26-.35.52-.68.79-1.02.27-.33.54-.66.81-.99.28-.34.56-.69.85-1.02.29-.34.58-.67.87-.99.31-.34.62-.67.94-1,.31-.33.63-.66.95-.97.18-.18.51-.59.85-.92.34-.33.7-.59.93-.47.47.24.95.48,1.43.7.48.22.96.44,1.45.65.57.24,1.15.46,1.74.64.58.17,1.18.3,1.8.34.58.04,1.17.08,1.76.08.58,0,1.17-.06,1.77-.17.6-.1,1.21-.25,1.81-.41.6-.16,1.19-.34,1.76-.52.31-.1.63-.2.94-.32.31-.13.61-.28.9-.47.37-.25.72-.53,1.07-.84.35-.3.69-.63,1.02-.95.33-.33.66-.66.97-.99.22-.23.44-.47.65-.71s.42-.49.63-.74c.37-.45.72-.91,1.06-1.4.34-.48.67-.98.99-1.48.32-.5.63-1.01.95-1.52s.63-1.01.95-1.5c.15-.24.32-.46.49-.68.36-.42.73-.83,1.11-1.22.35-.36.71-.71,1.09-1.06.38-.35.77-.68,1.17-1,.4-.32.81-.63,1.22-.91s.83-.54,1.26-.77c.44-.24.88-.46,1.32-.68.45-.22.89-.42,1.35-.61.45-.19.9-.37,1.36-.54.45-.17.91-.33,1.36-.47.54-.17,1.09-.27,1.64-.35.55-.07,1.1-.11,1.65-.17.55-.05,1.1-.11,1.63-.23.23-.05.47-.14.63-.34.51-.66-.34-.84-.73-.82-.16,0-.32.02-.47.02-.51-.01-1.03,0-1.55,0-.52,0-1.03,0-1.55,0-.59,0-1.19.01-1.79.03s-1.2.04-1.79.06c-.6.02-1.19.04-1.79.05-.59.01-1.18.02-1.77,0-.59-.01-1.17-.02-1.75-.08-.58-.06-1.16-.13-1.75-.18-.59-.05-1.18-.09-1.78-.08-.59,0-1.19.06-1.78.19-.58.13-1.16.29-1.73.51-.57.21-1.15.45-1.73.6-.6.16-1.21.26-1.82.35-.61.09-1.22.17-1.82.28-.61.11-1.21.25-1.8.47-.36.13-.73.29-1.09.45-.52.23-1.04.45-1.55.67-.52.22-1.03.45-1.53.69-.51.24-1,.5-1.49.79-.49.29-.96.61-1.43.97s-.91.76-1.34,1.22c-.24.26-.47.52-.7.79-.23.27-.45.55-.66.84-.3.4-.58.82-.84,1.25-.27.43-.52.87-.77,1.32-.25.44-.49.89-.74,1.34-.25.45-.49.89-.75,1.33-.25.43-.5.84-.71,1.26-.21.42-.39.86-.52,1.36-.09.35-.1.69-.11,1.02,0,.34-.02.67-.1,1.02-.1.41-.31.7-.57.95-.26.25-.56.46-.82.71-.36.35-.71.72-1.07,1.09-.35.37-.7.75-1.04,1.14s-.67.77-.99,1.15c-.38.45-.76.89-1.13,1.34-.38.45-.75.9-1.11,1.36-.36.46-.71.94-1.04,1.43-.03.05-.06.1-.1.15.01-.18.04-.36.06-.54.08-.36.19-.72.29-1.08.11-.38.23-.75.34-1.13.18-.6.36-1.2.52-1.8.16-.6.31-1.2.45-1.81.14-.6.27-1.21.39-1.82.12-.61.24-1.22.35-1.83.11-.61.22-1.23.33-1.84.11-.61.21-1.23.3-1.85.09-.62.17-1.24.22-1.86.06-.62.09-1.24.1-1.85,0-.62-.01-1.23-.07-1.83,0-.05-.01-.11,0-.17.05-.18.37-.43.71-.67.34-.24.7-.46.83-.57.3-.25.59-.5.88-.76.29-.26.58-.52.87-.78.28-.25.56-.53.83-.79.32-.31.65-.62.97-.92.36-.34.74-.68,1.11-1.04.37-.35.74-.71,1.1-1.09.35-.38.69-.77,1.01-1.18.31-.42.6-.86.85-1.33.13-.25.26-.51.3-.8.08-.57-.22-1.01-.17-1.56,0-.03,0-.05.01-.08,0-.03.01-.04.02-.06.13-.34.41-.67.71-.99.3-.31.62-.61.84-.89.28-.35.56-.71.82-1.07.26-.37.52-.74.75-1.13.28-.46.51-.95.71-1.45.2-.5.35-1.03.48-1.56.13-.53.23-1.08.31-1.62.08-.55.14-1.1.18-1.65.04-.55.08-1.1.1-1.64.03-.54.05-1.07.07-1.58.03-.66-.02-1.31-.11-1.94-.09-.63-.22-1.26-.35-1.87-.13-.62-.26-1.24-.35-1.86-.05-.31-.1-.63-.14-.94-.05-.42-.08-.85-.12-1.27-.04-.42-.07-.85-.12-1.27-.04-.42-.09-.84-.13-1.26-.04-.42-.09-.84-.13-1.26-.05-.52-.09-1.05-.11-1.58-.02-.53-.03-1.06-.03-1.59,0-.53.02-1.06.04-1.59,0,0,0-.02,0-.03.03-.42.07-.84.12-1.25.08-.61.17-1.22.28-1.83.1-.61.21-1.22.32-1.83.07-.39.16-.79.24-1.18.08-.39.14-.78.19-1.17.05-.39.1-.78.16-1.17.06-.36.12-.72.22-1.09.15-.56.32-1.13.51-1.7.18-.56.37-1.12.58-1.67.12-.33.25-.67.38-1,.13-.33.27-.66.42-.99.1-.21.11-.53-.19-.41-.16.07-.39.42-.59.79-.21.37-.4.77-.5.93-.22.34-.43.68-.65,1.03-.21.34-.42.69-.63,1.04-.24.41-.47.83-.7,1.26-.23.42-.45.85-.66,1.28-.21.43-.42.86-.63,1.29-.17.37-.35.74-.5,1.11-.21.5-.43.99-.66,1.49-.22.49-.45.99-.68,1.48-.23.49-.46.98-.69,1.48-.23.49-.46.98-.68,1.48-.17.38-.35.75-.52,1.12-.18.37-.36.75-.53,1.12-.18.37-.36.74-.55,1.11-.19.37-.38.73-.56,1.1-.29.57-.55,1.15-.8,1.73-.25.59-.49,1.18-.73,1.77s-.48,1.18-.73,1.77c-.25.58-.53,1.16-.82,1.72-.17.33-.35.65-.54.96s-.37.63-.57.93c-.34.52-.68,1.03-1.03,1.54-.34.51-.69,1.02-1.02,1.54-.33.52-.65,1.05-.95,1.6-.3.56-.6,1.13-.87,1.71-.28.58-.55,1.16-.8,1.74-.26.59-.51,1.18-.75,1.77-.22.53-.42,1.06-.6,1.6-.18.54-.35,1.08-.49,1.62-.14.54-.27,1.09-.36,1.64-.1.55-.17,1.1-.21,1.66-.04.55-.05,1.11-.03,1.66.02.63.1,1.23.22,1.81.12.58.28,1.13.47,1.67.19.54.41,1.06.65,1.57.24.51.49,1.02.75,1.52.27.51.55,1.04.8,1.58.26.54.5,1.1.68,1.69.19.58.32,1.19.37,1.82.05.62.07,1.24.07,1.88,0,.63-.03,1.27-.07,1.92-.04.64-.09,1.28-.15,1.92-.06.64-.12,1.28-.18,1.9-.05.54-.12,1.09-.19,1.63-.08.54-.17,1.08-.28,1.62-.11.54-.22,1.08-.35,1.61-.13.53-.27,1.07-.43,1.6-.15.53-.32,1.06-.5,1.58-.16.46-.36.91-.55,1.36-.19.45-.38.89-.5,1.36-.16.59-.35,1.22-.51,1.85-.16.63-.29,1.26-.3,1.87-.01.55-.05,1.11-.09,1.66-.04.56-.08,1.11-.09,1.67-.01.49-.02.98-.03,1.46,0,.49-.02.97-.03,1.46-.01.49-.03.97-.06,1.46-.03.49-.06.98-.11,1.46-.06.57-.1,1.14-.14,1.71-.03.57-.05,1.14-.06,1.71,0,.57,0,1.14.01,1.7.02.56.05,1.13.09,1.69.04.52.05,1.03.03,1.53-.02.5-.07,1-.14,1.49-.07.49-.16.99-.27,1.48-.11.49-.24.99-.38,1.49-.17.6-.34,1.19-.5,1.79-.17.6-.33,1.19-.5,1.79-.17.6-.34,1.19-.51,1.78-.17.59-.35,1.18-.54,1.77-.19.59-.38,1.18-.58,1.76-.2.58-.42,1.16-.64,1.74-.22.56-.45,1.12-.69,1.68-.24.56-.48,1.11-.73,1.66-.25.55-.5,1.1-.75,1.64-.25.55-.51,1.09-.76,1.64-.26.55-.51,1.09-.76,1.64-.25.55-.5,1.1-.75,1.65-.25.55-.49,1.11-.73,1.66-.25.59-.51,1.18-.78,1.76-.27.58-.54,1.16-.82,1.73-.28.58-.56,1.15-.83,1.72-.28.57-.55,1.15-.83,1.73-.27.58-.54,1.16-.8,1.75-.23.52-.43,1.06-.63,1.6-.19.54-.38,1.09-.56,1.65-.18.55-.37,1.1-.57,1.64-.2.54-.41,1.08-.64,1.6-.23.52-.49,1.02-.79,1.51-.25.42-.53.81-.83,1.18-.33.41-.67.8-1.02,1.19-.35.39-.7.77-1.06,1.14-.36.38-.72.75-1.08,1.13-.36.38-.72.75-1.07,1.13-.35.38-.7.77-1.04,1.17-.32.38-.64.76-.95,1.15-.31.39-.61.79-.9,1.2-.33.47-.64.97-.93,1.49s-.56,1.06-.81,1.62c-.25.56-.48,1.13-.69,1.71-.21.58-.4,1.18-.57,1.77-.17.6-.32,1.2-.45,1.8-.13.6-.24,1.2-.33,1.79-.08.52-.11,1.02-.14,1.52-.03.5-.07,1.01-.17,1.53-.11.62-.23,1.24-.35,1.85-.12.62-.24,1.23-.36,1.84-.13.61-.26,1.23-.39,1.84-.01.04-.01.07-.02.11,0-.02,0-.05,0-.07-.05-.38-.1-.77-.15-1.14-.07-.5-.16-1-.25-1.5-.09-.5-.19-.99-.28-1.49-.09-.5-.16-1-.2-1.52-.04-.43-.09-.85-.15-1.26-.07-.41-.15-.83-.25-1.23-.13-.5-.28-.98-.44-1.45-.16-.47-.33-.93-.5-1.39-.16-.46-.32-.93-.45-1.42-.13-.49-.23-.99-.3-1.53-.06-.52-.11-1.04-.15-1.57-.04-.53-.08-1.06-.12-1.58-.04-.53-.09-1.05-.14-1.57-.06-.52-.12-1.04-.21-1.54-.1-.59-.21-1.17-.33-1.74-.12-.57-.26-1.13-.41-1.69-.15-.56-.32-1.11-.5-1.67-.17-.5-.32-1-.47-1.51s-.28-1.02-.4-1.55c-.13-.56-.26-1.12-.38-1.69-.12-.56-.24-1.13-.34-1.71-.08-.54-.15-1.09-.15-1.65,0-.58.02-1.17.05-1.75.04-.58.08-1.17.14-1.75.05-.58.11-1.17.17-1.75.06-.58.11-1.17.15-1.75.04-.58.07-1.17.07-1.76,0-.52.03-1.04.08-1.56.05-.52.12-1.03.2-1.54.08-.51.18-1.02.29-1.53.11-.51.23-1.02.35-1.53.14-.56.25-1.12.36-1.68.11-.56.21-1.13.31-1.7.1-.57.2-1.14.31-1.7.11-.57.23-1.13.36-1.69.13-.56.29-1.11.46-1.65.18-.55.37-1.09.57-1.62.2-.54.41-1.07.62-1.6.21-.53.42-1.06.62-1.6.2-.53.4-1.07.59-1.61.19-.54.36-1.09.53-1.65.12-.43.22-.85.28-1.3.08-.6.09-1.19.06-1.78-.03-.59-.09-1.17-.16-1.75-.08-.58-.16-1.15-.23-1.71-.08-.59-.13-1.19-.22-1.78-.09-.59-.23-1.15-.47-1.66-.21-.45-.42-.91-.64-1.38-.21-.46-.43-.92-.66-1.38-.23-.45-.46-.9-.72-1.33-.25-.43-.52-.84-.81-1.22-.35-.47-.65-.99-.91-1.53-.27-.54-.51-1.11-.75-1.68-.18-.42-.38-.82-.56-1.23-.2-.45-.38-.93-.54-1.43-.16-.5-.3-1.02-.43-1.54s-.26-1.05-.38-1.57c-.13-.52-.25-1.03-.39-1.51-.15-.53-.29-1.06-.44-1.6-.14-.54-.28-1.08-.41-1.63-.13-.55-.25-1.1-.36-1.66-.11-.56-.21-1.12-.29-1.69-.08-.57-.15-1.14-.19-1.72-.05-.58-.07-1.16-.08-1.75,0-.41-.01-.83.01-1.26.03-.46.06-.92.08-1.38.02-.46.02-.91,0-1.37-.03-.6-.07-1.19-.12-1.79-.05-.59-.11-1.18-.19-1.76-.08-.58-.17-1.16-.28-1.73-.11-.57-.23-1.13-.37-1.69-.14-.55-.3-1.1-.48-1.63-.17-.52-.37-1.01-.54-1.53-.18-.55-.34-1.11-.48-1.68s-.26-1.16-.36-1.75c-.1-.6-.17-1.2-.23-1.82-.05-.61-.05-1.23-.04-1.86,0-.62.02-1.25-.02-1.86-.03-.42-.05-.88-.16-1.25-.15-.53-.59-.75-.52.13.04.48.09.96.12,1.45.03.49.05.97.03,1.47.03.55.03,1.12,0,1.69-.02.57-.06,1.15-.12,1.72-.06.58-.13,1.16-.22,1.74-.09.58-.18,1.16-.28,1.73s-.21,1.14-.32,1.7c0,.03,0,.05-.01.08-.09.56-.19,1.13-.31,1.7s-.23,1.14-.36,1.72c-.13.57-.26,1.15-.4,1.73-.14.58-.28,1.15-.42,1.72-.14.57-.29,1.14-.43,1.71-.14.57-.28,1.13-.42,1.68-.11.44-.23.87-.36,1.3-.13.43-.25.86-.38,1.3-.13.43-.25.86-.37,1.3-.12.43-.23.86-.34,1.28-.11.43-.22.86-.32,1.29-.11.43-.22.86-.33,1.28-.13.5-.25,1.01-.38,1.51-.12.5-.24,1.01-.36,1.52-.12.51-.24,1.01-.36,1.51s-.25,1-.39,1.5c-.14.5-.29,1-.45,1.49-.14.41-.28.84-.41,1.26-.13.43-.26.85-.38,1.28-.12.43-.23.85-.32,1.26-.07.32-.14.63-.2.95s-.12.64-.16.96c-.07.51-.14,1.02-.2,1.53-.06.51-.11,1.03-.14,1.54-.03.51-.06,1.02-.06,1.53,0,.51.01,1.01.05,1.51.05.64.13,1.27.2,1.91.06.5.12.99.18,1.49.06.49.13.98.21,1.47.08.48.17.97.27,1.44.1.47.22.95.36,1.41.18.61.37,1.23.59,1.83.19.52.38,1.05.56,1.57.18.53.37,1.05.55,1.58.18.53.36,1.06.54,1.58,0-.02-.02-.07-.02-.07,0,0,.24.69.35,1.03.17.5.36.99.57,1.46.21.47.44.92.69,1.36.25.44.5.87.77,1.28.27.42.55.83.83,1.23.28.4.56.81.84,1.22.28.41.55.83.82,1.24.27.42.53.84.8,1.26.26.42.52.84.78,1.26.3.49.64.94,1,1.35.36.42.74.81,1.11,1.2.38.39.76.78,1.12,1.18.36.41.71.84,1.02,1.31.3.45.57.91.77,1.41.2.5.32,1.04.32,1.67,0,.54-.04,1.09-.1,1.65-.06.55-.14,1.11-.22,1.66-.08.55-.15,1.11-.2,1.65-.05.57-.09,1.15-.12,1.72-.03.57-.04,1.15-.04,1.72,0,.57.03,1.14.07,1.71.02.32.06.65.11.97.05.32.1.64.17.95.11.56.22,1.12.33,1.68.11.56.24,1.11.37,1.66.15.62.31,1.23.48,1.83.16.6.33,1.2.49,1.79.16.59.33,1.18.48,1.78.15.59.3,1.19.43,1.8.13.6.25,1.22.35,1.84.1.63.18,1.27.24,1.92.04.42.08.85.11,1.28-.28-.45-.57-.9-.87-1.33-.3-.44-.61-.86-.93-1.27-.32-.41-.65-.81-1-1.19-.35-.38-.69-.76-1.04-1.15-.34-.38-.68-.78-1.01-1.18-.33-.41-.64-.83-.93-1.28-.28-.44-.56-.89-.83-1.34-.27-.45-.55-.9-.83-1.35-.28-.44-.89-1.28-.89-1.28,0,0,.04.06.07.09-.37-.49-.75-1-1.12-1.52-.37-.52-.71-1.07-.99-1.65-.14-.29-.23-.63-.32-.98-.09-.35-.16-.7-.27-1.01-.18-.54-.37-1.08-.57-1.6-.23-.59-.47-1.18-.72-1.76-.24-.59-.49-1.17-.74-1.75-.25-.58-.5-1.16-.76-1.74-.13-.3-.26-.6-.39-.9-.13-.3-.26-.6-.39-.9-.2-.44-.38-.89-.57-1.34-.19-.45-.38-.89-.57-1.34-.19-.44-.38-.89-.58-1.32-.2-.44-.41-.87-.63-1.3-.15-.29-.3-.59-.46-.88-.16-.29-.32-.57-.49-.85-.17-.27-.34-.55-.52-.82-.28-.42-.58-.81-.91-1.16-.33-.35-.68-.67-1.06-.94-.24-.17-.48-.35-.72-.5-.25-.16-.51-.3-.77-.44-.5-.27-1.02-.51-1.55-.7-.53-.2-1.07-.36-1.61-.51-.54-.14-1.1-.27-1.65-.37-.55-.11-1.11-.19-1.66-.25-.56-.06-1.12-.11-1.68-.14-.56-.03-1.13-.04-1.7-.05-.57,0-1.13,0-1.7.03-.57.02-1.14.05-1.7.08-.44.03-.88.07-1.33.1-.44.04-.88.07-1.33.08-.44.01-.88.01-1.32-.02-.43-.03-.87-.1-1.3-.18-.43-.08-.86-.18-1.29-.28-.42-.1-.85-.21-1.26-.31-.5-.12-.99-.26-1.5-.33-.54-.07-1.08-.09-1.62-.07-.54.02-1.08.08-1.62.15-.54.07-1.08.14-1.63.2-.54.06-1.09.09-1.63.08-.6-.01-1.2-.06-1.79-.15-.59-.08-1.18-.2-1.76-.33-.58-.14-1.16-.3-1.73-.48-.5-.16-1-.32-1.51-.41-.38-.07-1.51-.2-1.51.62,0,.35.28.68.67.98.39.29.89.55,1.34.76.45.21.85.37,1.04.47.41.21.81.46,1.21.71.4.26.79.52,1.18.78.39.26.79.52,1.19.75.22.13.46.24.69.35.49.24.99.47,1.48.71s.98.49,1.46.77c.48.28.95.58,1.4.93.45.35.91.71,1.35,1.07.43.36.83.77,1.22,1.2.39.43.75.89,1.11,1.36.35.48.69.97,1.02,1.47.33.5.65,1.01.96,1.52.22.36.44.73.66,1.1.22.37.43.75.63,1.13.2.38.4.78.58,1.18.21.45.41.91.61,1.36s.4.91.61,1.36c.21.45.42.89.64,1.33.22.44.46.86.71,1.28.34.55.71,1.09,1.1,1.59.39.51.81.99,1.25,1.44.44.45.89.88,1.36,1.27.47.39.95.75,1.43,1.08.48.32.98.63,1.49.9.51.27,1.04.52,1.57.73.53.21,1.08.39,1.63.52.55.14,1.1.23,1.66.28.57.05,1.13.06,1.7.03.57-.03,1.13-.09,1.7-.17.57-.08,1.13-.18,1.7-.29.57-.11,1.13-.22,1.7-.33.55-.1,1.11-.23,1.66-.39.5-.14.99-.32,1.48-.51.49-.19.98-.39,1.47-.59.49-.2.98-.39,1.47-.56.49-.17.99-.32,1.5-.43.6-.13,1.06-.31,1.58.09.34.27.66.62.95,1.02.3.4.57.84.84,1.28.26.44.52.88.76,1.27.29.46.57.92.86,1.37.29.46.58.91.88,1.35.3.44.6.88.92,1.31.18.24.36.49.55.72.29.35.59.7.88,1.05.29.35.59.69.87,1.05.29.36.56.72.83,1.11.32.46.64.92.94,1.4.3.49.66,1,.9,1.55.2.49.23,1.05.39,1.56.15.5.34.98.53,1.46.19.5.39.99.57,1.49s.33,1.02.43,1.57c.11.61.21,1.22.3,1.84.09.62.17,1.24.25,1.86.07.62.14,1.25.19,1.88.05.63.1,1.26.13,1.89.03.63.06,1.26.08,1.9.02.63.02,1.27.02,1.9,0,.63-.01,1.27-.03,1.9-.02.63-.05,1.26-.09,1.9-.04.63-.08,1.26-.14,1.89-.04.42-.07.84-.11,1.25-.04.42-.07.84-.12,1.25-.07.63-.17,1.24-.28,1.85-.11.61-.24,1.21-.37,1.81-.14.6-.29,1.2-.44,1.79-.15.59-.31,1.19-.47,1.78-.16.59-.32,1.19-.48,1.78-.16.6-.31,1.2-.46,1.8-.14.59-.27,1.18-.4,1.77-.13.59-.25,1.19-.37,1.79-.12.6-.23,1.2-.34,1.8-.11.6-.21,1.2-.31,1.81-.1.6-.19,1.21-.29,1.81-.09.6-.18,1.21-.26,1.81-.08.6-.17,1.21-.25,1.81-.08.6-.16,1.2-.23,1.8-.06.49-.13.98-.19,1.46-.07.49-.13.97-.2,1.46-.07.49-.13.97-.19,1.46-.06.49-.12.98-.17,1.47-.06.62-.12,1.23-.17,1.85-.05.62-.1,1.24-.14,1.85s-.08,1.24-.12,1.86c-.04.62-.07,1.24-.1,1.86-.03.62-.07,1.24-.1,1.86-.04.62-.07,1.24-.12,1.86-.04.62-.09,1.24-.14,1.86-.05.62-.11,1.24-.17,1.85-.06.55-.11,1.1-.16,1.65-.05.55-.1,1.1-.14,1.65-.04.55-.08,1.1-.12,1.64-.03.55-.06,1.1-.08,1.65-.02.55-.04,1.1-.04,1.65s0,1.1,0,1.65c.01.55.03,1.11.07,1.66.03.5.06,1,.09,1.5.03.5.06,1,.1,1.49.05.65.11,1.3.19,1.94s.16,1.28.26,1.91c.1.63.21,1.27.32,1.89.12.63.24,1.25.37,1.87.13.62.27,1.24.42,1.86.15.62.3,1.23.45,1.85s.31,1.23.47,1.84c.16.61.32,1.22.49,1.84.16.61.33,1.22.49,1.84.16.61.33,1.22.49,1.84.16.61.32,1.23.48,1.85.16.62.31,1.23.45,1.86.11.48.23.96.33,1.45.11.48.22.97.32,1.45.1.49.21.97.3,1.46.1.49.19.98.28,1.46.12.62.26,1.25.38,1.88.12.63.25,1.25.37,1.88.12.63.24,1.26.36,1.88.12.63.24,1.26.36,1.88.12.63.24,1.26.36,1.88.12.63.24,1.25.37,1.88.12.6.24,1.19.37,1.79.12.6.25,1.19.38,1.79.13.59.26,1.19.39,1.78.13.59.27,1.19.4,1.78.14.59.27,1.19.41,1.78.14.59.27,1.18.41,1.78.14.59.27,1.18.41,1.78.14.59.27,1.18.41,1.78.14.61.27,1.22.4,1.83.13.61.25,1.22.37,1.83.12.61.24,1.22.35,1.83.11.61.23,1.22.34,1.83.11.61.22,1.22.33,1.83.11.61.22,1.22.34,1.83.11.61.23,1.22.35,1.83.12.61.24,1.22.37,1.83.12.59.25,1.18.39,1.77.14.59.29,1.18.44,1.76.15.59.31,1.17.47,1.76.16.58.33,1.17.49,1.75.16.58.33,1.16.49,1.74.16.59.32,1.19.48,1.79.16.6.31,1.19.47,1.79.16.6.32,1.19.48,1.79.14.52.27,1.05.38,1.57.11.52.21,1.05.3,1.57.09.53.18,1.05.28,1.58.09.53.19,1.06.29,1.59.11.59.23,1.18.35,1.77.13.59.26,1.18.4,1.77.14.59.29,1.18.44,1.77.15.59.31,1.17.46,1.76.16.59.31,1.17.47,1.75.16.58.31,1.17.46,1.75.14.53.27,1.05.4,1.58.13.53.26,1.06.4,1.59.13.53.27,1.06.41,1.59.14.53.28,1.06.43,1.58.15.53.3,1.05.46,1.57.16.52.33,1.04.51,1.55.19.55.39,1.1.58,1.65.19.55.38,1.1.57,1.66.19.55.37,1.11.55,1.67.18.56.35,1.12.51,1.68.16.56.31,1.13.45,1.7.14.57.27,1.14.38,1.71.11.57.21,1.16.29,1.73.05.37.09.73.13,1.1.05.49.1.99.16,1.48.06.49.12.99.2,1.48.1.61.21,1.22.34,1.82.13.6.27,1.2.43,1.8.15.6.32,1.19.49,1.79.17.59.35,1.19.54,1.78.19.59.38,1.18.57,1.77.19.59.39,1.18.58,1.76.19.59.38,1.18.57,1.76.19.59.37,1.18.55,1.77.14.47.27.94.41,1.4.14.47.27.94.41,1.4.17.57.34,1.15.51,1.72.17.57.34,1.15.52,1.72.17.57.35,1.15.52,1.72.17.57.35,1.15.52,1.72.17.57.35,1.15.52,1.72.17.57.35,1.15.52,1.72.17.57.35,1.15.52,1.72.17.57.35,1.15.52,1.72.17.57.35,1.15.52,1.72.17.57.35,1.15.52,1.72.17.57.34,1.15.52,1.72.17.57.34,1.15.51,1.72.17.58.34,1.15.51,1.73.14.47.28.93.41,1.4.14.47.28.93.42,1.4.14.47.29.93.44,1.39.15.46.31.92.48,1.38.17.46.34.91.52,1.36.18.45.37.9.57,1.34.25.56.54,1.1.83,1.64.29.53.6,1.05.9,1.58.3.53.6,1.06.88,1.6.25.53.48,1.07.69,1.62.21.55.41,1.1.6,1.65-.12-.25-.23-.5-.35-.75-.24-.47-.49-.93-.76-1.37-.27-.45-.55-.89-.83-1.33-.29-.45-.58-.9-.87-1.34-.29-.44-.59-.88-.89-1.32-.3-.44-.6-.87-.9-1.31-.3-.44-.6-.88-.91-1.32-.31-.45-.61-.91-.9-1.38-.29-.47-.57-.95-.8-1.45-.2-.42-.38-.86-.57-1.29-.19-.43-.37-.86-.52-1.31-.17-.5-.35-1-.55-1.49-.2-.49-.42-.97-.66-1.44-.29-.57-.62-1.11-.96-1.64-.34-.53-.71-1.03-1.09-1.53-.38-.49-.77-.97-1.17-1.44-.4-.47-.8-.93-1.2-1.37-.4-.45-.8-.89-1.2-1.34-.39-.45-.77-.91-1.13-1.39-.36-.48-.69-.98-.99-1.51-.3-.53-.56-1.1-.77-1.72-.2-.59-.47-1.16-.78-1.72-.3-.56-.64-1.1-.96-1.62-.17-.27-.34-.54-.51-.82-.33-.55-.65-1.1-.99-1.65-.33-.55-.67-1.09-1-1.64s-.67-1.09-1.01-1.63c-.34-.54-.68-1.09-1.02-1.63-.34-.54-.68-1.09-1.01-1.63-.34-.54-.67-1.09-1.01-1.63-.25-.42-.51-.83-.75-1.25-.25-.42-.5-.84-.74-1.26-.24-.42-.48-.85-.71-1.28-.23-.43-.46-.87-.68-1.31-.21-.43-.43-.86-.65-1.29-.22-.43-.44-.86-.66-1.29-.22-.43-.44-.86-.65-1.29-.21-.43-.42-.87-.61-1.31-.26-.58-.51-1.17-.74-1.76-.19-.49-.35-1-.49-1.52-.15-.52-.28-1.04-.41-1.57s-.26-1.05-.41-1.55c-.09-.32-.19-.64-.28-.97-.1-.32-.19-.64-.27-.97-.13-.49-.26-.99-.41-1.48-.14-.49-.29-.98-.45-1.46-.16-.49-.32-.97-.5-1.45-.17-.48-.35-.95-.54-1.42-.17-.41-.36-.8-.54-1.19-.18-.39-.35-.77-.48-1.18-.13-.41-.21-.83-.21-1.31,0-.55.12-1.1.13-1.67,0-.51.01-1.02.02-1.52,0-.51.01-1.02.02-1.52,0-.51.01-1.02.02-1.53,0-.52,0-1.05.01-1.57,0-.52,0-1.05,0-1.57,0-.52,0-1.05,0-1.57,0-.52,0-1.05-.01-1.57,0-.52-.02-1.05-.03-1.57-.01-.43-.02-.87-.04-1.3-.02-.43-.04-.87-.06-1.3-.02-.43-.05-.87-.07-1.3-.04-.64-.08-1.27-.13-1.91-.05-.64-.11-1.27-.18-1.91-.05-.43-.1-.86-.15-1.29-.05-.43-.11-.86-.17-1.29s-.12-.86-.18-1.29c-.09-.63-.18-1.26-.28-1.88-.1-.63-.21-1.25-.34-1.88-.09-.42-.18-.84-.28-1.26-.1-.42-.22-.84-.35-1.25-.13-.41-.27-.82-.42-1.22-.23-.58-.48-1.15-.76-1.7-.28-.55-.58-1.08-.92-1.58-.35-.53-.72-1.03-1.09-1.53-.38-.49-.77-.97-1.17-1.44-.4-.47-.81-.93-1.22-1.38-.41-.45-.83-.9-1.25-1.34-.4-.43-.81-.85-1.21-1.27-.4-.43-.8-.85-1.2-1.29-.4-.44-.8-.89-1.2-1.34-.39-.45-.79-.92-1.17-1.39-.35-.44-.69-.91-1.03-1.37-.34-.46-.67-.93-1.01-1.4-.33-.47-.66-.95-.99-1.42-.32-.47-.64-.95-.95-1.44-.31-.49-.62-.98-.92-1.47-.3-.49-.6-.99-.9-1.49-.33-.55-.65-1.1-.97-1.65-.32-.56-.63-1.12-.94-1.68-.3-.54-.59-1.08-.89-1.62-.29-.54-.58-1.09-.87-1.64-.23-.46-.47-.92-.69-1.38-.23-.46-.45-.93-.68-1.4-.22-.47-.44-.94-.66-1.41-.22-.47-.43-.95-.64-1.42-.21-.48-.42-.95-.63-1.43-.13-.3-.26-.6-.38-.9-.13-.3-.25-.6-.38-.9-.24-.58-.48-1.17-.71-1.76-.23-.59-.46-1.18-.68-1.77-.15-.41-.31-.81-.46-1.22-.15-.41-.31-.82-.46-1.22s-.3-.82-.45-1.23c-.15-.42-.3-.84-.44-1.27-.15-.42-.29-.85-.43-1.27-.14-.43-.29-.85-.43-1.27-.14-.43-.28-.85-.43-1.28-.14-.43-.28-.86-.42-1.29s-.27-.86-.4-1.3c-.16-.51-.31-1.02-.46-1.53s-.31-1.02-.46-1.53c-.15-.51-.3-1.02-.45-1.53-.15-.51-.3-1.02-.45-1.54-.15-.51-.3-1.03-.44-1.54-.17-.61-.35-1.22-.53-1.83-.18-.61-.36-1.22-.54-1.83-.13-.44-.25-.87-.38-1.3-.13-.43-.26-.87-.39-1.3-.13-.43-.27-.86-.4-1.29-.14-.43-.28-.87-.42-1.3-.14-.43-.28-.87-.43-1.3-.14-.43-.29-.86-.44-1.29-.15-.43-.3-.86-.45-1.29-.15-.43-.31-.86-.46-1.28-.16-.42-.32-.85-.49-1.26-.22-.54-.44-1.07-.66-1.6-.22-.53-.44-1.05-.66-1.58-.22-.52-.43-1.05-.64-1.58-.21-.53-.41-1.06-.61-1.6-.19-.54-.38-1.09-.55-1.65-.17-.56-.33-1.13-.47-1.72-.11-.43-.29-.73-.65-.73-.06,0-.11,0-.16.03-.35.13-.5.51-.53,1.01-.02.51.08,1.14.23,1.79.16.65.37,1.31.55,1.87.19.56.36,1.02.43,1.26.15.51.3,1.03.44,1.56.14.53.28,1.06.41,1.59.13.53.26,1.07.38,1.61.12.54.23,1.08.33,1.62.1.54.2,1.08.29,1.62.09.54.16,1.08.23,1.62.07.58.15,1.16.21,1.74.06.58.12,1.16.15,1.74.04.59.07,1.18.1,1.77.03.59.05,1.18.06,1.77.02.59.03,1.18.03,1.77,0,.59.01,1.18.01,1.77,0,.59,0,1.18,0,1.77,0,.59,0,1.18,0,1.77,0,.59,0,1.18,0,1.77,0,.54,0,1.09,0,1.63,0,.54,0,1.09.02,1.64,0,.55.02,1.09.03,1.64.01.55.02,1.09.04,1.64.01.55.03,1.09.05,1.64.02.54.03,1.08.05,1.62.02.54.03,1.08.05,1.62.02.54.04,1.08.06,1.62.02.54.04,1.08.07,1.62.03.54.05,1.08.09,1.62.03.53.07,1.07.11,1.6s.08,1.07.12,1.6c.04.53.09,1.07.13,1.6.04.53.09,1.07.13,1.6.04.53.08,1.07.12,1.6.04.55.08,1.11.12,1.66.04.55.08,1.11.12,1.66.04.55.08,1.11.12,1.66.04.55.08,1.11.12,1.66.04.55.08,1.11.11,1.66.03.43.06.86.08,1.29.02.43.05.86.07,1.29.02.43.05.86.08,1.29.03.47.06.94.1,1.4.03.47.07.93.1,1.4.03.47.07.93.11,1.4.04.47.07.94.11,1.41.04.47.08.94.12,1.41.04.47.09.94.14,1.41.06.58.14,1.15.23,1.73.09.57.19,1.15.31,1.72.12.57.25,1.13.4,1.69.15.56.31,1.11.49,1.65.18.54.38,1.08.6,1.6.22.52.45,1.04.71,1.54.15.3.3.59.46.89.15.29.31.59.47.87.21.38.43.76.65,1.14.22.38.44.76.66,1.13.22.38.44.75.66,1.13.22.37.43.75.65,1.13.22.38.43.75.65,1.13.22.37.44.75.66,1.12.29.48.58.96.88,1.44s.6.95.9,1.42c.3.47.61.94.93,1.4.31.46.63.92.95,1.38.32.45.64.9.97,1.35.33.44.66.88.99,1.32.33.43.67.86,1.01,1.29.39.48.79.95,1.19,1.4.41.45.83.89,1.25,1.31.43.43.87.85,1.31,1.27.44.42.89.83,1.34,1.24.45.41.9.81,1.36,1.2.46.39.92.78,1.38,1.16.47.38.93.74,1.41,1.1.47.36.95.7,1.43,1.04.43.3.86.58,1.29.85.44.27.87.53,1.31.78.44.25.88.5,1.32.76.44.25.88.51,1.32.77.45.27.89.54,1.34.82.45.28.89.55,1.34.83.45.28.89.56,1.34.83.45.28.89.55,1.34.83.37.22.77.35,1.12.65.38.32.7.73.99,1.19.29.46.54.96.75,1.48.22.52.4,1.04.57,1.54.17.52.33,1.05.49,1.58.16.53.31,1.06.46,1.59s.3,1.06.45,1.59c.15.53.31,1.06.47,1.59.1.33.2.65.3.98.1.33.19.66.29.98.16.56.35,1.12.55,1.66.2.55.42,1.08.65,1.62.23.53.47,1.06.73,1.58.25.52.52,1.04.79,1.55.27.51.55,1.02.82,1.53.28.51.56,1.01.84,1.51.28.5.56,1,.84,1.5.28.5.55,1,.82,1.5.29.55.62,1.08.93,1.61.26.45.53.9.79,1.35.26.45.53.9.8,1.35.27.45.53.89.8,1.34.27.45.54.89.81,1.33.27.44.54.89.82,1.33.33.53.66,1.05.99,1.57.33.52.65,1.04.97,1.57.32.53.63,1.06.92,1.61.3.55.58,1.1.84,1.68.08.21.16.43.22.66-.15-.16-.29-.31-.44-.46-.43-.45-.88-.88-1.33-1.31-.45-.42-.92-.83-1.39-1.21-.47-.39-.95-.76-1.43-1.11s-.98-.68-1.48-.98c-.5-.3-1-.58-1.5-.85-.55-.3-1.09-.59-1.64-.88-.55-.29-1.1-.58-1.64-.88-.55-.3-1.09-.61-1.63-.93-.51-.31-1-.64-1.5-.97-.44-.29-.87-.6-1.3-.91-.42-.32-.84-.65-1.25-.99-.41-.34-.81-.69-1.22-1.05-.4-.36-.8-.73-1.2-1.1-.41-.39-.82-.76-1.21-1.13-.4-.37-.78-.74-1.16-1.13-.38-.38-.75-.78-1.11-1.21-.36-.43-.71-.88-1.05-1.38-.28-.42-.57-.83-.85-1.24-.28-.41-.57-.82-.86-1.23-.29-.41-.58-.81-.87-1.22-.29-.41-.58-.82-.86-1.24-.29-.42-.57-.86-.84-1.29-.28-.43-.55-.87-.83-1.31-.27-.42-.54-.83-.82-1.24-.28-.41-.56-.81-.84-1.22-.29-.42-.57-.83-.87-1.25-.29-.41-.58-.82-.88-1.23-.3-.4-.6-.8-.91-1.19-.31-.39-.63-.77-.95-1.14-.34-.39-.7-.78-1.05-1.16-.36-.37-.72-.74-1.1-1.08-.43-.39-.86-.76-1.3-1.12-.44-.36-.89-.7-1.34-1.03-.45-.33-.91-.64-1.38-.94-.46-.3-.93-.59-1.41-.86s-.95-.53-1.43-.77c-.49-.25-.98-.48-1.47-.71-.49-.23-.99-.44-1.49-.65-.5-.21-1-.41-1.5-.59-.5-.19-1.01-.37-1.51-.54-.5-.17-1.01-.33-1.51-.48-.41-.12-.82-.23-1.23-.3-.41-.07-.82-.12-1.24-.13-.44-.01-.87,0-1.3,0-.43.02-.86.05-1.3.09-.61.01-1.23.05-1.85.1-.62.05-1.23.12-1.85.2-.62.08-1.23.17-1.84.26-.61.09-1.22.19-1.82.28-.55.08-1.1.16-1.65.26-.55.09-1.09.19-1.64.32-.54.12-1.08.27-1.61.44-.58.19-1.15.39-1.73.6-.57.2-1.15.41-1.72.61-.58.2-1.15.39-1.74.56-.58.17-1.17.32-1.77.44-.4.08-.79.17-1.19.21-.61.06-1.22.06-1.84.05-.62-.02-1.24-.05-1.85-.07-.62-.02-1.23-.02-1.85.03-.64.05-1.27.14-1.89.25-.63.11-1.25.24-1.87.37-.62.13-1.24.27-1.87.39-.62.12-1.25.23-1.88.31-.63.08-1.27.13-1.92.14-.32,0-.65,0-.97,0-.32,0-.65,0-.97-.01-.58,0-1.15-.01-1.73,0-.58,0-1.15.03-1.72.06-.24.02-.88-.02-1.47.04-.59.05-1.15.19-1.22.55,0,.02,0,.03,0,.05-.03.21.06.46.18.63ZM36.2,114.79s-.01,0-.02.01c0,0,0,0,0,0,0,0,.01,0,.02,0Z"/>
  <path class="cls-2" d="M283.55,182.49c3.07.48,5.23,1.94,6.75,4.38.48.77,1.05,1.46,1.23,2.42.14.8,1.59.86,2.18.13.19-.24.4-.54.44-.83.26-2.02.09-3.91-.9-5.81-1.39-2.67-3.59-4.26-6.18-5.49-.64-.3-.99-.89-1.46-1.36-1.86-1.85-4-3.48-5.39-5.73-1.1-1.78-2.33-3.44-3.71-4.98-2.51-2.79-5.52-4.93-8.87-6.59-.22-.11-.46-.26-.69-.26-1.58.02-2.99-.51-4.39-1.17-1.54-.72-2.83.42-4.22.78-.24.06-.47.16-.68.28-.59.33-.96.28-1.36-.38-1.73-2.82-4.35-4.71-7.02-6.53-.48-.33-.8-.6-.23-1.13.18-.16.4-.41.39-.61-.06-1.2,1.07-2.03.98-3.25-.03-.37.23-.76.2-1.13-.1-1.31.46-2.28,1.52-2.93,2.09-1.3,3.91-2.94,5.87-4.41,2.29-1.72,4.92-2.94,7.66-3.61,1.59-.39,3.32-1.14,5.09-.47.57.21,1.14.43,1.48.96.61.96,1.56,1.28,2.59,1.39,1.92.2,3.77.01,5.55-.86,1.25-.62,2.99.16,3.55,1.43.35.8-.08,1.34-.66,1.7-1.86,1.15-2.69,2.91-3.02,4.95-.15.91.09,1.82.29,2.69.77,3.43.94,6.96,1.99,10.33.34,1.11.7,2.21,1.05,3.31.51,1.6,1.14,3.14,1.43,4.83.46,2.71,2.57,4.23,4.71,5.66.88.59,1.8,1.09,2.74,1.57.13.06.25.16.38.18.16.03.34-.01.51-.02-.28-1.36,1.68-.39,1.6-1.52-.02-.25-.14-.57.18-.61.35-.05.4.35.46.6.25,1.01.82,1.76,1.64,2.38.35.27.74.38,1.13.53.59.22.75-.03.77-.59.05-1.19.63-2.05,1.58-2.79.88-.68,1.87-1.16,2.3-2.51.32-1,.99-2.02,1.27-3.09.54-2.11.73-4.28.33-6.45-.27-1.44-.31-2.93-.89-4.32-.73-1.76-1.87-3.3-2.91-4.85-1.07-1.6-1.56-3.37-2.29-5.06-1.16-2.66-2.4-5.09-5.52-6.08-1.66-.53-3.24-1.03-4.98-.83-.49.06-.69-.25-.87-.61-.44-.93-1.01-1.76-1.88-2.37-.43-.3-.51-.63.02-.97,1.52-.97,2.45-2.37,3.36-3.92.69-1.18,1.92-2.13,3.21-2.83,2.54-1.39,3.75-3.7,3.98-6.42.19-2.22,1.12-4.29,1.1-6.54-.02-1.45-.68-2.71-.92-4.09-.04-.25-.28-.41-.57-.38-.39.03-.48.32-.59.64-.48,1.39-.71,2.89-1.62,4.1-1.25,1.67-2.23,3.55-3.82,4.96-.33.29-.72.51-1.11.58-2.22.39-3.97,1.67-5.71,2.96-.37.28-.74.34-1.18.33-2.07-.05-3.98.25-5.54,1.89-.62.65-1.7.85-2.46,1.41-1.34.98-2.12,2.4-2.65,3.96-.2.58-.53.91-1.17,1.04-1.48.3-2.94.66-4.46.75-1.3.07-2.41.75-3.6,1.17-1.29.45-2.47,1.19-3.76,1.64-2.9,1-5.16,2.96-7.54,4.76-.1.08-.22.14-.35.21-.41-1.84-.44-3.65-.24-5.48.03-.31.04-.64.15-.93,1.31-3.4.77-6.77-.16-10.13-.27-.98-.38-2.01-.49-3-.21-1.97-1.49-3.13-2.78-4.31-.55-.5-.99-1.11-1.57-1.56-.42-.33-.95-.67-1.4-.14-.4.48-.07.86.34,1.24.78.72.86,1.74.95,2.72.27,3.02-.18,5.93-.95,8.86-.73,2.78-2.05,5.29-3.16,7.9-.34.79-.93,1.41-1.43,2.08-1.23,1.62-1.62,3.51-2.07,5.44-.6,2.55-.61,5.17-1.26,7.68-.46,1.77-1.59,3.05-3.38,3.76-1.49.59-2.87,1.49-4.36,2.1-3.36,1.38-6.02,3.88-9.17,5.58-2.13,1.14-3.77,2.94-5.88,4.08-.47.26-.93.51-.84-.33.23-2.29-.53-4.28-1.71-6.15-.66-1.04-1.37-2.09-1.87-3.17-1.3-2.82-2.74-5.63-2.99-8.81-.07-.91-.4-1.72-.75-2.51-1.36-3.1-3.05-5.99-5.58-8.33-1.14-1.06-2.52-1.81-3.92-2.21-2.61-.75-4.36-2.5-5.85-4.53-1.07-1.44-2.3-2.5-3.94-3.16-.7-.28-.62.24-.6.58.03.8.44,1.5.86,2.13,1.88,2.85,3.63,5.79,6.08,8.22.95.94,1.95,1.83,2.87,2.8,2.63,2.78,4.3,6.06,4.8,9.86.21,1.64.7,3.23.87,4.86.22,2.13-.24,4.25-.59,6.36-.58,3.5-1.62,6.91-1.83,10.47-.09,1.5-.65,2.95-.67,4.48,0,.7-.08,1.4.05,2.11.24,1.35-.37,2.46-1.2,3.47-1.78,2.15-3.82,4.04-5.92,5.87-1.93,1.67-4.02,3.14-5.93,4.85-2.9,2.6-5.87,5.12-8.91,7.56-2.41,1.94-4.28,4.35-6.39,6.57-.9.95-1.63,2.02-2.43,3.05-.16.21-.35.55-.66.4-.16-.08-.24-.41-.29-.64-.47-2-1.55-3.59-2.96-5.1-1.63-1.74-3.72-3.02-5.04-5.07-1.12-1.74-1.59-3.74-2.44-5.59-1.77-3.84-3.61-7.68-7.22-10.18-1.75-1.21-3.38-2.51-4.81-4.08-.93-1.02-1.59-2.23-2.43-3.31-1.46-1.88-3.38-3.13-5.36-4.35-.71-.44-1.51-.74-2.19-1.22-.55-.4-1.06.03-1.62-.12-2.34-.65-4.53-1.58-6.56-2.92-2-1.33-4.14-2.24-6.59-2.25-.58,0-1.12-.15-1.62-.41-2.46-1.32-5.12-2.05-7.82-2.65-1.09-.24-2.18-.16-3.1.63-.37.32-.87.66-.75,1.19.14.58.8.78,1.27.8,3.18.16,5.54,1.95,7.89,3.8,1.96,1.55,3.35,3.55,4.73,5.59,1.71,2.53,3.28,5.19,5.26,7.5,1.95,2.28,3.95,4.58,6.32,6.5,2.45,1.99,4.47,4.4,6.35,6.89,1.14,1.52,1.8,3.4,2.62,5.15,1.22,2.61,2.42,5.25,2.69,8.17.19,2.06.43,4.12.47,6.19.04,2.1.96,3.94,1.47,5.9.59,2.27,1.36,4.49,2.28,6.66.65,1.54.42,3.26.65,4.89.13.93.13,1.89.22,2.83.05.51-.05.78-.64.83-1.51.14-2.96.61-4.43.88-1.49.27-3.07-.03-4.62-.03-2.57,0-4.65,1.02-6.29,3.02-1.33,1.62-2.01,3.65-3.34,5.25-1.26,1.52-2.33,3.18-3.61,4.68-1.09,1.27-1.86,2.79-2.93,4.11-.99,1.21-2.18,2.18-3.25,3.28-1.94,2-3.99,3.96-5.42,6.42-.72,1.25-1.53,2.44-2.21,3.71-.49.91-.84.64-1.37.05-3.3-3.77-6.98-7.14-11-10.14-.93-.69-1.99-1.12-3.06-1.56-3.09-1.28-6.44-1.54-9.6-2.49-2.03-.61-4.03-1.5-6.1-1.84-1.48-.24-3.03-.63-4.59-.46-.29.03-.54-.07-.81-.13-1.87-.43-3.76-.25-5.62-.05-.98.11-1.07.64-.32,1.34,1.17,1.09,2.66,1.64,4.11,2.27,1.75.76,3.86.62,5.36,1.91,2.18,1.87,4.56,3.48,6.55,5.58,1.59,1.68,3.31,3.28,5.15,4.68,3.65,2.76,5.88,6.41,7.4,10.64.85,2.37,1.84,4.7,2.93,6.99.92,1.93,1.44,4.04,2.22,6.01,1.4,3.55,2.56,7.23,4.52,10.56,1.94,3.31,4.16,6.36,7.33,8.61.43.31.42.56.21.96-1.63,3.06-2.57,6.34-3.35,9.71-.52,2.25-1.7,4.21-3.57,5.8-1.76,1.5-3.54,3.09-4.3,5.44-.22.69-.2,1.39-.25,2.09-.02.24-.05.53.26.62.36.11.48-.2.65-.42.44-.57.62-1.26,1.09-1.87,1.05-1.36,2.83-1.77,3.78-3.21.52-.79,1.47-.86,2.29-.91,3.66-.21,6.13-2.23,7.98-5.17,1.26-2.01,2.86-3.64,4.81-4.97.26-.17.48-.48.82-.16,1.09,1.06,2.37,2,2.95,3.45.73,1.81,1.52,3.62,1.68,5.62.11,1.4.06,2.77.01,4.17-.14,4.71-.47,9.42-.31,14.14.09,2.48,0,4.99.07,7.48.1,3.19.08,6.39.21,9.58.1,2.53.42,5.04.31,7.58-.06,1.46.33,2.93.4,4.4.23,4.6,1.06,9.13,1.46,13.71.11,1.34.6,2.6.69,3.94.25,3.76,1.45,7.33,2.12,11.01.52,2.86.88,5.74,1.46,8.58.42,2.06,1.06,4.08,1.47,6.13.33,1.68.93,3.28,1.26,4.96.42,2.16,1.09,4.27,1.65,6.4.47,1.8.81,3.63,1.26,5.43.45,1.83,1.21,3.59,1.65,5.44.76,3.18,1.92,6.24,2.64,9.43.18.8.3,1.76,1.21,2.22.07.04.15.2.12.27-.43,1.36.35,2.5.81,3.63,1.43,3.45,2.38,7.07,3.91,10.48.6,1.33.62,1.34,1.72.4,1.28-1.1,2.6-2.17,3.88-3.27.89-.76,1.17-1.65.72-2.81-1.34-3.43-2.69-6.85-3.9-10.32-.91-2.62-1.54-5.33-2.46-7.95-1.38-3.95-2.32-8.03-3.37-12.07-.5-1.93-1.19-3.82-1.64-5.77-1.2-5.23-2.96-10.33-3.94-15.61-.52-2.83-1.05-5.65-1.53-8.49-.65-3.84-1.39-7.67-2.03-11.51-.3-1.8-.19-3.63-.57-5.43-.46-2.16-.77-4.35-1.02-6.55-.35-3.17-.48-6.37-.92-9.53-.34-2.41-.46-4.82-.54-7.24-.06-1.79-.04-3.58-.15-5.37-.14-2.14-.24-4.28-.24-6.42,0-1.57.14-3.14.14-4.72,0-1.9.05-3.8.24-5.69.18-1.74.5-3.46,1.6-4.95.6-.81,1.33-1.48,2.13-2.04,3-2.1,5.45-4.6,6.43-8.25.08-.29.13-.41.47-.39,2.2.11,3.9,1.22,5.43,2.66.51.48.98,1.02,1.46,1.53.51.55.69,1.07-.11,1.54-.15.09-.32.19-.4.33-.87,1.45-1.99,2.44-3.77,2.73-1.43.24-2.16,1.51-2.8,2.69-.89,1.64-1.59,3.39-2.64,4.94-1.02,1.52-1.26,3.18-1.16,4.97.07,1.33.04,2.68-.34,3.99-.22.76.1,1.52.03,2.31-.2,2.22-.65,4.45-.19,6.69.03.14.02.29,0,.42-.65,3.04,0,6.08-.03,9.11,0,.55.19,1.12.34,1.64.67,2.32.82,4.74,1.42,7.06.33,1.28.05,2.62-.12,3.83-.27,1.94.33,3.58.91,5.29.81,2.38,2.83,3.57,4.73,4.89,2.32,1.6,4.92,2.72,7.22,4.35.62.44,1.35.36,2.05.31.47-.03.58-.45.65-.85.19-1.07-.04-2.01-.78-2.84-.98-1.11-2.02-2.17-2.86-3.4-.38-.56-.55-1.12-.56-1.77,0-1.48-.12-2.95-.85-4.29-.59-1.09-.06-2.12.08-3.31.98.52,1.41,1.46,1.91,2.22,1.11,1.69,2.2,3.39,3,5.29.67,1.61,1.3,3.29,2.3,4.73.73,1.04,1.92,1.7,2.59,2.63,4.78-2.89,6.4-7.73,7.78-12.69.26-.94,1.01-1.57,1.17-2.55.77.4,1.03,1.13,1.49,1.69,1.06,1.26,2.22,2.42,3.23,3.74.71.93,1.95,1.45,2.96,2.16,1.13.78,2.17,1.62,2.87,2.86.43.75,1.07,1.4,1.84,1.88.47.3.83.31,1.08-.29.23-.55.58-1.04,1.05-1.44.29-.24.43-.62.38-.95-.17-1.08.19-1.98.69-2.91,1.22-2.29,1.29-4.77,1.07-7.3-.11-1.23.13-2.39.63-3.55.63-1.45.82-2.98.8-4.61-.03-2.49-.38-4.86-1.5-7.4,1.83,1.46,3.44,2.73,4.92,4.18,1.34,1.32,2.14,2.91,2.93,4.57.76,1.6,1.74,3.1,2.64,4.63.24.4.61.74,1.07.82.48.08.92.2,1.09-.66.6-2.89.05-5.74-.13-8.6-.1-1.59.06-3.16.02-4.74-.05-1.95-.77-3.62-1.49-5.33-.42-1-.96-1.96-1.38-2.97-.2-.47-.46-1.04.1-1.45.54-.39,1.11-.36,1.65.07.55.45,1.18.72,1.87.94,2.75.89,4.72,2.83,6.5,5.01,1.31,1.6,2.31,3.45,4.06,4.99-.17-1.53-.07-2.9.07-4.26.22-2.04,0-4.02-.76-5.91-.98-2.41-2.14-4.74-3.82-6.77-1.02-1.24-2.4-1.95-3.88-2.19-2.09-.35-3.72-1.42-5.31-2.65-3.5-2.72-7.11-5.28-10.81-7.73-2.01-1.33-3.67-3.06-5.5-4.59-3.54-2.97-7.3-5.49-11.83-6.68-.47-.12-.98-.23-1.46-.18-2.09.24-4.32,0-6.18,1.21-.93.61-2.02,1.09-2.66,2.14-.59.97-2.05,1-2.95.18-2.64-2.42-5.55-4.42-8.91-5.71-.8-.31-1.6-.63-2.46-.76-.68-.1-.38-.69-.31-1.03.48-2.04.35-4.05-.3-6.02-.83-2.53-1.78-5.01-3.02-7.39-.56-1.08-1.22-2.03-1.99-2.93-.44-.51-.5-1.05-.37-1.75.51-2.87,1.25-5.68,1.84-8.53.34-1.67,1.11-3.17,1.51-4.8.12-.51.33-.99.42-1.52.22-1.22,1.81-2.51,3.03-2.55.41-.02.44.29.49.55.9,3.88,2.91,7.26,4.85,10.66.17.3.33.62.44.95.68,2.1,1.78,3.95,3.21,5.64.51.6.86.7,1.54.15,1.24-1.02,1.63-2.49,2.24-3.83.37-.83.65-1.67,1.25-2.4.39-.48.85-1.07.64-1.81-.11-.38.21-.47.4-.66,1.19-1.27,2.09-2.63,2.43-4.44.2-1.08.24-2.15.33-3.22.13-1.57.81-1.94,2.23-1.23,1.22.61,2.23,1.47,3.13,2.47.38.43.71.63,1.23.17.46-.41.99-.46,1.57-.16,2.06,1.06,4.26,1.85,6.07,3.37.57.48,1.1.97,1.49,1.62.21.36.51.68.82.97.9.82,1.83.75,2.63-.16,1.33-1.54,1.98-3.35,2.21-5.35.38-3.27.14-6.54-.13-9.8-.1-1.17-.65-2.3-.92-3.46-1-4.27-3.14-8.03-5.15-11.87-1.44-2.76-2.9-5.51-3.79-8.56-.59-2.01-1.55-4.11-3.48-5.25-2.17-1.29-4.39-2.55-6.86-3.26-.76-.22-1.48-.61-2.34-.97,3.66-2.57,4.79-6.31,5.39-10.31.25-1.67.63-3.31.72-5.01.15-2.75-.12-5.47-.63-8.17-.1-.51.09-.9.32-1.29,1.87-3.14,3.84-6.19,6.48-8.79,1.7-1.67,3.27-3.49,5-5.13,1.88-1.78,3.82-3.5,5.88-5.09,3.14-2.42,6.26-4.89,9.38-7.34.84-.66,1.78-.87,2.86-.84,1.58.04,3.15.05,4.73.14,1.17.07,2.53-.28,3.43-1.31.41-.47.65-.43.88.13.13.32.35.61.48.94.74,1.91.39,2.43-1.38,3.46-1.21.7-2.4.93-3.73,1.08-1.31.14-2.29,1.11-3.21,1.94-1.16,1.05-2.47,1.94-3.4,3.27-.75,1.07-1.12,2.21-1.28,3.5-.4,3.38-.98,6.74-1.37,10.12-.43,3.76-1.94,7.26-2.51,10.97-.29,1.87-1.19,3.61-1.07,5.57.05.88-.74,1.53-.79,2.46-.19,3.44.3,6.76,1.69,9.89.67,1.5,1.08,3.03,1.29,4.63.04.28.12.55.18.82.06.34.27.47.6.45.36-.03.34-.29.34-.54,0-.51.01-.89.77-.9.69,0,.73-.79.87-1.29.55-1.96.53-3.97.33-5.97-.09-.91-.17-1.82-.33-2.71-.14-.77.77-.89.73-1.77,1.44,2.85,1.92,5.69,2.86,8.38.45,1.31,1.56,2.13,2.36,3.18.82,1.09,1.63,2.21,2.91,2.89.59.31,1.44.09,1.58-.63.07-.34.16-.74-.06-1.04-.99-1.36-.76-2.99-.79-4.47-.04-2.05-.08-4.14.28-6.19.13-.75.55-1.37,1.03-1.93.38-.44.76-.41.9.19.26,1.2.95,2.28,1.02,3.54.01.27.12.56.27.79.97,1.48,1.87,2.99,3.12,4.29,1.55,1.62,2.9,3.41,3.87,5.47.41.86,1.4.9,2.13,1.04.79.15,1.29-.68,1.66-1.36.33-.61.61-1.3.78-1.92.72-2.66,2.93-4.19,4.42-6.26.49-.67.95-1.37,1.1-2.25.34-2.03.91-4.04.63-6.12-.08-.62.76-.39.68-.99,1.06,3.3,4,5.21,5.58,8.07.64,1.16,1.09,2.42,2.27,3.23.48.33,1.02.45,1.52.69.46.23.59-.27.7-.57.74-2,1.32-4.06,2.51-5.87.36-.54.52-1.22.71-1.86.59-1.96.42-3.98.26-5.97-.06-.7.12-1.41-.23-2.18,1.72,1.11,3.64,1.53,5.21,2.64,1.48,1.04,2.63,2.33,3.22,4.05.28.83.76,1.54,1.36,2.11.68.65.93-.09,1.2-.55,1.45-2.47,1.32-5.02.37-7.62-.83-2.27-1.94-4.47-3.78-5.98-3.19-2.61-5.11-6.17-7.59-9.3-1.23-1.55-1.57-3.51-2.42-5.23-1.04-2.1-1.97-4.26-3.01-6.36-.69-1.4-1.82-2.49-2.88-3.59-1.47-1.51-3.02-2.93-4.79-4.11-2.58-1.71-5.32-3-8.45-2.94-1.84.03-3.62.71-5.2,1.68-.69.42-.88.16-1.02-.4-.38-1.43-.81-2.84-1.58-4.12-.35-.59-.16-.94.34-1.32,1.53-1.18,2.27-2.82,2.87-4.62.48-1.43-.34-2.73-.08-4.08.23-1.21-.48-2.18-.69-3.27-.14-.68-.05-1.2.54-1.67,2.56-2.07,4.63-4.75,7.52-6.39,3.67-2.09,6.96-4.86,11.13-6.11,1.22-.36,2.3-.19,3.45-.25,2.07-.11,4.07.92,6.13.28,1.83-.57,3.61-1.24,4.49-3.16.22-.47.43-.7.94-.34,1.64,1.15,3.33,2.25,4.55,3.89.4.54.66.83-.27,1.18-.81.3-1.25,1.21-1.56,2.02-.24.6-.52.9-1.18,1.06-2.03.51-3.36,1.87-4.01,3.82-.69,2.06-1.59,4.1-1.43,6.34.22,3.11.3,6.22,1.08,9.29.68,2.67,1.82,5.15,2.79,7.69.77,2.03,1.29,4.11,1.66,6.28.33,1.96.51,3.87.45,5.84-.01.43.29.85.41,1.29.27.99.57,1.95.18,3.01-.35.97.91,2.46,1.96,2.46.77,0,.93-.55.8-1.08-.29-1.27.14-2.35.66-3.44.3-.63.57-1.28.81-1.94.24-.68.13-1.4.37-2.14,1.24.4,1.74,1.59,2.58,2.37,1.18,1.1,2.42,2.14,3.7,3.12.74.57,1.58,1.03,2.31,1.64.92.78,1.48.53,1.78-.64.19-.74.21-1.52.04-2.19-.41-1.59-.33-3.17-.18-4.78.99,1.07,2.27,1.87,3.12,3.15.57.85,1.31.69,1.72-.24.51-1.15,1.1-2.21.81-3.61-.11-.52.28-1.32.4-2.01.08-.45.4-.44.69-.12.38.42.82.8,1.12,1.27,1.08,1.69,2.63,2.92,4.06,4.27.23.22.48.43.77.55.96.41,1.62.02,1.73-1.06.26-2.51.2-4.95-.93-7.33-.73-1.54-1.08-3.26-1.63-4.97,1.63.36,2.59,1.58,3.8,2.39,1.02.68,1.93,1.51,3.04,2.08.48.24.95.38,1.4.12.47-.28.23-.8.28-1.25.23-2.41-1.07-4.56-1.09-6.94,0-1.04-.37-2.07-1.16-3.06ZM137.89,281.42c-.22.79-.33,1.3-.51,1.78-1.14,3.03-1.81,6.18-2.29,9.37-.03.17,0,.38-.19.46-.26.11-.38-.12-.51-.27-.72-.82-1.45-1.61-2.35-2.25-.53-.37-.9-.98-1.36-1.47-.25-.26-.33-.42-.05-.77.77-.95,1.47-1.88,2.59-2.55,1.13-.67,2.13-1.62,2.91-2.73.41-.58.92-1.03,1.76-1.59ZM122.04,279.46c-1.48-2.08-2.94-4.16-4.44-6.22-.27-.38-.24-.62.1-.88.74-.59,1.49-1.18,2.22-1.78.46-.37.49,0,.61.3.36.91.18,1.86.29,2.79.23,1.94.48,3.89,1.22,5.79Z"/>
</svg>