<?xml version="1.0" encoding="UTF-8"?>
<svg id="Layer_6" data-name="Layer 6" xmlns="http://www.w3.org/2000/svg" viewBox="0 0 349.99 475.73">
  <defs>
    <style>
      .cls-1 {
        fill: #e4e6b3;
      }
    </style>
  </defs>
  <path class="cls-1" d="M178.41,315.6c-1-2.8-2.37-5.37-3.48-8.06-1.89-4.54-4.39-8.7-7.52-12.47-2.12-2.55-4.26-5.1-6.66-7.41-.39-.37-.3-.69-.25-1.15.28-2.31.51-4.62-.09-6.92-.54-2.07-1.79-3.77-2.87-5.56-.48-.8-1.22-1.44-1.54-2.37-.6-1.72-1.95-2.86-3.28-3.95-1.5-1.22-4.94-.14-5.66,1.65-.45,1.1-.1,1.5,1.06,1.44,1.74-.09,3.3.5,4.66,1.58.89.71,1.34,1.53.78,2.7-.31.64-.17,1.34,0,2.03.39,1.62.73,3.25,1.12,5.05-1.41-.47-2.25-1.45-3.1-2.26-1.74-1.68-3.81-2.82-5.84-4.03-.84-.5-1.59-1.09-2.16-1.84-2.13-2.78-5.15-4.58-7.66-6.94-1.44-1.36-2.84-2.77-4.35-4.06-3.87-3.3-8.18-5.53-13.26-6.19-3.96-.52-7.85-.54-11.36,1.81-1.26.84-2.28,1.92-3.15,3.36-.41-1.11-.96-2.02-2.09-1.28-.73.48-1.23,1.3-1.97,1.89.2-1.48.18-2.85-.51-4.12-.68-1.26-1.98-1.41-2.87-.29-.7.89-1.33,1.88-1.43,3.01-.29,3.29-1.98,5.91-3.88,8.41-1.16,1.52-1.9,3.26-2.92,4.85-1.83,2.86-3.88,5.57-4.76,8.98-1.59,6.18-1.75,12.22.67,18.26,1.44,3.6,2.55,7.33,3.23,11.16.16.88.07,1.81.08,2.72,0,.47.17.95.65,1,.63.06.47-.54.58-.93.41-1.49.97-2.96.77-4.56-.09-.77-.19-1.54-.18-2.32.65,2.26,1.73,4.42,1.33,6.89-.09.57.13,1.09.67,1.27.57.19.86-.31,1.05-.74.91-2,1.87-3.99,1.38-6.3-.06-.3-.16-.59.04-.89.53.19.42.69.52,1.07.57,2.25,1.26,4.48.77,6.86-.07.32-.07.73.38.85.44.12.87.11,1.18-.29.5-.64.98-1.3,1.53-2.03.39.54.41,1.09.58,1.59.13.37.1.94.66,1,.5.05.76-.36,1.04-.68.22-.25.38-.57.66-1,.31.85.4,1.67.88,2.31.16.21.28.44.6.4.33-.04.41-.3.41-.57.02-3.13,1.98-5.46,3.36-8.02,2.64-4.92,5.27-9.84,6.18-15.43.59-3.6.53-7.2-.57-10.74-.55-1.8-.4-3.68-.58-5.52-.35-3.41-.9-6.75-2.13-9.95-.2-.52-.19-.92.04-1.46.58-1.36,1.47-2.67,1.05-4.28-.36-1.38-.67-1.51-1.96-.85-.26.13-.5.37-.84.21.34-1.41,1.81-2.53,3.79-2.61.95-.04,1.89-.32,2.82-.24,2.72.24,5.41.61,8.1,1.09,4.57.81,7.49,3.92,10.72,6.64,3.22,2.71,5.93,5.99,9.27,8.57,2.69,2.08,5.44,4.09,8.2,6.09,2.68,1.95,5.08,4.24,7.28,6.76,1.41,1.61,3.11,2.97,4.68,4.43,2.72,2.55,4.53,5.74,6.62,8.74,1.57,2.26,2.39,4.85,3.46,7.34,1.38,3.21,2.86,6.4,4.52,9.47,1.57,2.91,1.34,5.97,1.2,9.03-.15,3.21-.35,6.44-.76,9.63-.48,3.77-.35,7.58-.95,11.33-.17,1.05-.01,2.15-.44,3.23-1.23-1-2.42-2.04-3.69-2.97-1.51-1.1-3.14-1.7-5.1-1.26-1.65.37-2.65,1.33-2.93,2.89-.25,1.41-.87,1.2-1.78.74-2.8-1.4-5.14-3.48-7.77-5.14-3.67-2.32-7.3-4.77-11.64-5.75-2.05-.46-4.08-.47-6.12.07-.6.16-1.16.43-1.1,1.07.1,1.13-.58.77-1.11.68-1.78-.3-3.53-.75-5.37-.71-3.53.07-5.05,2.16-4.17,5.55.56,2.16,1.95,3.82,2.94,5.72.5.95.86,1.86,1.04,2.96.2,1.24.96,2.52,1.8,3.5,1.97,2.32,3.57,4.96,6.01,6.87.81.64,1.63,1.27,2.43,1.93.21.18.54.39.36.75-.18.35-.49.2-.79.15-1.44-.24-2.67.28-3.58,1.35-.92,1.08-.66,2.25-.09,3.51,1.73,3.82,4.36,6.89,7.86,9.07,3.58,2.22,7.46,3.93,11.44,5.38,2.82,1.04,5.71,1.89,8.46,3.15,1.55.71,3.27,1.04,4.9,1.56.57.18,1.15.39,1.68.66.65.33.54.94.32,1.47-.26.63-.69.25-1.08.12-2.48-.86-4.91-1.92-7.52-2.34-.26-.04-.51-.1-.77-.11-4.24-.04-8.48-.55-12.71-.24-4.67.35-9.32.89-13.94,1.79-3.99.78-7.78,2.08-11.29,3.99-3.09,1.68-5.94,3.82-8.57,6.19-1.7,1.53-2.94,3.41-3.33,5.67-.3,1.71-.17,3.45,1.23,4.79.62.59.51,1.25.14,1.88-.37.63-.74,1.28-1.23,1.82-2.57,2.89.1,7.62,3.47,7.89,2.3.19,4.58.26,6.83-.11,2.02-.33,4.04-.16,6.07-.4,2.95-.35,5.71-1.33,8.51-2.13,5.88-1.68,11.68-3.51,17.86-4.02,3.75-.31,7.59-.3,11.25-1.44,1.12-.35,1.22.19,1.04,1.06-.73,3.5-1.57,6.98-2.16,10.5-.83,4.97-2.24,9.82-3.17,14.76-.74,3.95-1.92,7.77-2.99,11.63-.28,1.02-.9,1.95-1.28,2.95-.42,1.12-.06,1.67,1.11,1.71.67.02,1.24.21,1.83.52,1.45.75,3.02.03,3.43-1.54.54-2.08,1.07-4.17,1.57-6.27,1.13-4.71,3.73-8.63,6.42-12.57,2.93-4.3,6.57-8.09,9.11-12.65,1.02-1.84,1.86-3.79,2.83-5.66,2.5-4.82,5.17-9.56,7.28-14.58.38-.91.74-1.83,1.12-2.75.08-.19.07-.47.34-.5.33-.04.43.26.53.48.53,1.23,1.15,2.43,1.54,3.7.98,3.15,2.49,6.01,4.42,8.67,1.11,1.53,2.05,3.2,3.29,4.6,1.07,1.21,2.43,2.18,3.75,3.15,3.3,2.41,6.88,4.39,10.52,6.25,1.23.63,2.71.78,4.1,1.06.64.13,1.01-.34,1.23-.92.37-.97.33-1.96.16-2.94-.06-.38-.23-.74-.09-1.19,2.38.52,4.51,1.37,6.36,3.1,2.31,2.15,5.4,2.79,8.37,3.52,2.22.54,4.47.88,6.79.86,1.63-.02,3.26.27,4.91.26,1.07,0,2.03-.53,3.15-.45.61.04,1.02-.99,1.23-1.68.64-2.09.87-4.21.21-6.37-.53-1.76-.64-3.61-1.41-5.35-1.35-3.03-2.8-5.91-5.59-7.93-.78-.57-1.37-1.43-1.98-2.22-.48-.62-.42-1.31.39-1.56,1.01-.3,1.85-.91,2.82-1.27,1.73-.64,2.65-3.77,1.6-5.3-1.22-1.77-2.86-3.1-4.51-4.44-3.06-2.48-6.67-3.98-10.26-5.42-2.4-.96-5.06-.97-7.64-1.11-1.86-.1-3.73.07-5.59-.04-3.37-.19-6.59.66-9.88,1.1-2.9.39-5.54,1.58-8.35,2.23-1.67.39-3.16,1.52-4.75,2.3-.75.37-1.53.68-2.51,1.12,1.45-2.66,2.7-5.08,4.56-7.21,1.56-1.79,2.78-3.93,4.07-5.97,2.18-3.46,4.55-6.79,6.77-10.22,1.27-1.95,2.29-4.07,3.63-5.97,1.16-1.65,2.44-3.23,3.58-4.91,3.03-4.46,5.26-9.31,7.1-14.35.52-1.41,1.17-2.75,2.25-3.88.72-.76.7-1.92,1.1-2.87,1.29-3.04,2.5-6.12,3.78-9.17,1.06-2.54,2.14-5.09,3.28-7.59.75-1.64,1.03-1.67,2.67-.86,1.99.99,3.65,2.44,5.36,3.82.89.72,1.82,1.25,2.9,1.61,2.74.91,5.46,1.87,8.2,2.78,1.18.39,2.38.38,3.57.02.41-.12.85-.25,1.26-.22,1.29.07,1.42.34.77,1.43-.94,1.59-2.13,3.05-2.7,4.85-.08.25-.25.46-.31.71-.04.2-.06.5.05.61,1.05,1.06-.07,3.22,1.91,3.78.78.22,1.6.32,2.37.57.76.24,1.56.37,2.1,1.13.92,1.31.4,2.3-.55,3.22-1.18,1.14-2.09,2.39-2.12,4.14,0,.6-.53.96-1.09,1.16-1.49.51-2.16,1.77-2.82,3.05-.26.51-.16.91.25,1.27.47.41.87.24,1.25-.13.34-.33.66-.68,1.36-.77-.64.87-.75,1.8-.94,2.7-.1.46-.12,1.03.46,1.2.45.13.74-.24,1.05-.58,1.22-1.34,1.74-3.1,2.82-4.52-.58,2.01-1.48,3.89-2.51,5.7-1,1.76-1.87,3.6-3.16,5.19-.25.31-.41.94-1.11.23-.64-.65-1.39.08-1.77.62-.7.99-1.08,2.16-1.27,3.36-.06.42-.09.94.39,1.14.53.22.94-.12,1.15-.57,1.11-2.37,3.71-3.47,4.88-5.78.12-.25.45-.39.77-.53-1.67,2.57-2.75,5.44-4.3,8.07-.14.24-.29.35-.59.4-2.32.42-3.94,3.44-3.05,5.65.26.65,1.14.65,1.65-.08.71-1.03,1.37-2.09,1.87-3.25.53-1.22,1.15-2.41,1.78-3.58.16-.29.38-.84.86-.57.52.29.06.7-.08,1-2.4,5.17-5.04,10.21-8.48,14.79-.28.37-.97.93-.52,1.27.54.42.95-.39,1.27-.77,1.75-2.09,3.13-4.43,4.5-6.77.23-.39.27-.92,1.13-1.3-1.75,4.12-2.48,8.34-5.45,11.56-.82.89-1.81,1.62-2.43,2.69-.16.27-.37.55-.15.82.31.39.67.07.91-.11,1.08-.79,1.87-1.87,2.9-3.18-.74,3.03-2.05,5.5-2.25,8.28-.02.3-.21.66.12.8.42.18.61-.21.74-.53.65-1.64.86-3.41,1.43-5.08,1.04-3.05,1.65-6.27,3.3-9.06.86-1.47,1.49-3.1,2.63-4.44.31.38-.05.67-.06.98,0,.7.06,1.4.82,1.57.76.17,1.36-.3,1.64-.99.26-.63.39-1.32.53-1.99.33-1.63,1.38-2.95,1.95-4.46.5,1.55.12,3.12-.21,4.63-.75,3.49-1.76,6.93-2.52,10.42-.4,1.84-.66,3.73-.65,5.64.01,1.43-.68,2.76-.59,4.21.07,1.11.06,2.23.1,3.34.01.35.2.65.56.53.49-.18,1.19-.09,1.35-.8.07-.33.1-.7.03-1.03-.5-2.5-.26-5,.06-7.48.65-5.04,1.63-10.02,2.85-14.94.74-2.96,1.71-5.87,2.35-8.86.66-3.06,1.38-6.11,1.84-9.22.18-1.19.66-2.46,1.98-3.05-1.09,2.36-1.72,4.85-2.35,7.33-.15.6-.17,1.21-.08,1.8.06.4.08.99.56,1.06.47.07.87-.32,1.13-.73.37-.59.46-1.27.67-2.12.38.81-.09,1.39-.08,1.99,0,1.97.48,3.92.05,5.91-.21.96.3,1.24,1.22.81,1.7-.79,2.25-3.71.88-4.92-.25-.22-.37-.47-.37-.78,0-1.39-.02-2.77,0-4.16,0-.43,1.04-1.41,1.58-1.65.41-.18.75-.52.71-1-.09-1.03.18-2.03.1-3.08-.1-1.35.24-2.65,1.75-3.36-.17,1.41-.18,2.8-.54,4.09-.64,2.3-.17,4.66-.6,6.95-.08.44.21.61.62.64.75.06,1.4-.12,1.71-.87.24-.59.46-1.21.58-1.84.1-.49.19-1.06-.32-1.44-.51-.38-.93,0-1.45.31-.01-3.34.53-6.46,1.62-9.49.43-1.19,2.33-2.17,3.49-1.71,2.13.85,4.38,1.36,6.39,2.54.7.41,1.63.55,2.46.6.77.05.71-.8.81-1.27.34-1.64.5-3.32.85-4.96.4-1.91.91-3.8,1.48-5.69.16,1.6.43,3.14,1.08,4.6,1.06,2.42,3.31,3.7,5.18,5.31,2.4,2.06,5.28,3.41,7.94,5.1,1.12.71,2.54.63,3.8.92,4.09.91,8.16,1.78,11.95,3.65.28.14.61.45.94.11.32-.32.43-.74.34-1.2-.2-1.08-.99-1.82-1.66-2.58-.88-1-1.97-1.75-3.16-2.41-2.34-1.29-4.89-2.21-7.11-3.64-2.32-1.5-3.59-3.99-4.36-6.66-.59-2.05-2.08-3.54-3.27-5.21-.76-1.07-1.43-2.19-2.07-3.44,1.46,1.56,3.33,1.57,5.04,1.1,1.46-.4,2.87-.71,4.39-.73,1.62-.02,3.02.67,4.51,1.05.4.1.8.47,1.16-.02.36-.49.09-.89-.22-1.28-1.71-2.16-3.98-3.44-6.61-4.04-3.21-.74-6.22-1.81-9.03-3.65-1.45-.94-2.79-2.38-4.77-2.39-.55,0-.39-.51-.33-.81.69-3.5,1.36-6.97,3.35-10.1,1.94-3.05,3.14-6.53,4.89-9.72,1.19-2.17,2.6-4.06,4.67-5.43.96-.63,1.66-1.5,2.18-2.52.72-1.43.65-2.07-.6-3.04-.88-.69-1.83-.47-2.69.26-1.45,1.22-2.83,2.47-3.98,4.02-.92,1.24-2.11,2.35-3.49,3.17-.09-.12-.18-.2-.17-.25.67-3.01.37-6.18,1.55-9.1.27-.67.63-1.32,1.41-1.35,1.35-.05,1.41-1.13,1.63-2,.22-.88-.2-1.62-.99-2.07-.87-.5-1.74-.4-2.55.2-1.64,1.22-2.22,3.08-3.1,4.8-2.4,4.72-2.6,10.06-4.35,14.96-.68,1.9-1.67,3.51-3.04,5.12-.35-.97.09-1.74.07-2.53-.06-3.94-.02-7.89-.03-11.83,0-.77.22-1.4.62-2.06,1.37-2.26,3.23-4.05,5.3-5.62,1.38-1.04,1.89-2.39,1.99-4.01.06-.99-.89-1.12-1.4-1.49-.65-.49-1.56-.11-2.12.44-.82.79-1.5,1.74-2.25,2.6-.44.51-.91,1.01-1.56,1.72-.05-1.1-.1-1.93.08-2.78.21-.98.14-1.96-.01-2.96-.16-1.09-.84-1.45-1.77-1.51-.93-.06-1.54.47-1.88,1.3-.49,1.21-.49,2.53-.24,3.71.43,1.97-.15,3.84-.1,5.79-2.39-1.94-2.56-4.22-1.25-6.78.54-1.05.57-2.26.6-3.41.02-.73-1.97-2.03-2.64-1.9-1.15.22-2.29,1.63-2.09,2.76.19,1.03.64,2.48.03,2.96-.66.51-1.59-.8-2.47-1.21-1.82-.87-3.86-1.46-5.71-1.48-4.48-.07-8.89.61-13.11,2.53-2.94,1.34-5.25,3.38-7.73,5.29-1.92,1.49-3.48,3.36-5.35,4.91-1.76,1.46-2.9,3.52-4.42,5.23-2.18,2.47-4.15,5.08-5.51,8.11-.11.25-.44.41-.61.64-.66.88-.91,2.63-1.89,2.57-2.05-.14-4.22-.3-6.1-1.43-.7-.42-1.44-.77-2.17-1.13-.32-.16-.71-.23-.97.06-.34.37-.08.79.14,1.06,1.52,1.85,2.67,4.01,4.88,5.28,1.71.98,1.62,1.07.77,2.88-1.33,2.85-2.61,5.71-3.99,8.74-.32-2.62-1-4.95-2.06-7.17-.82-1.72-2.29-2.9-3.45-4.34-.26-.32-.64-.46-1.05-.31-.42.16-.37.56-.36.89.21,4.14-.63,8.13-1.45,12.17-.63,3.1-.7,6.35-.13,9.54.2,1.12,1.04,1.97,1.12,3.16.04.53.07,1.02-.12,1.5-1.3,3.44-2.67,6.89-4.57,10-2.77,4.52-5.45,9.1-8.33,13.56-3.13,4.86-6.58,9.49-9.84,14.25-1.74,2.55-3.46,5.15-5.62,7.75.12-2,.22-3.79.34-5.59.02-.34.14-.68.15-1.02.13-7.1.39-14.19.27-21.29-.03-1.86-.55-3.65-.81-5.48-.33-2.39-.21-4.82-.73-7.2-.91-4.2-1.42-8.47-2.42-12.66-1.48-6.17-3.74-12.09-6.15-17.92-.83-2.01-.24-3.83-.66-5.67-.36-1.54-.08-3.1-.03-4.59.1-3.02-.05-6.05.28-9.06.04-.39.1-.77.11-1.16.44-10.08.18-20.17.29-30.26.02-2.11.42-4.21.47-6.31.08-3.36.02-6.72.03-10.08,0-.42.04-.83.06-1.26,2.6,4.14,6.35,7.04,9.91,10.14,3.05,2.65,6.41,4.83,9.94,6.71,2.44,1.3,4.89,2.67,7.65,3.27.32.07.63.23.93.42,1.33.86,2.8.75,4.21.33,1.01-.3,1.57-1.13,1.06-2.2-.29-.6.1-.91.39-1.05.77-.35.03.35.29.49,1.72.95,3.53,1.57,5.52,1.51.38-.01.77-.2,1.14-.03,1.62.75,3.32.75,5.05.7,1.07-.03,2.14.01,3.23.17,2.22.31,3.73-1.91,3.07-4.38-.39-1.46-1.01-2.8-2.19-3.84-.71-.63-1.33-1.34-1.91-2.11-.92-1.22-2.2-2.03-3.56-2.7-.46-.22-.95-.43-1.25-.89,1.89-2.11.86-5.17-2.06-6.38-3.3-1.37-6.75-2.26-10.16-3.26-2.08-.61-4.24-.63-6.31-1.12-5.38-1.26-10.85-1.28-16.32-1.15-1.83.04-3.68-.28-5.51.17-.24-.46.13-.62.41-.78,1.31-.76,2.65-1.46,3.92-2.26,3.31-2.07,5.84-4.93,8.18-8.01,1.63-2.15,2.64-4.65,4.26-6.79,1.36-1.79,1.82-1.86,3.73-.51.2.14.48.28.72.27,1.71-.1,3.21.96,4.84.93,1.48-.03,2.7.88,4.23.66,1.72-.25,2.59-.87,2.68-2.56.03-.48.03-.95,0-1.43-.04-.88-.02-1.55,1.19-1.72.94-.13,1.15-1.04.69-1.84-.47-.82-1.11-1.53-1.68-2.3-.86-1.16-2.1-1.34-3.43-1.54-1.6-.24-3.18-.69-4.77-1.03-1.3-.28-2.51.03-3.75-.13-1.45-.18-1.65-.39-.92-1.58,2.44-4,4.48-8.24,7.27-12.03.69-.94,1.43-1.58,2.64-2,3.02-1.05,6.07-1.33,9.23-1.45,2.82-.1,5.66.27,8.42-.03,2.44-.27,4.91-.64,7.3-1.65,3.8-1.6,7.42-3.82,11.66-4.24.4-.04.82-.09.88-.58.05-.42-.33-.58-.63-.73-1.92-.94-3.81-1.83-5.91-2.45-2.19-.64-4.47-.64-6.63-1.44-1.22-.45-2.76.03-4.15-.02-2.58-.09-5.08.88-7.67.6-.37-.04-.89.18-1.08-.21-.21-.43.21-.81.5-1.1.61-.61,1.26-1.18,1.94-1.71,1.63-1.27,2.34-3.18,3.4-4.84,2.73-4.25,5.32-8.65,6.71-13.52,1.43-4.99,2.75-10.04,3.25-15.25.22-2.23.62-4.44.72-6.67.12-2.59-.85-4.99-1.67-7.4-.5-1.46-.77-3-1.16-4.48-.26-1,.46-2.23.62-3.37.44-3.15.81-6.32,1.22-9.47.24-1.83.37-3.69.78-5.49.44-1.94.18-3.85.1-5.77-.18-4.09-.63-8.16-1.17-12.22-.24-1.78-.82-3.52-1.17-5.29-.43-2.2-1.18-4.32-1.75-6.48-.35-1.31.36-2.66.75-3.94.64-2.12,1.25-4.27,1.12-6.46-.25-4.09-.89-8.18-2.44-11.98-1.35-3.3-3.14-6.43-4.87-9.55-.55-.99-1.57-1.72-2.29-2.63-1.75-2.23-3.02-4.84-5.28-6.67-1.91-1.54-3.87-3.02-5.71-4.65-3.67-3.26-6.56-7.09-8.53-11.64-1.1-2.52-1.84-5.22-3.31-7.56-1.43-2.28-3.61-3.79-6.01-4.9-1.05-.48-2.12-.99-3.29-1.27-.91-.22-1.71-1.01-1.66-2.22.02-.34-.03-.69-.08-1.03-.03-.18-.19-.27-.39-.26-.22.01-.24.15-.28.33-.42,1.68.85,3.78,2.6,4.14,3,.62,5.52,2.12,7.28,4.57,1.31,1.83,1.86,4.06,2.14,6.31.35,2.89.28,5.85,1.78,8.79-1.05-.37-1.83-.65-2.38-1.23-2.12-2.23-4.53-4.01-7.28-5.47-3.31-1.75-5.57-4.65-7.65-7.75-1.72-2.58-3.49-5.23-6.27-6.89-.32-.19-.66-.44-.9-.07-.23.35.24.48.44.67,1.8,1.67,3.64,3.32,4.72,5.58.61,1.27.84,2.69,1.8,3.83,1.9,2.23,3.99,4.3,5.74,6.66.77,1.03,1.67,1.99,2.34,3.08.38.62,1.01.75,1.48,1.18.91.86.71,2.15,1.5,3.04-1.39-1.57-3.16-2.15-5.09-2.63-1.91-.47-3.51-1.52-4.99-3-2.46-2.45-4.44-5.46-7.58-7.14-1.79-.96-3.52-2.04-5.43-2.82-1.61-.65-3.1-1.64-4.76-2.27-1.84-.7-3.7-1.42-4.98-3.07-.17-.21-.44-.53-.74-.16-.22.27.08.45.21.66.84,1.27,1.97,2.01,3.46,2.51,2.7.9,5.09,2.53,7.66,3.73,1.9.89,3.7,1.89,5.09,3.48.93,1.06,1.7,2.26,2.59,3.35,1.71,2.11,3.54,4.11,4.96,6.49-1.05-.74-1.99-1.71-3.29-2-3.03-.67-4.94-2.98-7.2-4.8-1.39-1.12-3.2-1.35-4.86-1.7-2.64-.55-4.73-1.98-6.8-3.51-1.83-1.35-3.04-3.22-4.24-5.1-.72-1.12-1.78-1.97-2.89-2.74-.23-.16-.53-.21-.7.02-.22.3.11.43.29.6,2.04,1.85,3.68,4,4.9,6.47.78,1.58,2.34,2.25,3.69,3.13,2.58,1.66,5.37,2.87,8.3,3.77.69.21,1.27.54,1.74,1.07,1.82,2.09,4.11,3.68,6.56,4.74,2.49,1.07,3.52,3.29,5.22,5.02-2.18-1.18-4.49-2.04-6.74-3.01-3.37-1.46-6.57-3.3-10.34-3.84-2.35-.34-4.65-.25-6.97-.18-3.66.1-7.11-.86-10.52-2.04-.34-.12-.67-.47-1.09-.05.52.74,1.31,1.1,2.1,1.4,2.24.88,4.57,1.29,6.98,1.4,1.3.06,2.59.33,3.89.4,1.58.09,3.16,0,4.73.34,1.76.39,3.5.89,5.35.87.96-.01,1.61.94,2.38,1.48,3.22,2.3,6.09,5.01,8.89,7.8,1.68,1.68,2.79,3.71,3.88,5.77.37.7.34,1.51.5,2.26.31,1.48,1.21,2.65,1.95,3.91,1.59,2.71,2.88,5.56,4.12,8.45,1.04,2.42,2.58,4.46,4.86,5.88.82.51,1.39,1.25,1.86,2.1.9,1.62,2.19,2.79,3.85,3.71,2.14,1.19,4.67,1.57,6.62,3.02,1.62,1.21,3.51,1.79,5.24,2.68,1.37.71,3.15.59,4.75.86,1.19.2,2.19.42,3.16,1.5,2.58,2.89,3.25,6.4,3.87,9.96.77,4.4,1.59,8.85,1.39,13.32-.14,3.02-.16,6.04-.29,9.06-.15,3.54-.84,6.98-1.27,10.47-.02.16-.15.3-.31.62-.98-2.48-2.21-4.68-3.72-6.73-.25-.35-.46-.76-.78-1.02-2.61-2.11-4.93-4.62-8-6.09-1.4-.67-2.92-.95-4.51-1.09-1.82-.15-3.63-.31-5.38.22-1.68.5-3.39.98-4.91,1.92-.58.36-.9.45-1.08-.47-.29-1.46-.72-1.58-2.16-1.12-.62.2-1.24.67-1.7-.53-.46-1.19-2.78-.77-3.39.52-1.52-.89-3.3-.05-4.17,1.99-.3.71-.62,1.43-.82,2.18-.86,3.23-2.53,6.06-4.6,8.61-2.18,2.7-4.16,5.47-5.14,8.84-.13.45-.45.37-.83.35-1.71-.09-2.08.29-2.84,1.83-1.54,3.14-1.72,6.56-2.28,9.9-.14.8-.29,1.63-.61,2.37-1.81,4.17-1.39,8.38-.55,12.69.56,2.85.8,5.82-.32,8.69-.24.61-.7,1.43.21,1.81.69.29,1.29-.23,1.71-.83.17-.24.35-.47.64-.86,0,.69,0,1.19,0,1.7.02,1,.6,1.42,1.36.82,1.21-.95,2.7-1.53,3.64-2.86.26.44.23.9.05,1.26-.57,1.15-.03,2.38-.34,3.54-.1.36.17.56.52.59.7.06,1.39.09,2.01-.32.7-.46,1.31-.9,2.32-.82.81.06,1.52-.89,2.15-1.52,1.09-1.08,2.08-2.24,3.31-3.59-.28,1.93-1.54,2.96-2.4,4.2-.45.66-.99,1.29-1.69,1.76-.45.31-.79.81-.46,1.34.33.53.84.43,1.47.29,2.12-.46,3.15-2.18,4.55-3.53,3.47-3.35,6.05-7.32,8.15-11.6,1.56-3.18,2.71-6.55,3.64-9.96.38-1.39.79-2.84.5-4.43-.36-2.02.34-4.02.79-5.99.66-2.87,1.04-5.76.98-8.72-.08-3.68.46-7.31.91-10.94.27-2.17-.52-4.32-2.09-5.12.13-.44.55-.34.84-.44,1.83-.62,3.69-1.23,5.55-1.61,2.49-.52,4.87.35,6.99,1.89,2.84,2.06,5.14,4.61,7.37,7.3,1.37,1.66,2.17,3.44,2.89,5.37.24.64.29,1.4,1.11,1.78.54.25.17.87.05,1.27-.93,3.05-1.91,6.08-2.85,9.12-1.39,4.49-2.92,8.93-4.38,13.4-.72,2.2-1.2,4.49-2.22,6.58-1.78,3.62-3.1,7.44-4.85,11.08-2.06,4.27-3.76,8.72-5.89,12.95-1.55,3.09-3.05,6.24-5.16,9.04-1.18,1.57-2.02,3.38-2.67,5.27-.69,2.03-2.11,3.65-3.17,5.46-1.48,2.53-2.95,5.07-4.38,7.62-.64,1.14-1.41,1.85-2.85,1.73-2.53-.22-4.69,1.09-6.91,1.99-1.86.75-3.62,1.8-5.39,2.78-1.29.71-2.38,1.7-3.45,2.9-.22-1.85-.41-3.58-.64-5.31-.43-3.24-1.07-6.47-1.29-9.73-.34-4.8-1.22-9.51-2.49-14.1-1.93-6.97-3.95-13.92-7.16-20.48-1.55-3.16-2.71-6.53-4.39-9.65-2.7-5.01-5.57-9.91-8.56-14.75-1.84-2.97-4.18-5.61-6.11-8.51-2.68-4.03-6.02-7.54-8.69-11.58-1.96-2.96-4.45-5.58-6.81-8.25-3.01-3.39-6.01-6.8-9.35-9.88-4.37-4.04-8.85-7.97-13.65-11.5-2.28-1.68-4.77-3.09-7.31-4.38-2.27-1.16-4.43-2.52-6.73-3.6-3.76-1.75-7.67-3.09-11.82-3.66-2.12-.29-4.21-.6-6.38-.57-4.01.05-7.79,1.03-11.43,2.5-1.74.7-3.38,1.88-4.57,3.48-.52.7-.91,1.15-1.64.04-.45-.67-.96-1.79-2.22-1.37-1.5.5-1.79,2.41-.54,3.68.54.54,1.16,1.01,1.91,1.66-1.47.25-2.04-.26-2.38-1.27-.2-.6-.61-1.12-1.17-1.51-.63-.44-1.31-.57-1.93-.16-.72.46-1.05,1.25-.74,2.04.46,1.2.81,2.46,1.53,3.56.52.79.75,1.65.41,2.58-.83,2.26-1.56,4.54-1.88,6.98-.47-.23-.71-.56-.72-1.02-.05-2.92-.15-5.83.83-8.66.6-1.73-.39-3.18-1.04-4.65-.34-.77-1.03-.68-1.61-.16-1.01.91-1.16,2.13-.95,3.34.33,1.9-.1,3.74-.25,5.65-1-2.18-2.37-4.24-1.84-6.84.25-1.21.27-2.41-.19-3.57-.22-.56-.49-1.28-1.19-1.2-.77.1-1.59.31-2,1.2-.75,1.63-.51,3.26-.15,4.93.79,3.6,1.96,7.07,3.58,10.36.96,1.97.5,3.93.3,5.82-.2,1.92-.53,3.83-.65,5.77-.03.52-.18.99-.44,1.56-2.54-3.54-4.68-7.14-5.92-11.23-.2-.66-.4-1.32-.67-1.95-.79-1.85-.56-3.71-.15-5.58.28-1.31.57-2.61.62-3.95.06-1.4-1.08-1.57-1.94-1.9-.83-.31-.87.61-1.18,1.07-1.46,2.16-1,4.63-1.08,7-.15,4.57,1.74,8.83,2.11,13.32.3,3.66,1.13,7.24,1.45,10.88.21,2.5.83,4.81,1.78,7.05.63,1.48.28,2.55-.77,3.55-.71.68-1.39,1.44-2.21,1.98-1.8,1.2-2.8,3-3.45,4.89-1.27,3.69-3.78,5.8-7.51,6.5-2.13.4-3.75,1.63-5.39,2.88-.29.22-.72.5-.56.93.17.45.73.39,1.03.27,1.16-.45,2.6.05,3.57-1.04.1-.11.33-.23.46-.19,1.3.38,2.54-.34,3.86-.1,1.81.34,3.55-.16,5.07-1.16,1.47-.97,3.12-1.46,4.73-2.05.21-.08.43-.14.59.07.12.17,0,.32-.11.46-1.82,2.42-2.63,5.32-3.72,8.08-.28.7-.62,1.35-1.09,1.89-3.12,3.53-3.76,7.83-3.85,12.3,0,.39-.24,1.02.43,1.21.56.16.98-.1,1.39-.49,1.52-1.44,2.72-3.04,3.27-5.12.53-2,1.28-2.45,3.38-2.43,1.28.01,2.09-.94,3-1.64.47-.37.85-.86,1.32-1.23.65-.51,1.26-.85,2.16-.19.78.56,1.84.28,2.77.13.45-.07.86-.29.86.47-.01,2.94,2.44,4.55,4.98,3.17.75-.41.95-.16,1.48.25,1.76,1.36,2.91,3.34,4.67,4.64,1.17.86.99,1.68.75,2.76-.13.58-.04,1.21-.06,1.81-.02.92.21,1.88-1.26,2.07-.54.07-.91.96-.6,1.75.31.8.56,1.63.88,2.43.19.47.36,1.05,1.04.98.7-.07,1.08-.56,1.13-1.22.06-.73.04-1.47.04-2.21-.01-1.94-.04-3.88.32-5.77.56,1.8.85,3.72.97,5.68.1,1.63.25,3.25.34,4.88.03.57.21,1.28-.67,1.46.31.82-.86.8-.81,1.3.1,1.01.14,2.08,1.01,2.85.45.4.89.82,1.14,1.4.14.33.13.92.62.86.48-.05.8-.48.95-.96.06-.2.06-.41.12-.79.38.54.25.98.25,1.38.1,5.14.45,10.28.24,15.43-.02.5-.73,1.54.22,1.61.85.07.4-1.02.52-1.58.64-2.84.9-5.72.74-8.62-.18-3.53-.3-7.06-1.1-10.53-.27-1.17-.62-2.41-.37-3.66.97,3.79,1.93,7.56,2.4,11.45.45,3.76,1.25,7.47,1.86,11.21.17,1.01.26,2.04.28,3.06.01.59.05,1.1.72,1.12.83.02.68-.69.61-1.15-.42-2.72-.9-5.44-1.35-8.16-.59-3.61-1.14-7.23-1.75-10.83-.25-1.46-.74-2.89-.73-4.36.28-.12.44-.02.49.15.76,2.96,1.78,5.86,2.12,8.91.39,3.57,1.42,7.01,1.99,10.54.22,1.36.31,2.74.84,4.04.15.37.06.98.73.82.53-.12.58-.61.54-1.05-.09-1.03-.13-2.08-.37-3.08-1.42-5.9-2.5-11.88-3.8-17.81-.39-1.76-.84-3.51-1.22-5.28.92,1.96,1.22,4.13,2.1,6.11,1.46,3.29,1.86,6.9,3.11,10.26.68,1.82,1.22,3.68,1.85,5.52.14.42.28,1.27.62,1.06.5-.31,1.33-.78.97-1.73-.65-1.73-1.28-3.48-1.96-5.2-.24-.6-.42-1.21-.58-1.84-.42-1.66-.61-3.38-1.54-4.9-.33-.53-.98-1.5-.1-1.93.86-.42.95.78,1.25,1.26,2.95,4.69,5.34,9.64,6.74,15.03.12.45.12,1.12.78.93.64-.18.48-.8.33-1.33-.92-3.37-2.31-6.58-3.51-9.86-.45-1.22-.75-2.51-1.89-3.84,3.54.97,5.98-.26,8.1-2.4.37-.38.57-.3.96-.03.76.52,1.63.8,2.57.7,1.16-.13,1.7-1.09,1.15-2.01-.83-1.42-2.74-2.19-4.32-1.78-.51.13-.97.41-.95.92.05,1.28-.87,1.85-1.71,2.33-3.07,1.76-6.98.63-8.02-2.77-.22-.72-.98-1.22-.86-2.25,1.82,1.29,3.68,1.56,5.65.88.28-.1.6-.14.84-.3.83-.56,1.41-3.13.94-4.02-.24-.46-.48-1.02-1.1-.94-.52.07-.91.41-1.07,1-.13.49-.42.94-.64,1.41-.21.46.15,1.01-.34,1.5.22-1.65-.96-2.67-1.64-3.92,1.35-.49,2.6-2.28,2.59-3.75,0-.96.07-1.68,1.36-1.2.59.22,1.12-.22,1.12-.76,0-.96-.32-1.93-1.1-2.54-.67-.52-1.52-.62-2.33-.18-.68.37-1.14.81-.89,1.74.23.86.3,1.77.35,2.67.1,1.87-.83,2.57-2.49,1.78-1.25-.59-2.77-1.49-3.05-2.6-.26-1.05-1.3-2.24-.5-3.64.36.84.35,1.68.77,2.39.31.51.68.9,1.22,1.1.5.18,1.07.3,1.47-.11.34-.35.08-.82-.1-1.21-.38-.86-.43-1.82-1.09-2.6-.49-.57-.73-1.27-1.67-.71-.33.2-.5-.17-.67-.44-1.77-2.7-2.57-5.69-2.78-8.87-.05-.81.41-.53.83-.39,1.8.58,3.58,1.18,5.53.96,1.09-.13,1.62-.66,1.67-1.75.05-1.22-.16-2.42-.42-3.59-.2-.89.17-1.23.88-1.38.76-.15,1.53-.3,2.3-.3,1.19,0,2.03-.62,2.87-1.32.47-.39.36-.82.14-1.28-.33-.7-.66-1.39-1.01-2.14.49-.09.85.03,1.18.23,2.82,1.73,6.02,1.54,9.12,1.91,3.84.46,7.73.88,11.05,3.2.23.16.48.5.77.17.25-.28.15-.65,0-.98-.81-1.69-2.21-2.87-3.65-3.96-2.56-1.94-5.71-2.86-8.35-4.69-1.53-1.05-2.57-2.4-3.29-4.06-.07-.15-.1-.33-.13-.5-.01-.08.03-.16.04-.18,2.62-.17,5.23-.31,7.7-1.26,1.22-.47,2.44-.81,3.77-.79,1.51.02,3.02.09,4.52-.23.53-.11.9-.27,1.05-.79.16-.58-.08-.95-.57-1.3-1.32-.95-2.85-1.19-4.37-1.47-.84-.16-1.72-.31-2.57-.26-4.79.29-9.32-1.06-13.88-2.17-.29-.07-.58-.15-.88-.2-1.62-.25-3.16-.53-4.06-2.25-.55-1.06-1.75-1.55-2.85-1.92-1.53-.51-1.99-1.58-2.21-3.07-.79-5.13-2.33-10.07-4.19-14.9-1.91-4.97-4.69-9.51-7.14-14.22-.85-1.64-1.96-3.15-2.98-4.69-.4-.61-.44-.93.11-1.61,2.14-2.67,5.07-3.85,8.18-4.8,6.15-1.88,12.21-1.23,18.14.84,3.61,1.26,7.4,2.21,10.52,4.62,1.88,1.46,4.12,2.32,6.06,3.7,3.34,2.37,6.56,4.9,9.82,7.37,3.45,2.61,6.59,5.59,9.56,8.74,4.03,4.27,7.79,8.74,11.14,13.58,2.77,4,5.94,7.72,8.86,11.62,4.85,6.51,9.3,13.27,13.04,20.5,1.41,2.73,2.93,5.41,4.3,8.17,3.21,6.5,5.99,13.14,7.5,20.28.64,3.03,1.64,5.99,2.26,9.03.53,2.61.83,5.27,1.09,7.93.23,2.37.81,4.67,1.14,7.01.41,2.94.82,5.88.99,8.85.1,1.8.31,3.6.47,5.4.08.93-.21,1.79-.56,2.63-1.45,3.49-1.77,7.05-.73,10.72.18.65.54,1.17.83,1.74.2.4.42.84-.03,1.17-.51.37-.69-.21-.88-.47-1.48-2.06-3.59-3.53-5.13-5.53-.39-.51-1.05-.89-1.56-1.21-1.67-1.06-2.98-2.62-4.96-3.27-1.37-.45-2.81-1.14-3.82-2.13-.96-.94-2.13-1.02-3.16-1.38-3.1-1.1-5.69-2.91-8.27-4.87-1.58-1.2-3.5-1.96-5.3-2.85-.65-.32-1.35-.58-1.95-1-1.2-.84-2.57-1.37-3.97-1.68-1.51-.33-2.71-1.28-4.19-1.7-1.68-.47-3.36-1-5.04-.7-1.3.23-2.52,1.07-3.48,2.03-.36.36-.29,1.15.15,1.77,1.33,1.88,3.08,3.27,5.01,4.44,4.07,2.47,7.33,5.96,11.15,8.74,1.79,1.31,3.84,2.28,5.8,3.34,1.09.59,2.18,1.14,3.23,1.81,1.53.98,3.22,1.66,5.06,1.9,1.66.21,3.05,1.21,4.64,1.68,1.01.29,1.92-.23,2.86.12,2.36.86,4.92.91,7.28,1.84,1.58.63,3.28.95,4.8,1.8.59.33.69.68.69,1.22,0,3.46.51,6.91.24,10.37-.32,4.05.07,8.12-.29,12.14-.63,7.05-.37,14.09-.48,21.14-.02,1.37-.26,2.75-.23,4.11.05,2.15.27,4.3.37,6.46.03.77-.12,1.54-.12,2.31,0,1.22-.32,2.43-.22,3.7ZM255.02,323.18c-2.11-.05-3.75-.83-5.37-1.6-3.47-1.67-7.07-2.61-11.07-2.12.2-.34.36-.63.53-.92.81-1.37,1.45-2.85,2.59-4.01.71-.72.48-1.82,1.14-2.62,2.48-3,5.22-5.73,7.98-8.47,2.52-2.5,5.18-4.8,8.23-6.67,2.36-1.45,4.81-2.65,7.45-3.46,1.33-.41,2.77-.17,4.1-.43,3.23-.64,6.05.09,8.72,1.89,1.76,1.18,2.09,1.86,1.55,3.94-.16.62-.36,1.24-.6,1.84-1.21,3.06-2.59,6.07-4.61,8.66-2.02,2.58-4.44,4.84-6.48,7.4-1.15,1.45-2.07,2.97-4.21,2.87-.23-.01-.51.16-.69.33-.84.75-1.7.48-2.51.01-.93-.54-1.83-1.14-2.72-1.75-1.87-1.28-3.13-3.23-4.9-4.6-1.46-1.12-2.73-2.74-4.9-2.49-.28.03-.66-.08-.78.3-.11.36.23.49.46.69,1.48,1.25,2.75,2.7,3.2,4.6.54,2.3,1.34,4.45,2.89,6.62ZM240.03,144.46c.12,1.23.51,2.34.76,3.47.3,1.35.41,2.71.53,4.09.31,3.87-.94,7.51-1.47,11.25-.44,3.08-1.58,5.99-2.33,8.99-1.28,5.15-4.03,9.54-6.99,13.75-3.12,4.44-7.02,8.28-10.78,12.2-.28.29-.48.72-1.15.76,8.82-17.58,16.49-35.5,21.43-54.51ZM181.58,331.05c2.94,6.32,4.32,12.96,5.86,19.53,1.1,4.72,1.26,9.54,1.34,14.37.05,2.66.41,5.31.65,8.1-1.14-2.16-2.34-4.12-3.23-6.22-1.44-3.39-3.88-6.1-5.88-9.1-.49-.73-.77-1.37-.76-2.23.04-2.88.08-5.73.72-8.58.59-2.58-.02-5.3.35-7.93.36-2.59,0-5.26.95-7.95ZM186.68,404.78c-.1.39-.13.55-.18.7-.85,2.36-2.06,4.55-3.22,6.76-1.57,3.01-2.85,6.17-4.67,9.06-2.92,4.62-5.58,9.41-8.88,13.79-.85,1.13-1.55,2.5-3.15,3.03.22-1.64.35-3.18.64-4.69.97-5.06,2.01-10.12,3.01-15.17.09-.44.2-.96.65-1.04,1.86-.33,3.12-1.79,4.8-2.45,3.74-1.48,6.23-4.42,8.43-7.58.67-.96,1.32-1.74,2.58-2.4ZM68.99,120.25c-1.8-3.17-3.2-6.33-4.67-9.47-.61-1.29-1.21-2.45-.13-3.74.29-.35.13-1.14.69-1.11.49.03.66.72.92,1.15.09.15.13.32.2.48,1.23,3.27,2.02,6.66,2.73,10.06.17.8.6,1.6.27,2.64ZM185.05,401.39c-.65.1-1.22.1-1.81-.16-1.58-.69-3.19-1.31-4.76-2.02-1.37-.62-2.71-1.33-4.05-2.01-.71-.35-.76-1.01-.41-1.53.41-.61.84.04,1.14.28.51.42,1.08.73,1.67.98,2.85,1.21,5.73,2.38,8.23,4.45ZM61.63,113.43c.61,3.25.91,6.53,1.17,10.08-1.17-1.16-2.07-2.02-2.01-3.67.08-2.16-.03-4.32.84-6.41ZM282.44,306.96c-.1-.05-.2-.1-.3-.15.64-2.24,1.29-4.49,1.93-6.73.59.65.84,1.28,1.16,1.87.41.75.34,1.47-.26,2-1.01.87-1.79,1.92-2.53,3.01Z"/>
</svg>