<?xml version="1.0" encoding="UTF-8"?>
<svg id="Layer_6" data-name="Layer 6" xmlns="http://www.w3.org/2000/svg" viewBox="0 0 180 180">
  <defs>
    <style>
      .cls-1 {
        fill: #480c3f;
      }
    </style>
  </defs>
  <g>
    <path class="cls-1" d="M46.18,139.37c4.05,4.12,6.36.15,12.13.15s8.04,3.97,12.22-.02-.36-6.2-.36-11.71-.39-5.51-.39-11.01.22-5.51.22-11.01c0-.71,1.91-2.09,2.89-1.9,3.86.28,7.95-.3,12.02-.42s8.01.15,11.96.06,8.08-.45,11.92-.09c1.38.13,3.3,1.14,3.3,2.65,0,5.45.77,5.45.77,10.91s-1.1,5.46-1.1,10.91-3.12,7.05.84,10.8c4.2,3.97,5.66-.44,11.44-.44s7.05,4.23,11.11.11c4.11-4.18,1.16-5.42,1.16-11.29s-.9-5.87-.9-11.73.23-5.86.23-11.73.81-5.87.81-11.73-1.92-5.96-.93-11.75c1.74,1.55,5.7,3.07,7.14,4.69.21.23.42.74.42,1.1,0,5.63-.94,5.63-.94,11.25s1.36,5.63,1.36,11.26-.56,5.63-.56,11.25c0,5.63-.5,5.63-.5,11.26s-.46,5.63-.45,11.26c.02,1.93-.79,3.97-2.7,4.1-3.25-.23-6.64-.71-10.07-.6s-6.73.71-10.07.79-6.81-.58-10.05-.88c-.89-.08-1.9-.01-2.6-.61-.2-.17-1.7-1.53-1.7-1.63,0-5.5.9-5.5.9-11q0-5.51,0-11.01c0-5.51,3.82-7.37-.53-10.74-5.62-4.35-6.9-.32-14-.32s-8.14-3.7-13.78.62c-4.33,3.32.41,4.88.41,10.33q0,5.46,0,10.91c0,5.46-.28,5.46-.28,10.91,0,1.51-2.96,1.77-4.34,1.9-3.23.3-6.55,1.95-10,1.87s-6.71-1.08-10.06-1.18-6.82.44-10.07.67c-1.59-.18-1.73-1.4-2.35-2.85-.29-5.75-1.54-5.71-1.56-11.47s-.17-5.76-.19-11.52,1.28-5.76,1.26-11.52-.05-5.76-.06-11.53c-.01-5.76-1.48-5.79-1.29-11.55.01-.43.28-1.18.62-1.45,3.24-2.64,4.44-7.39,7.39-4.43,4.14,4.15-.8,5.99-.8,11.85s1.23,5.87,1.23,11.73.45,5.86.45,11.73-.52,5.82-1.87,11.53c-1.51,6.4-3.84,8.33.28,12.51Z"/>
    <path class="cls-1" d="M67.91,49.63c5.69,3.38,5.96-3.64,11.15-7.74,5.19-4.11,3.97-5.66,9.21-9.7,1.05-.63,2.89-.27,4.1.13,5.02,3.69,4.33,4.58,9.23,8.43s5.38,3.25,10.28,7.1,5.74,2.79,10.64,6.64c4.91,3.85,4.6,4.24,9.51,8.09s4.3,4.62,9.21,8.47,5.34,3.3,10.25,7.16,4,4.94,8.75,8.99c3.35,3.5.34,6.92-3.57,4.23-4.73-3.58-4.99-3.23-9.66-6.89s-4.2-4.25-8.86-7.91-5.09-3.12-9.76-6.78-5.11-3.1-9.78-6.76-3.56-5.07-8.23-8.73c-4.67-3.66-4.54-3.82-9.21-7.49s-4.16-5.64-10.09-5.65-5.36,2.02-9.99,5.68-4.71,3.56-9.34,7.21-4.24,4.16-8.88,7.81-4.13,4.3-8.77,7.96-4.85,3.38-9.49,7.03-5.4,2.7-10.04,6.35-4.47,3.86-9.14,7.48c-3.78,2.83-6.51.16-3.78-3.53,3.99-3.7,3.21-4.6,7.48-7.98s5.15-2.27,9.42-5.66,4.99-2.81,7.44-7.68c2.32-4.61-.33-4.85-.31-10s1.29-5.16,1.31-10.32,1.07-5.13,1.18-10.29c.2-1.62.21-2.19,1.79-2.38,3.08-.37,11.76-2.43,14.88-2.08,1.27.14,3.81,3.11,3.81,4.43-3.7,7.17-6.9,10.71-.73,14.37ZM61.29,39.13c-1.48-3.23-6.26-3.36-8.23-.4-2.96,4.44,1.73,5.87,1.73,11.2s-5.33,7.66-.93,10.68c3.77,2.59,5.16-1.55,7.89-5.23,4.79-6.47,2.78-9.19-.46-16.26Z"/>
  </g>
  <path class="cls-1" d="M166.55,107.31c.39-1.96,5.49-1.98,5.85-.01,1.97,10.65.17,11.01.17,21.85s-1.49,10.83-1.49,21.67,8.04,14-.24,20.99c-9.81,8.28-12.27.6-25.11.6s-12.84-.62-25.68-.62-12.84,1.55-25.68,1.55c-12.84,0-12.84-.61-25.68-.61s-12.84.06-25.68.06c-12.84,0-13.15,2.67-25.84.7-1.98-.31-1.65-3.63.32-3.95,12.35-1.97,12.34-1.27,24.85-1.27s12.51.6,25.01.6,12.51,1,25.01,1,12.51-2.64,25.01-2.64,12.51,2.07,25.02,2.07,16.09,8.05,25.8.16c7.89-6.41-.15-11.13-.15-21.29s1.54-10.32.61-20.45-4.07-10.41-2.11-20.39Z"/>
  <path class="cls-1" d="M33.58,11.81c12.63-1.98,12.92,1.7,25.71,1.7s12.79-1.81,25.57-1.81,12.79.82,25.57.82,12.79.96,25.58.96,13.31-4.46,25.5-.6c7.11,2.25,8.67,3.6,10.6,10.8,3.29,12.33-.25,12.95-.25,25.7s1.4,12.89-.57,25.5c-.31,1.98-2.81,1.87-3.13-.1-1.97-12.22-2.09-12.26-2.09-24.64,0-12.38,4.17-12.71,1.41-24.78-1.29-5.65-1.93-7.9-7.53-9.39-12.18-3.24-12.79.15-25.39.15-12.6,0-12.6,1.85-25.21,1.85s-12.61-2.11-25.21-2.11-12.61-.14-25.21-.14-12.98,4.21-25.41,2.15c-2.67-.44-1.91-5.75.07-6.05Z"/>
  <path class="cls-1" d="M10.62,21.13c.34-1.97,5.4-1.94,5.74.03,1.97,11.27-1.53,11.58-1.53,23.01s-.42,11.44-.42,22.88,1.89,11.44,1.89,22.88.21,11.44.21,22.88.3,11.44.3,22.88-.05,11.47-2.02,22.74c-.34,1.97-3.92,2.29-4.26.32-1.97-11.27.63-11.62.63-23.06,0-11.44.08-11.44.08-22.88s.55-11.44.55-22.88-.65-11.44-.65-22.88c0-11.44,2.31-11.56,1.35-22.96-.98-11.56-3.84-11.7-1.87-22.97Z"/>
</svg>