<?xml version="1.0" encoding="UTF-8"?>
<svg id="Layer_4" data-name="Layer 4" xmlns="http://www.w3.org/2000/svg" viewBox="0 0 180 180">
  <defs>
    <style>
      .cls-1 {
        fill: #480c3f;
      }
    </style>
  </defs>
  <path class="cls-1" d="M121.29,71.77c-2.58-2.2-4.69-5.56-7.74-7.46s-6.99-2.95-8.31-6.41c-.97-2.53-.94-5.59-.66-8.41s1.4-5.53,2.42-7.96c.61-1.45,2.09-1.79,3.24-2.86,1.28-1.17,1.81-2.53,1.09-4.53-.52-1.46-1.9-2.5-3.2-2.99-3.22-1.21-7.05-2.33-10.49-2.33-.11,0-1.96,1.87-3.78,1.87-1.75,0-1.72-1.74-3.5-1.74s-3.66.98-3.77.98c-3.44,0-7.15.33-10.37,1.54-1.29.49-2.07,1.47-2.6,2.93-.71,2-.89,3.08.39,4.25,1.14,1.07,1.96,1.71,2.58,3.16,1.01,2.43,3.68,4.79,3.95,7.6s-.52,5.99-1.49,8.52c-1.33,3.46-4.68,5.44-7.77,7.37s-6.21,3.76-8.79,5.96c-2.86,2.43-4.18,5.96-5.79,9.61s-2.4,6.97-2.77,10.82-1.86,7.98-.95,11.53c.89,3.5,2.44,6.96,3.61,10.53s1.31,7.48,2.74,10.89,3.19,6.91,4.94,10.08c1.62,2.96,4.69,5.14,6.11,8.2,1.14,2.47,1.73,5.15,2.89,7.61,1.15,2.46,2.35,5.06,4.41,6.66s4.78,3.04,7.64,3.04c2.53,0,2.53-1.29,5.06-1.29,1.75,0,1.75,1.33,3.5,1.33,2.53,0,2.53-1.26,5.07-1.26,2.85,0,5.8.08,7.86-1.53s2.96-4.53,4.12-6.98c1.16-2.46,2.16-4.95,3.3-7.42,1.41-3.06,2.47-6.32,4.1-9.28,1.75-3.17,2.99-6.61,4.45-10.07s3.55-6.54,4.7-10.04,1.52-7.33,2.41-10.83c.9-3.55,2.41-7.34,2.03-11.33s-1.72-7.66-3.26-11.15-4.48-6.17-7.34-8.61ZM122.65,102.86s.11-.24.13-.35c.82-4.95-1.1-9.88-2.74-14.26-1.61-4.38-4.21-8.11-7.88-10.98-1.97-1.56-4.01-3.12-5.81-4.95-2.85-2.75-3.98-6.49-5.3-10.22s-3.39-7.44-2.91-11.35c0,0,.59-.07.69.18.64,2.95.97,6.08,2.18,8.75s4.38,4.3,6.29,6.57,2.97,5.5,5.57,7.1c3.16,2.19,6.31,4.24,8.14,7.43s2.89,7.01,3.07,10.75.32,7.82-1.43,11.32Z"/>
  <path class="cls-1" d="M17.22,76.12c-.39,1.96-5.29,1.88-5.65-.09-1.97-10.65,2.07-10.95,2.07-21.78s-2.09-10.83-2.09-21.67-8.36-15.54-.08-22.53c9.81-8.28,13.56.31,26.4.31s12.84.19,25.68.19,12.84-1.13,25.68-1.13,12.84,2.17,25.68,2.17,12.84-1.77,25.68-1.77,13.07-1.37,25.76.6c1.98.31,1.83,3.73-.15,4.05-12.35,1.97-12.44,1.7-24.94,1.7-12.51,0-12.51-2.44-25.01-2.44s-12.51.93-25.01.93-12.51,1.66-25.01,1.66-12.51-2.24-25.02-2.24c-12.51,0-14.93-6.59-24.64,1.3-7.89,6.41-.17,9.7-.17,19.87s-2.04,10.3-1.06,20.42,3.84,10.48,1.88,20.45Z"/>
  <path class="cls-1" d="M149.84,170.39c-12.63,1.98-12.73.97-25.52.97s-12.79-.91-25.57-.91c-12.79,0-12.79.99-25.57.99s-12.79-.61-25.58-.61c-12.79,0-13.33,3.61-25.52-.26-7.11-2.25-6.71-4.18-8.64-11.38-3.29-12.33.04-12.43.04-25.19,0-12.76-4.44-13.1-2.46-25.7.31-1.98,4.01-1.65,4.33.32,1.97,12.22,1.19,12.24,1.19,24.63s-4.31,12.97-1.56,25.04c1.29,5.65,3.07,7.67,8.67,9.16,12.18,3.24,12.79.51,25.4.51s12.6-2.22,25.21-2.22,12.61-.33,25.21-.33,12.61,1.99,25.21,1.99,12.77-2.73,25.28-1.19c2.13.26,1.86,3.87-.12,4.18Z"/>
  <path class="cls-1" d="M171.78,162.06c-.34,1.97-2.83,1.91-3.18-.06-1.97-11.27-.23-11.34-.23-22.77,0-11.44-1.35-11.44-1.35-22.88,0-11.44,1.5-11.44,1.5-22.88s.49-11.44.49-22.88-1.64-11.44-1.64-22.88c0-11.44-2.21-11.77-.24-23.04.34-1.97,5.44-1.97,5.79,0,1.97,11.27.16,11.59.16,23.03s-1.22,11.44-1.22,22.88-.72,11.44-.72,22.88.55,11.44.55,22.88c0,11.44-1.44,11.51-.86,22.94.57,11.45,2.93,11.51.96,22.78Z"/>
</svg>