<?xml version="1.0" encoding="UTF-8"?>
<svg id="Layer_4" data-name="Layer 4" xmlns="http://www.w3.org/2000/svg" viewBox="0 0 180 180">
  <defs>
    <style>
      .cls-1, .cls-2 {
        fill: #480c3f;
      }

      .cls-2 {
        fill-rule: evenodd;
      }
    </style>
  </defs>
  <path class="cls-2" d="M153.9,108.9c-.1-3.44-1.05-6.42-1.12-9.14-.09-3.38.88-6.49.25-9.28s-2.72-5.19-4.61-8.03c-1.69-2.55-3.54-4.67-5.66-6.45-2.28-1.92-3.71-3.55-6.07-5.06,2.57-.95,3.75-2.6,5.26-4.55,1.59-2.05,1.84-4.65,2.26-7.15s1.45-5.32.6-7.66c-.91-2.51-3.2-4.76-5.7-6.69-2.12-1.64-4.82-2.37-8.03-2.81-3.33-.46-7.78.79-10.27,1.8-.07-2.4,1.24-5.98,1-8.33-.12-1.11-3.73-1.2-7.9-1.93-2.2-.38-4.67-1.68-7.54-1.95-2.43-.22-5.07.22-7.77.08-2.53-.12-5.14.25-7.75.21s-5.2-.22-7.73-.17c-2.7.05-5.4-1.59-7.83-1.43-2.88.18-5.48,1.24-7.68,1.58-4.11.62-6.78,1.76-6.97,2.95-.57,3.56-1.99,7.06-2.35,10.68-.2-.21.94-.4.7-.59-1.02-.81-3.2-1.98-5.65-2.42-1.93-.35-4.21-.26-6.13,0-3.2.44-5.26,2.74-7.38,4.37-2.5,1.93-5.24,3.53-6.15,6.04-.82,2.25-1.52,5.09-1.15,7.6s2.68,4.3,4.13,6.33,3.58,4.25,5.97,5.3c-3.61,2.14-6.98,4.55-8.71,7.75-1.4,2.6-2.16,4.87-2.82,7.25-.73,2.59-2.23,4.86-2.5,7.58-.25,2.47-1.08,5.03-1.31,7.92-.12,1.5.27,4.21.13,7.58-.09,2.23-1,4.76-1.1,7.51-.08,2.39.63,4.96.55,7.57s.77,5.04.7,7.57-.99,5.06-1.05,7.52c-.06,2.64.81,5.2.77,7.56-.05,2.82-.66,5.37-.68,7.53,0,1,2.56,2,7.14,2.67,2.22.33,4.8,1.65,7.81,1.9,2.42.2,5.11.38,7.95.54,2.51.14,5.27-2.06,8.04-1.95,2.56.1,5.15,2.12,7.87,2.19s5.27-1.01,7.96-.97,5.26,1.56,7.93,1.57,5.3-.47,7.95-.48,5.32.43,7.96.39,5.29-2.17,7.91-2.22,5.33-.44,7.93-.52c2.72-.09,5.44,1.68,8,1.57,2.77-.12,5.36-1.38,7.88-1.53,2.84-.17,5.56.57,7.99.36,3.01-.26,5.81.24,8.03-.07,4.59-.64,7.51-2.56,7.6-3.42.23-2.16-1.12-4.91-.95-7.85.13-2.43,1.93-4.97,2.02-7.69.09-2.54-.31-5.18-.26-7.79s-.42-5.27-.39-7.78c.03-2.77.7-5.4.69-7.77,0-3.14.29-5.84.23-7.79ZM134.22,52.96c1.81,2.13,2.79,5.12,1.63,7.96-1.02,2.49-3.39,3.8-6.36,4.82-2-1.58-4.06-2.41-5.27-4.56-1.86-3.28-2.4-7.4-2.69-11.56,2.3-.73,4.69-.04,6.95.39s4.08.99,5.75,2.95ZM44.2,54.32c1.92-2.27,3.95-4.13,6.58-4.4s4.72,1.01,7.23,2.15c-.63,3.64-.67,6.96-2.51,9.95-1.45,2.36-4.03,4.22-6.66,5.92-2.9-1.06-4.1-3.78-5.09-6.25-1.12-2.81-1.34-5.26.45-7.37ZM79.22,150.43c-3.16-.14-6.4.55-9.55.21s-6.13-1.94-9.25-2.48c-2.03-.3-4.3.26-6.25-.47s-3.79-1.87-5.42-3.15c-2.12-1.7-3.02-4.28-4.46-6.45s-3.29-4.09-4.16-6.61-2.21-4.91-2.62-7.55.65-5.36.59-8-.62-5.31-.46-7.9c.17-2.72-.02-5.44.3-7.94.38-2.51.16-5.18.69-7.65s2.99-4.17,3.75-6.59c.31-.39.93-.97,1.07-.49-.24,2.38-1.46,5.35-1.69,8.38-.2,2.59.25,5.38.16,8.24-.09,2.69.36,5.41.44,8.19s.1,5.46.44,8.14-.84,5.88-.13,8.44c.76,2.76,2.55,5.18,3.83,7.47,1.39,2.48,3.3,4.53,5.43,6.18s4.31,3.94,7.21,4.52c2.21.45,4.64-.11,6.88.27s4.43,1.05,6.68,1.37,4.54.37,6.79.62c2.47.26,5.04-.79,7.52-.61s4.87,1.72,7.35,1.82,4.98.6,7.47.6,5.16-1.57,7.64-1.68c.47.16.85,2.02.43,2.3-2.48.53-5.34,1.07-7.84,1.4s-5.08.7-7.61.85-5.12-.92-7.65-.91-5.04-.41-7.57-.52ZM139.62,84.61c-1.57-1.11-3.31-1.05-5.28-1.63s-3.72-2.11-5.63-2.43c-2.81-.43-5.79.33-8.65.14s-5.68-.42-8.54-.45-5.74-1.03-8.58-.96c-2.15.07-4.28,1.01-6.44,1.13s-4.54,1-6.69,1.19c-.47-.17-.02-.95.4-1.22,2.18-.29,4.44-1.17,7.23-1.5,2.37-.28,4.87-1.03,7.51-1.27,2.46-.22,5-1.08,7.56-1.21s5.14,1.84,7.65,1.84,5.22-1.47,7.66-1.26c2.67.23,5.08,1.58,7.38,2.12,2.71.64,5.37.96,7.32,2.13,0,0-1.08,2.29-2.92,3.37Z"/>
  <path class="cls-1" d="M104.71,18.58c-1.96-.39-1.88-5.29.09-5.65,10.65-1.97,10.95,2.07,21.78,2.07s10.83-2.09,21.67-2.09,15.54-8.36,22.53-.08c8.28,9.81-.31,13.56-.31,26.4s-.19,12.84-.19,25.68c0,12.84,1.13,12.84,1.13,25.68s-2.17,12.84-2.17,25.68c0,12.84,1.77,12.84,1.77,25.68,0,12.84,1.37,13.07-.6,25.76-.31,1.98-3.73,1.83-4.05-.15-1.97-12.35-1.7-12.44-1.7-24.94s2.44-12.51,2.44-25.01-.93-12.51-.93-25.01c0-12.51-1.66-12.51-1.66-25.01,0-12.51,2.24-12.51,2.24-25.02s6.59-14.93-1.3-24.64c-6.41-7.89-9.7-.17-19.87-.17s-10.3-2.04-20.42-1.06-10.48,3.84-20.45,1.88Z"/>
  <path class="cls-1" d="M10.44,151.19c-1.98-12.63-.97-12.73-.97-25.52,0-12.79.91-12.79.91-25.57s-.99-12.79-.99-25.57.61-12.79.61-25.58c0-12.79-3.61-13.33.26-25.52,2.25-7.11,4.18-6.71,11.38-8.64,12.33-3.29,12.43.04,25.19.04s13.1-4.44,25.7-2.46c1.98.31,1.65,4.01-.32,4.33-12.22,1.97-12.24,1.19-24.63,1.19-12.38,0-12.97-4.31-25.04-1.56-5.65,1.29-7.67,3.07-9.16,8.67-3.24,12.18-.51,12.79-.51,25.4,0,12.6,2.22,12.6,2.22,25.21s.33,12.61.33,25.21c0,12.61-1.99,12.61-1.99,25.21s2.73,12.77,1.19,25.28c-.26,2.13-3.87,1.86-4.18-.12Z"/>
  <path class="cls-1" d="M18.77,173.14c-1.97-.34-1.91-2.83.06-3.18,11.27-1.97,11.34-.23,22.77-.23s11.44-1.35,22.88-1.35,11.44,1.5,22.88,1.5,11.44.49,22.88.49,11.44-1.64,22.88-1.64,11.77-2.21,23.04-.24c1.97.34,1.97,5.44,0,5.79-11.27,1.97-11.59.16-23.03.16s-11.44-1.22-22.88-1.22-11.44-.72-22.88-.72-11.44.55-22.88.55-11.51-1.44-22.94-.86-11.51,2.93-22.78.96Z"/>
</svg>