<?xml version="1.0" encoding="UTF-8"?>
<svg id="Layer_4" data-name="Layer 4" xmlns="http://www.w3.org/2000/svg" viewBox="0 0 180 180">
  <defs>
    <style>
      .cls-1, .cls-2 {
        fill: #480c3f;
      }

      .cls-2 {
        fill-rule: evenodd;
      }
    </style>
  </defs>
  <path class="cls-2" d="M150.5,84.19c-.51-4.83-1.22-9.99-3.57-14.99-2.2-4.67-5.44-8.82-8.77-12.82-3.49-4.18-6.2-9.4-10.43-11.97-10.44-6.36-19.51-5.63-19.39-5.99.04-.13,1.47-6.9,1.44-11.57,0-1.3-7.82-1.72-14.57-1.78s-14.15.19-14.23,1.34c-.34,4.69-1.36,11.67-1.25,12.42.02.15-2.89.79-9.46,3.05-3.07,1.05-7.33.95-10.96,3.43-3.85,2.62-6.78,6.43-9.79,9.95s-5.12,7.57-7.23,11.73-5.6,7.84-6.74,12.37.07,9.42-.08,14.08c-.13,4.22-1.39,8.65-.51,12.74s2.19,8.44,3.94,12.23,4.12,7.74,6.61,11.03,6.29,6.09,9.44,8.65c7.26,5.91,15.35,8.19,15.44,9.04.38,3.4,1.37,6.22,1.68,9.97.09,1.09,6.19,1.5,14.29,1.9,4.87.24,10.26-.48,15.13-.54,8.14-.11,15.75.64,15.83-.45.23-3.08-1.5-11.29-1.17-11.91.23-.42,7.45-3.55,15.2-9.74,4.06-3.24,7.45-6.49,10.22-10.34,2.93-4.06,4.72-8.36,6.32-13.03s4.25-8.97,4.65-14.06c.37-4.72-1.5-9.59-2.04-14.72ZM65.43,88.77c-.1-4.57,2.24-9.39,5.02-13.39,2.54-3.65,6.1-7.3,10.73-9.28,3.93-1.68,8.77-.52,14-.23,4.22.23,8.8-.11,12.52,2.16s5.76,6.39,7.98,9.96,4.72,7.42,4.3,11.75c-.49,5.07-2.78,8.83-5.04,12.12-2.62,3.82-6.22,5.61-10.29,7.33s-8.04,4.91-12.52,4.86c-4.83-.06-8.86-2.8-12.52-4.51-4.11-1.92-7.84-4.15-10.05-8.03-1.98-3.47-4.03-7.78-4.13-12.73ZM109.45,143.67c-3.78,1.12-7.91,1.15-11.8,1.64s-8.09,1.13-12.02.89c-.44-.13.17-.24.6-.37,4.46-.4,8.46-2.91,12.88-3.97s9.29-.96,13.42-2.73,7.61-5.17,11.26-7.78,7.66-5.08,10.55-8.59,5.94-7.13,7.75-11.44c1.47-3.49.17-7.93,1.02-11.66s3.24-6.97,3.59-10.79c.14-.43.34-.68.45-.24.29,4.96.49,9.9-.35,14.43-.89,4.82-4.24,8.65-6.33,12.84s-3.28,9.2-6.57,12.68-7.96,5-12.19,7.48c-3.97,2.32-7.49,6.22-12.27,7.61Z"/>
  <path class="cls-1" d="M76.11,167.14c1.96.39,1.88,5.29-.09,5.65-10.65,1.97-10.95-2.07-21.78-2.07s-10.83,2.09-21.67,2.09-15.54,8.36-22.53.08c-8.28-9.81.31-13.56.31-26.4s.19-12.84.19-25.68c0-12.84-1.13-12.84-1.13-25.68,0-12.84,2.17-12.84,2.17-25.68,0-12.84-1.77-12.84-1.77-25.68,0-12.84-1.37-13.07.6-25.76.31-1.98,3.73-1.83,4.05.15,1.97,12.35,1.7,12.44,1.7,24.94s-2.44,12.51-2.44,25.01c0,12.51.93,12.51.93,25.01,0,12.51,1.66,12.51,1.66,25.01,0,12.51-2.24,12.51-2.24,25.02,0,12.51-6.59,14.93,1.3,24.64,6.41,7.89,9.7.17,19.87.17s10.3,2.04,20.42,1.06c10.31-1,10.48-3.84,20.45-1.88Z"/>
  <path class="cls-1" d="M170.39,34.52c1.98,12.63.97,12.73.97,25.52,0,12.79-.91,12.79-.91,25.57,0,12.79.99,12.79.99,25.57s-.61,12.79-.61,25.58c0,12.79,3.61,13.33-.26,25.52-2.25,7.11-4.18,6.71-11.38,8.64-12.33,3.29-12.43-.04-25.19-.04-12.76,0-13.1,4.44-25.7,2.46-1.98-.31-1.65-4.01.32-4.33,12.22-1.97,12.24-1.19,24.63-1.19s12.97,4.31,25.04,1.56c5.65-1.29,7.67-3.07,9.16-8.67,3.24-12.18.51-12.79.51-25.4,0-12.6-2.22-12.6-2.22-25.21,0-12.61-.33-12.61-.33-25.21,0-12.61,1.99-12.61,1.99-25.21s-2.73-12.77-1.19-25.28c.26-2.13,3.87-1.86,4.18.12Z"/>
  <path class="cls-1" d="M162.05,12.58c1.97.34,1.91,2.83-.06,3.18-11.27,1.97-11.34.23-22.77.23s-11.44,1.35-22.88,1.35-11.44-1.5-22.88-1.5-11.44-.49-22.88-.49-11.44,1.64-22.88,1.64c-11.44,0-11.77,2.21-23.04.24-1.97-.34-1.97-5.44,0-5.79,11.27-1.97,11.59-.16,23.03-.16s11.44,1.22,22.88,1.22,11.44.72,22.88.72,11.44-.55,22.88-.55,11.51,1.44,22.94.86c11.45-.57,11.51-2.93,22.78-.96Z"/>
</svg>