<?xml version="1.0" encoding="UTF-8"?>
<svg id="Layer_4" data-name="Layer 4" xmlns="http://www.w3.org/2000/svg" viewBox="0 0 180 180">
  <defs>
    <style>
      .cls-1 {
        fill: #480c3f;
      }
    </style>
  </defs>
  <path class="cls-1" d="M123.72,23.13c-5.62-.04-11.24-.65-16.86-.65s-11.24.53-16.86.53c-5.62,0-11.24-.65-16.86-.65s-11.23,2.2-16.85,2.24c-2.66.02-8.39-1.6-12.94-.03s-8.2,5.36-7.44,9.84c.55,3.16,4.91,3.42,7.44,4.19,5.89,1.8,9.45,5.74,12.31,10.1s4.76,9.53,5.32,15.14c.55,5.53.43,11.21-.55,16.35-1.51,7.93,3.01,13.17,7.09,19.23-.9,1.32-1.56,3.21-1.59,4.84-.14,4.4,3.28,7.09,3.52,11.58.38,7.17-6.6,10.31-10.01,15.54-2.05,3.15-3.2,7.53-2.55,10.96s3.4,6.98,7.07,8.74c3.98,1.9,9.34,1.95,13.67,1.95,6.18,0,6.18-.19,12.36-.19s6.18,2.26,12.36,2.26c4.34,0,9.29-2.96,13.25-4.86,3.68-1.75,6.04-4.61,6.69-8.04s-.65-7.06-2.7-10.21c-3.4-5.23-10.81-9.05-10.44-16.23.24-4.49,6.11-7.13,5.97-11.54-.05-1.63-.99-3.15-1.9-4.47,4.1-6.06,7.19-11.51,5.67-19.44-.98-5.14-1.82-11.07-1.27-16.61s4.2-10.24,7.14-14.71,6.28-7.61,12.17-9.41c2.53-.77,7.23-1.9,7.77-5.06.77-4.48-3.7-7.6-8.33-9.19s-10-2.17-12.67-2.19ZM74.7,141.14c-4.71-.42-9.71-2.24-9.99-7.8-.04-.9-.94-1.18-.65-2.14.97-.11.62-.76.62.22-1.81,4.82,3.83,7.06,8.06,8.27,1.3.42,2.73,2.89,4.09,3.12,0,0-.96-1.57-2.14-1.67ZM79.81,102.94c-3.1-.77-5.57-2.17-8.47-3.56-.31-.26-.79.44-.39.53,3.8,1.61,7.77,3.37,11.87,3.97s8.32-1.49,12.43-1.96,8.19.66,12.02-.95c1.07.09,1.56.04.8.8-4.53,1.72-9.2,2.87-14.01,3.1s-9.57-.76-14.25-1.93ZM130.57,37.77c-1.23.28-1.09-.74-2.34-.83-4.68-.33-9.6.01-14.53-.06s-9.64-.69-14.49-.62-9.65,2.37-14.43,2.47-9.81-1.95-14.51-1.9c-6.72.15-13.42,1.17-20.15,1.2-.41-.05-.49-.68-.09-.78,5.03-.54,10.14-.17,15.19-.54s10.05-1.03,15.1-1.22,10.1-.57,15.15-.57,10.11.2,15.16.38c6.74.29,13.63.18,20.29,1.56.28.07.05.8-.35.89Z"/>
  <path class="cls-1" d="M102.6,13.76c-1.96-.39-1.88-5.29.09-5.65,10.65-1.97,10.95,2.07,21.78,2.07s10.83-2.09,21.67-2.09,15.54-8.36,22.53-.08c8.28,9.81-.31,13.56-.31,26.4s-.19,12.84-.19,25.68c0,12.84,1.13,12.84,1.13,25.68s-2.17,12.84-2.17,25.68c0,12.84,1.77,12.84,1.77,25.68,0,12.84,1.37,13.07-.6,25.76-.31,1.98-3.73,1.83-4.05-.15-1.97-12.35-1.7-12.44-1.7-24.94s2.44-12.51,2.44-25.01-.93-12.51-.93-25.01c0-12.51-1.66-12.51-1.66-25.01,0-12.51,2.24-12.51,2.24-25.02s6.59-14.93-1.3-24.64c-6.41-7.89-9.7-.17-19.87-.17s-10.3-2.04-20.42-1.06-10.48,3.84-20.45,1.88Z"/>
  <path class="cls-1" d="M8.32,146.38c-1.98-12.63-.97-12.73-.97-25.52,0-12.79.91-12.79.91-25.57s-.99-12.79-.99-25.57.61-12.79.61-25.58c0-12.79-3.61-13.33.26-25.52,2.25-7.11,4.18-6.71,11.38-8.64,12.33-3.29,12.43.04,25.19.04s13.1-4.44,25.7-2.46c1.98.31,1.65,4.01-.32,4.33-12.22,1.97-12.24,1.19-24.63,1.19-12.38,0-12.97-4.31-25.04-1.56-5.65,1.29-7.67,3.07-9.16,8.67-3.24,12.18-.51,12.79-.51,25.4,0,12.6,2.22,12.6,2.22,25.21s.33,12.61.33,25.21c0,12.61-1.99,12.61-1.99,25.21s2.73,12.77,1.19,25.28c-.26,2.13-3.87,1.86-4.18-.12Z"/>
  <path class="cls-1" d="M16.66,168.33c-1.97-.34-1.91-2.83.06-3.18,11.27-1.97,11.34-.23,22.77-.23s11.44-1.35,22.88-1.35,11.44,1.5,22.88,1.5,11.44.49,22.88.49,11.44-1.64,22.88-1.64,11.77-2.21,23.04-.24c1.97.34,1.97,5.44,0,5.79-11.27,1.97-11.59.16-23.03.16s-11.44-1.22-22.88-1.22-11.44-.72-22.88-.72-11.44.55-22.88.55-11.51-1.44-22.94-.86-11.51,2.93-22.78.96Z"/>
</svg>