<?xml version="1.0" encoding="UTF-8"?>
<svg id="Layer_4" data-name="Layer 4" xmlns="http://www.w3.org/2000/svg" viewBox="0 0 180 180">
  <defs>
    <style>
      .cls-1, .cls-2 {
        fill: #480c3f;
      }

      .cls-2 {
        fill-rule: evenodd;
      }
    </style>
  </defs>
  <path class="cls-2" d="M131.51,120.97c-1.42-4.49,3.02-2.12,5.49-6.46,1.45-2.54,2.71-5.99,2.39-9.38-.36-3.78-3.96-5.56-6.7-7.36-4.28-2.81-7.86.59-8.93-4.41s4.09-2.42,6.94-6.96c1.57-2.5,1.93-5.29,1.41-9.27-.47-3.57-2-5.87-4.77-7.59-4.25-2.63-12.01.32-8.67-3.39,5.63-6.25,8.66-3.87,8.56-13.57-.04-4.2-3.03-6.66-6.13-8.54-4.66-2.82-7.59,1.03-9.87-4.03-1.96-4.36,1.25-9.54-.92-9.79-2.53-.29-6.75.59-11.51.42-3.57-.13-7.49-.47-11.42-.52s-7.91-1.17-11.44-1.13c-4.96.05-9.09,1.48-11.38,1.72-3.49.37-.5,4.51-2.92,9.46-2.63,5.38-5.48.56-10.61,3.66-3.16,1.9-6.93,4.82-7.52,9.49-.44,3.48,2.58,5.84,4.46,7.88,3.09,3.33,9.53,1.58,7.51,5.61-2.46,4.93-6.34.33-10.72,3.89-2.57,2.09-5.44,5.28-5.8,9.61-.34,4.12,1.77,7.67,3.84,10.04,3.54,4.05,7.88.22,8.07,5.46.19,4.97-3.25,1.7-7.01,5.25-2.1,1.98-4.31,3.94-4.54,7.94-.21,3.65,1.55,6.15,3.59,8.43,3.35,3.74,9.28,1.42,8.54,6.26-.81,5.27-5.94,1.75-9.42,6.14-1.93,2.43-3.04,5.41-2.78,9.68.2,3.42,1.2,6.67,4.01,9.42,2.28,2.23,5.86,2.98,9.48,4.56,3.02,1.32,5.98,3.37,9.73,4.11,4.02.8,8.19,2.48,12.58,2.79s8.58.04,12.87-.03,8.59-.98,12.77-1.33c4.42-.38,8.77-.45,12.77-1.04,4.2-.62,8.03-2.3,11.57-3.74,4.1-1.67,7.81-3.53,10.54-5.94,3.48-3.09,6.04-6.73,6.3-10.36.31-4.32-.86-8.07-2.59-10.56-3.26-4.69-6.16-1.31-7.77-6.4ZM62.6,67.78c3.83.34,6.52,1.3,10.39,1.39s7.8.18,11.65-.09,7.48-2.38,11.26-3.11c0,0,1.36,2.32.52,2.94-3.89.52-7.75,1.32-11.65,1.36s-7.91.47-11.8.14-6.51-2.06-10.37-2.63ZM65.73,99.28s-.65.25.19-.12c4.32-.16,8.53-.05,12.97-.17s8.77-1.93,13.09-2.24c4.38-.35,8.83.3,13.17-.26s9.04-1.71,13.27-2.96c-3.44,2.24-7.82,5.3-12.5,6.47-4.17,1.05-8.92,1.03-13.49,1.42s-9.09-.48-13.44-.58c-4.86-.11-9.31-1.07-13.25-1.56Z"/>
  <path class="cls-1" d="M15.11,77.54c-.39,1.96-5.29,1.88-5.65-.09-1.97-10.65,2.07-10.95,2.07-21.78s-2.09-10.83-2.09-21.67-8.36-15.54-.08-22.53c9.81-8.28,13.56.31,26.4.31s12.84.19,25.68.19,12.84-1.13,25.68-1.13,12.84,2.17,25.68,2.17,12.84-1.77,25.68-1.77,13.07-1.37,25.76.6c1.98.31,1.83,3.73-.15,4.05-12.35,1.97-12.44,1.7-24.94,1.7-12.51,0-12.51-2.44-25.01-2.44s-12.51.93-25.01.93-12.51,1.66-25.01,1.66-12.51-2.24-25.02-2.24c-12.51,0-14.93-6.59-24.64,1.3-7.89,6.41-.17,9.7-.17,19.87s-2.04,10.3-1.06,20.42,3.84,10.48,1.88,20.45Z"/>
  <path class="cls-1" d="M147.72,171.81c-12.63,1.98-12.73.97-25.52.97s-12.79-.91-25.57-.91c-12.79,0-12.79.99-25.57.99-12.79,0-12.79-.61-25.58-.61-12.79,0-13.33,3.61-25.52-.26-7.11-2.25-6.71-4.18-8.64-11.38-3.29-12.33.04-12.43.04-25.19,0-12.76-4.44-13.1-2.46-25.7.31-1.98,4.01-1.65,4.33.32,1.97,12.22,1.19,12.24,1.19,24.63s-4.31,12.97-1.56,25.04c1.29,5.65,3.07,7.67,8.67,9.16,12.18,3.24,12.79.51,25.4.51s12.6-2.22,25.21-2.22,12.61-.33,25.21-.33,12.61,1.99,25.21,1.99,12.77-2.73,25.28-1.19c2.13.26,1.86,3.87-.12,4.18Z"/>
  <path class="cls-1" d="M169.67,163.48c-.34,1.97-2.83,1.91-3.18-.06-1.97-11.27-.23-11.34-.23-22.77,0-11.44-1.35-11.44-1.35-22.88,0-11.44,1.5-11.44,1.5-22.88s.49-11.44.49-22.88-1.64-11.44-1.64-22.88c0-11.44-2.21-11.77-.24-23.04.34-1.97,5.44-1.97,5.79,0,1.97,11.27.16,11.59.16,23.03s-1.22,11.44-1.22,22.88-.72,11.44-.72,22.88.55,11.44.55,22.88c0,11.44-1.44,11.51-.86,22.94.57,11.45,2.93,11.51.96,22.78Z"/>
</svg>