<?xml version="1.0" encoding="UTF-8"?>
<svg id="Layer_4" data-name="Layer 4" xmlns="http://www.w3.org/2000/svg" viewBox="0 0 180 180">
  <defs>
    <style>
      .cls-1 {
        fill: #480c3f;
      }
    </style>
  </defs>
  <path class="cls-1" d="M149.15,68.32c-.19,0-4.64-.5-9.29-.5-8.31,0-8.31.95-16.62.95-8.31,0-8.31.37-16.62.37s-8.31-.93-16.62-.93-8.31.72-16.62.72-8.31-1.33-16.62-1.33-8.31.39-16.62.39c-4.64,0-9.1-.55-9.27-.55-4.14,0-7.36,2.79-6.95,7.23.41,4.58,2.85,7.91,6.45,10.07.53.32,1.39.44,1.12.99-.9,1.85-1.71,6.2-1.63,6.89.73,6.33,6.46,11.06,13.64,13.43s15.05,2.39,19.83,2.9c4.32.45,10.47.12,13.45,3.8,4.1,5.13.94,13.87-2.58,18.66-2.69,3.67-5.03,5.65-5.66,9.79-.11.7.37.73,1.08.72,6.75-.08,13.45-.79,20.14-.79s13.37,2.15,20.12,2.21c.71,0,.51-1.35.41-2.05-.61-4.21-2.64-6.84-4.73-9.69-3.52-4.79-6.15-13.51-2.04-18.64,2.96-3.68,8.75-4.48,13.08-4.94,4.77-.51,12.49-1.23,19.41-3.52s14.67-5.42,15.39-11.75c.08-.69-1.46-5.43-2.35-7.28-.27-.55-.3-1.06.23-1.38,3.59-2.16,8.1-4.7,8.51-9.28.39-4.44-4.49-6.52-8.62-6.52ZM60.4,87.66c-8.66-.36-17.23-1.3-25.88-1.94-1.09-.38-1.19-2.53-.08-2.86,5.73.51,11.78.57,17.53.96s11.43,1.65,17.19,1.93,11.53-.24,17.28-.11c5.75.11,11.5,1.51,17.26,1.47s11.52-.59,17.27-.93,11.56-.34,17.27-1.13c0,0,.33.3.1.35-6.43.97-13.05.46-19.52.93s-12.91,1.82-19.41,1.93-13-.08-19.5-.2-13.01-.17-19.49-.39Z"/>
  <path class="cls-1" d="M77.4,167.72c1.96.39,1.88,5.29-.09,5.65-10.65,1.97-10.95-2.07-21.78-2.07s-10.83,2.09-21.67,2.09-15.54,8.36-22.53.08c-8.28-9.81.31-13.56.31-26.4s.19-12.84.19-25.68c0-12.84-1.13-12.84-1.13-25.68,0-12.84,2.17-12.84,2.17-25.68,0-12.84-1.77-12.84-1.77-25.68,0-12.84-1.37-13.07.6-25.76.31-1.98,3.73-1.83,4.05.15,1.97,12.35,1.7,12.44,1.7,24.94s-2.44,12.51-2.44,25.01c0,12.51.93,12.51.93,25.01,0,12.51,1.66,12.51,1.66,25.01,0,12.51-2.24,12.51-2.24,25.02,0,12.51-6.59,14.93,1.3,24.64,6.41,7.89,9.7.17,19.87.17s10.3,2.04,20.42,1.06c10.31-1,10.48-3.84,20.45-1.88Z"/>
  <path class="cls-1" d="M171.68,35.1c1.98,12.63.97,12.73.97,25.52,0,12.79-.91,12.79-.91,25.57,0,12.79.99,12.79.99,25.57s-.61,12.79-.61,25.58c0,12.79,3.61,13.33-.26,25.52-2.25,7.11-4.18,6.71-11.38,8.64-12.33,3.29-12.43-.04-25.19-.04-12.76,0-13.1,4.44-25.7,2.46-1.98-.31-1.65-4.01.32-4.33,12.22-1.97,12.24-1.19,24.63-1.19s12.97,4.31,25.04,1.56c5.65-1.29,7.67-3.07,9.16-8.67,3.24-12.18.51-12.79.51-25.4,0-12.6-2.22-12.6-2.22-25.21,0-12.61-.33-12.61-.33-25.21,0-12.61,1.99-12.61,1.99-25.21s-2.73-12.77-1.19-25.28c.26-2.13,3.87-1.86,4.18.12Z"/>
  <path class="cls-1" d="M163.34,13.16c1.97.34,1.91,2.83-.06,3.18-11.27,1.97-11.34.23-22.77.23s-11.44,1.35-22.88,1.35-11.44-1.5-22.88-1.5-11.44-.49-22.88-.49-11.44,1.64-22.88,1.64c-11.44,0-11.77,2.21-23.04.24-1.97-.34-1.97-5.44,0-5.79,11.27-1.97,11.59-.16,23.03-.16s11.44,1.22,22.88,1.22,11.44.72,22.88.72,11.44-.55,22.88-.55,11.51,1.44,22.94.86c11.45-.57,11.51-2.93,22.78-.96Z"/>
</svg>