<?xml version="1.0" encoding="UTF-8"?>
<svg id="Layer_6" data-name="Layer 6" xmlns="http://www.w3.org/2000/svg" viewBox="0 0 180 180">
  <defs>
    <style>
      .cls-1 {
        fill: #480c3f;
      }

      .cls-2 {
        fill: none;
        stroke: #480c3f;
        stroke-miterlimit: 10;
        stroke-width: 4px;
      }
    </style>
  </defs>
  <path class="cls-1" d="M106.84,12.86c-1.96-.39-2.15-2.12-.19-2.49,10.65-1.97,10.78,1.11,21.61,1.11s10.83-1.91,21.67-1.91,13.76-6.99,20.74,1.29c8.28,9.81.94,12.06.94,24.9s-1.06,12.84-1.06,25.68c0,12.84.7,12.84.7,25.68,0,12.84-1.07,12.84-1.07,25.68,0,12.84-.07,12.84-.07,25.68,0,12.84,4.56,13.17,2.58,25.86-.31,1.98-5.88,1.98-6.2,0-1.97-12.35-.14-12.68-.14-25.19s.48-12.51.48-25.01c0-12.51-.06-12.51-.06-25.01,0-12.51.74-12.51.74-25.01,0-12.51-1.02-12.51-1.02-25.02,0-12.51,8.58-14.97.69-24.68-6.41-7.89-9.75-.93-19.91-.93s-10.2-.79-20.36-.54-10.09,1.87-20.07-.09Z"/>
  <path class="cls-1" d="M12.12,147.72c-1.98-12.63-.97-12.73-.97-25.52,0-12.79.91-12.79.91-25.57,0-12.79-.99-12.79-.99-25.57,0-12.79.61-12.79.61-25.58s-3.61-13.33.26-25.52c2.25-7.11,4.18-6.71,11.38-8.64,12.33-3.29,12.43.04,25.19.04s13.1-4.44,25.7-2.46c1.98.31,1.65,4.01-.32,4.33-12.22,1.97-12.24,1.19-24.63,1.19-12.38,0-12.97-4.31-25.04-1.56-5.65,1.29-7.67,3.07-9.16,8.67-3.24,12.18-.51,12.79-.51,25.4,0,12.6,2.22,12.6,2.22,25.21,0,12.61.33,12.61.33,25.21,0,12.61-1.99,12.61-1.99,25.21s2.73,12.77,1.19,25.28c-.26,2.13-3.87,1.86-4.18-.12Z"/>
  <path class="cls-1" d="M20.46,169.67c-1.97-.34-1.91-2.83.06-3.18,11.27-1.97,11.34-.23,22.77-.23s11.44-1.35,22.88-1.35,11.44,1.5,22.88,1.5,11.44.49,22.88.49,11.44-1.64,22.88-1.64,11.77-2.21,23.04-.24c1.97.34,1.97,5.44,0,5.79-11.27,1.97-11.59.16-23.03.16s-11.44-1.22-22.88-1.22-11.44-.72-22.88-.72c-11.44,0-11.44.55-22.88.55-11.44,0-11.51-1.44-22.94-.86s-11.51,2.93-22.78.96Z"/>
  <path class="cls-1" d="M61.23,85.31c2.31-3.31,2.74,2.23,6.1,4.47s3.64,1.83,7,4.07,3.18,2.52,6.55,4.76,2.77,4.09,6.82,3.95,3.11-2.22,6.31-4.69,3.32-2.33,6.53-4.8,3.07-2.66,6.28-5.13,4.74-8.36,6.69-4.81c2.77,5.03-1.17,5.75-3.49,11-1.53,3.47-1.97,3.17-4.23,6.21s-1.82,3.37-4.08,6.42-2.96,2.53-5.22,5.58-2.01,3.24-4.27,6.29-.71,6.31-4.51,6.3-2.23-3.34-4.57-6.4-2.17-3.19-4.51-6.25-2.45-2.99-4.78-6.05-2.7-2.8-5.04-5.87-1.75-3.57-4.43-6.34c-3.55-3.67-5.94-4.72-3.16-8.7Z"/>
  <path class="cls-1" d="M96.31,30.66c-3.19-3.03-4.82.09-9.21.09s-5.66-2.73-8.85.29c-2.74,2.61.14,3.87.58,7.62s1.43,3.64,1.87,7.4-.43,3.86.01,7.62.64,3.74,1.08,7.5.13,3.8.57,7.56.24,3.79.68,7.55.81,3.72,1.25,7.48.47,3.76.91,7.52-.66,4.1.65,7.65c.33.89,2.41.91,2.74.02,1.3-3.55-.64-3.99-.21-7.75s1.21-3.67,1.64-7.43.45-3.76.88-7.52.13-3.79.56-7.55.77-3.72,1.2-7.48.51-3.75.94-7.52.3-3.78.73-7.54-.46-3.93.88-7.47c1.55-4.1,3.84-5.44,1.09-8.04Z"/>
  <g>
    <path class="cls-1" d="M87.11,143.03c-11.12.75-11.13-.02-22.28-.02-11.14,0-11.35,2.35-22.35.54-2.68-.44-3.42-1.86-3.81-4.55-1.39-9.5-.64-9.73.06-19.31.05-.7,1.78-.67,1.84.03.7,9.3-.86,9.36.26,18.61.25,2.1.2,3.47,2.3,3.75,10.89,1.45,11.04-.55,22.02-.55s10.98-.11,21.94.54c.82.05.77.91.02.96Z"/>
    <path class="cls-2" d="M87.11,143.03c-11.12.75-11.13-.02-22.28-.02-11.14,0-11.35,2.35-22.35.54-2.68-.44-3.42-1.86-3.81-4.55-1.39-9.5-.64-9.73.06-19.31.05-.7,1.78-.67,1.84.03.7,9.3-.86,9.36.26,18.61.25,2.1.2,3.47,2.3,3.75,10.89,1.45,11.04-.55,22.02-.55s10.98-.11,21.94.54c.82.05.77.91.02.96Z"/>
  </g>
  <g>
    <path class="cls-1" d="M135.46,115.38c.06-.85,1.12-.89,1.18-.03.85,13.88,8.47,16.77-.16,27.68-6.81,8.62-10.82-.06-21.81-.06s-10.99.82-21.98.82-11.03.26-21.98-.6c-.85-.07-.82-1.29.03-1.36,10.67-.85,10.67-.45,21.38-.45s10.7-.48,21.41-.48,12.41,6.36,21.52.73c11.09-6.86-.44-13.22.42-26.24Z"/>
    <path class="cls-2" d="M135.46,115.38c.06-.85,1.12-.89,1.18-.03.85,13.88,8.47,16.77-.16,27.68-6.81,8.62-10.82-.06-21.81-.06s-10.99.82-21.98.82-11.03.26-21.98-.6c-.85-.07-.82-1.29.03-1.36,10.67-.85,10.67-.45,21.38-.45s10.7-.48,21.41-.48,12.41,6.36,21.52.73c11.09-6.86-.44-13.22.42-26.24Z"/>
  </g>
</svg>