<?xml version="1.0" encoding="UTF-8"?>
<svg id="Layer_6" data-name="Layer 6" xmlns="http://www.w3.org/2000/svg" viewBox="0 0 180 180">
  <defs>
    <style>
      .cls-1 {
        fill: #480c3f;
      }
    </style>
  </defs>
  <g>
    <path class="cls-1" d="M72.58,31.75c.52-3.64,3.42-8.08,6.95-8.56,4.29-.58,9.27.54,14.16.77s9.62,1.59,13.98,1.22c6.48.98,8.64,6.61,8.1,12.71,5.08,2.8,6.37-2.14,12.16-2.14s5.81.26,11.61.37c3.67.31,7.37,2.15,9.44,4.59,2.19,2.58,3.59,6.63,3.38,9.99-.2,3.16-3.37,5.29-6.23,7.72-1.72,1.46-1.53,3.26-3.42,4.24-1.41,5.74-.6,5.71-1.22,11.6-.62,5.88-1.35,5.81-1.97,11.69s-2.17,5.72-2.79,11.61,1.57,6.12.95,12-2.08,5.74-2.7,11.62q-.62,5.89-1.09,11.8c-.06,4.89-.26,10.21-2.85,13.66s-7.45,5.51-12.73,5.86c-4.08.27-8.26.83-12.45.81s-8.29-.34-12.44-.46-8.29-.17-12.41-.22-8.32-.74-12.41-.54c-3.95-.54-7.63-1.78-10.09-4.23s-2.77-6.24-3.4-10.15c-.75-6.28-1.11-6.23-1.78-12.51s-1.24-6.23-1.91-12.51-.26-6.33-.92-12.62-1.84-6.16-2.51-12.45-.13-6.35-.8-12.64-.56-6.3-1.28-12.59c-.16-.5-2.39.28-3.01-.03-4.2-2.06-5.23-7.21-5.73-11.34s.2-8.28,3.86-11.24c1.3-1.05,4.68-2.15,6.31-2.15,6.05,0,6.05-.43,12.1-.43s6.06.11,12.05-.69c.16-1.64.88-3.16,1.11-4.75ZM110.07,37.84c1.96-.78-1.32-3.11-1.32-5.22,0-.89-1.09-2.09-2.02-2.19-4.05-.46-8.59-1.38-13.1-1.18s-8.92.36-13.02.04c-3.19.45-2.78,3.98-2.7,6.49,5.19,1.21,5.08.35,10.41.35s5.58-1.12,10.83-.19c5.61.99,5.94,3.88,10.9,1.92ZM47.84,42.24c-3.66.79-4.42,4.75-4.32,7.61s1.12,5.71,4.83,6.22c5.68.19,5.68,1.09,11.36,1.09s5.68.07,11.36.07,5.68-2.28,11.36-2.28,5.68.38,11.36.38,5.68-.21,11.36-.21,5.68-.04,11.36-.04,5.68,2.22,11.37,2.22,5.64-2.3,11.32-2.52c3.82-.58,4.52-2.23,4.52-5.14s-.67-5.3-4.49-5.87c-5.7-.21-5.69-1.55-11.4-1.55s-5.71,2.21-11.42,2.21-5.71-1.46-11.41-1.45-5.71.16-11.42.16-5.71,1.34-11.42,1.34-5.71-.78-11.42-.78-5.8.93-11.5.49-5.71-2.26-11.41-1.96ZM135.83,61.75c-3.86-4.45-6.7,1.63-12.59,1.63s-5.89-.95-11.77-.95-5.89-1.09-11.78-1.09-5.89-.07-11.78-.07-5.89,2.28-11.78,2.28-5.89-.38-11.78-.38-7.22-4.56-11.08-.11.9,5.33,1.54,11.37-1.57,6.28-.92,12.33,3.15,5.78,3.79,11.83.63,6.05,1.28,12.09-.08,6.13.56,12.18c.64,6.05-.75,6.17-.26,12.24.12,5.46,4.38,8.58,9.9,9.4,4-.21,7.99,1.22,12.09,1.27s8.1.02,12.17.14,8.15-1.1,12.18-1.08,8.14.72,12.13.44c6.09-.42,8.42-4.44,8.72-10.3.53-6.06.86-6.04,1.5-12.09s.57-6.05,1.21-12.1,1.36-5.97,2-12.02.13-6.1.77-12.15c.64-6.05.65-6,2.72-11.72,2.37-6.54,5.19-8.53,1.2-13.13Z"/>
    <path class="cls-1" d="M76.45,131.63c-2.4,2.29-4.76.5-5.06-2.49-.4-4.04-.27-8.23-.43-12.42s-1.04-8.32-1.29-12.38c-.28-4.58-.17-9.23-.52-13.85s-.44-9.24-.58-13.83c-.05-1.55-.29-2.74,1.21-3.63,2.22-1.31,4.56-.4,4.84,2.09.21,4.12.72,8.22.97,12.34.25,4.12-.37,8.29-.11,12.41s.75,8.22.98,12.33,1.02,8.21,1.19,12.33c.08,1.98.37,5.6-1.2,7.1Z"/>
    <path class="cls-1" d="M118.63,72.96c.9.95,1.04,2.5,1,3.73-.11,3.55-.99,7.07-1.22,10.64s.04,7.15-.22,10.7-.33,7.14-.55,10.67c-.2,3.35-1.08,6.77-1.2,10.21s-.3,6.87-.63,10.2c-.44,4.41-4.41,5.23-5.6,1.07-.21-5.56-.53-5.57-.22-11.13s.43-5.55.74-11.1.92-5.52,1.23-11.07-.18-5.58.13-11.14.23-5.57.68-11.12c.48-2.43,4.18-3.42,5.86-1.65Z"/>
    <path class="cls-1" d="M92.76,72.5c2.02-.46,3.71.15,3.84,2.36.05,5.53.07,5.53.07,11.06s-.09,5.53-.09,11.07-.13,5.53-.13,11.06.82,5.53.82,11.07c0,5.53-.72,5.52-.87,11.06-.39,3.25-4.66,3.63-5.75.67-.44-5.6.15-5.64.14-11.26s.15-5.62.13-11.24-.16-5.62-.17-11.24-.59-5.62-.61-11.25.65-5.63.64-11.25c0-.93,1.12-1.91,1.98-2.11Z"/>
  </g>
  <path class="cls-1" d="M107.26,12.86c-1.96-.39-2.15-2.12-.19-2.49,10.65-1.97,10.78,1.11,21.61,1.11s10.83-1.91,21.67-1.91,13.76-6.99,20.74,1.29c8.28,9.81.94,12.06.94,24.9s-1.06,12.84-1.06,25.68c0,12.84.7,12.84.7,25.68,0,12.84-1.07,12.84-1.07,25.68,0,12.84-.07,12.84-.07,25.68,0,12.84,4.56,13.17,2.58,25.86-.31,1.98-5.88,1.98-6.2,0-1.97-12.35-.14-12.68-.14-25.19s.48-12.51.48-25.01c0-12.51-.06-12.51-.06-25.01,0-12.51.74-12.51.74-25.01,0-12.51-1.02-12.51-1.02-25.02,0-12.51,8.58-14.97.69-24.68-6.41-7.89-9.75-.93-19.91-.93s-10.2-.79-20.36-.54-10.09,1.87-20.07-.09Z"/>
  <path class="cls-1" d="M12.55,147.72c-1.98-12.63-.97-12.73-.97-25.52,0-12.79.91-12.79.91-25.57,0-12.79-.99-12.79-.99-25.57,0-12.79.61-12.79.61-25.58s-3.61-13.33.26-25.52c2.25-7.11,4.18-6.71,11.38-8.64,12.33-3.29,12.43.04,25.19.04s13.1-4.44,25.7-2.46c1.98.31,1.65,4.01-.32,4.33-12.22,1.97-12.24,1.19-24.63,1.19-12.38,0-12.97-4.31-25.04-1.56-5.65,1.29-7.67,3.07-9.16,8.67-3.24,12.18-.51,12.79-.51,25.4,0,12.6,2.22,12.6,2.22,25.21,0,12.61.33,12.61.33,25.21,0,12.61-1.99,12.61-1.99,25.21s2.73,12.77,1.19,25.28c-.26,2.13-3.87,1.86-4.18-.12Z"/>
  <path class="cls-1" d="M20.88,169.67c-1.97-.34-1.91-2.83.06-3.18,11.27-1.97,11.34-.23,22.77-.23s11.44-1.35,22.88-1.35,11.44,1.5,22.88,1.5,11.44.49,22.88.49,11.44-1.64,22.88-1.64,11.77-2.21,23.04-.24c1.97.34,1.97,5.44,0,5.79-11.27,1.97-11.59.16-23.03.16s-11.44-1.22-22.88-1.22-11.44-.72-22.88-.72c-11.44,0-11.44.55-22.88.55-11.44,0-11.51-1.44-22.94-.86s-11.51,2.93-22.78.96Z"/>
</svg>